M48
;Layer_Color=9474304
;FILE_FORMAT=2:5
INCH
;TYPE=PLATED
T01F00S00C0.00787
T02F00S00C0.01299
T03F00S00C0.01500
T05F00S00C0.02800
T06F00S00C0.03150
T07F00S00C0.03346
T08F00S00C0.03898
T09F00S00C0.03937
T11F00S00C0.05512
T12F00S00C0.06299
T13F00S00C0.12000
T14F00S00C0.17717
%
T01
X0230787Y0432094
X0228031Y0434850
Y0440362
X0230787Y0443118
X0233543Y0440362
X0236299Y0443118
X0239055Y0440362
Y0434850
X0233543
X0236299Y0432094
T02
X0472953Y0250594
Y0256500
Y0262405
X0467047
Y0256500
Y0250594
T03
X0139000Y0468500
X0197000Y0460000
Y0453000
Y0448000
Y0443000
X0177000Y0408000
Y0403000
X0192500Y0373000
X0197000
X0212500Y0374000
X0234000
X0262500
X0272000Y0367000
X0277500Y0337500
X0260000Y0333000
X0243500Y0337500
X0229000Y0333000
X0212000Y0338000
X0307750Y0378250
X0296000Y0441500
X0304500Y0456000
X0351000
X0349500Y0444500
X0346000Y0438000
X0397500Y0444500
X0408500Y0449500
X0425500Y0456500
X0453000Y0446500
X0437500Y0415000
Y0404500
X0429500Y0375000
X0411500Y0378500
X0465500
X0354250Y0378250
X0328750Y0374750
X0327250Y0398750
X0473000Y0456500
X0156500Y0475882
X0136000Y0470500
T05
X0106105Y0146991
Y0151491
X0139713Y0151775
Y0147275
X0195500Y0155500
X0208571Y0146750
X0212571
X0222500Y0146500
X0226500
X0235933Y0146750
X0239933
X0249500Y0146500
X0253500
X0263000
X0267000
X0276500
X0280500
X0289500
X0293500
X0306000Y0154500
X0275000Y0156000
X0271000Y0155500
X0266500Y0156000
X0241593Y0155409
X0237807Y0154620
X0233102Y0154527
X0228907Y0155409
X0316105Y0151991
Y0147491
X0352105Y0146491
Y0150991
X0359605
Y0146491
X0394105
Y0150991
X0518213Y0239526
Y0243526
X0520240Y0253820
Y0257820
Y0261820
X0524820Y0271760
X0528820
X0532820
X0509320Y0271260
X0505320
X0501320
X0460000Y0303000
Y0306500
X0394535Y0293647
Y0289647
X0394640Y0283638
Y0279138
X0394500Y0266500
Y0262500
X0394605Y0256491
Y0251991
X0384459Y0250810
X0381780Y0250045
X0380959Y0247310
X0378280Y0246545
X0374459Y0247310
X0371780Y0246545
X0370459Y0243310
X0367780Y0242545
X0366459Y0247310
X0363780Y0246545
X0367780Y0250545
X0370459Y0251310
X0359605Y0252991
Y0257491
X0359500Y0263500
Y0267500
X0352000Y0261000
X0348000
X0341991Y0260895
X0337491
X0341500Y0272500
X0343500Y0275500
Y0279000
X0342000Y0282000
X0341500Y0286000
X0343500Y0289000
Y0292500
X0342000Y0295500
X0333000
X0330500Y0292500
Y0289000
X0333000Y0286000
Y0282000
X0330500Y0279000
Y0275500
X0333000Y0272500
X0316075Y0274892
Y0279392
X0315970Y0285401
Y0289401
X0349500Y0302000
X0353500Y0301961
X0357500Y0302000
X0368491Y0302395
X0372491
X0378500Y0302500
X0383000
X0381280Y0287045
X0377780Y0283545
X0371280
X0367280Y0287545
X0363280Y0283545
X0367280Y0279545
X0381280Y0280045
X0384780Y0283545
X0385280Y0246545
X0387959Y0247310
X0384459Y0243810
X0381780Y0243045
X0394000Y0236000
Y0231500
X0393500Y0224500
Y0220500
X0387643Y0208377
X0389643Y0205877
X0389143Y0202377
X0386643Y0199877
X0382643
X0380143Y0202877
X0380643Y0207377
X0384643Y0209877
X0370155Y0207127
X0370218Y0203334
X0367718Y0200834
X0364218Y0199834
X0360718Y0201834
X0360218Y0205834
X0362218Y0209834
X0366655Y0210127
X0358500Y0218500
Y0222500
X0351874Y0222000
Y0218000
X0351769Y0228009
Y0232509
X0359500Y0233000
Y0229000
X0344280Y0244045
X0347780Y0247545
X0344280Y0251045
X0340780Y0247545
X0334280
X0330280Y0251545
X0326280Y0247545
X0330280Y0243545
X0317500Y0233500
X0317897Y0228882
X0318002Y0222873
Y0218873
X0322039Y0210069
X0326477Y0210362
X0329977Y0207362
X0330039Y0203569
X0327539Y0201069
X0324039Y0200069
X0320539Y0202069
X0320039Y0206069
X0316000Y0195000
Y0191000
X0316105Y0184991
Y0180491
X0322039Y0176069
X0326477Y0176362
X0329977Y0173362
X0330039Y0169569
X0327539Y0167069
X0324039Y0166069
X0320539Y0168069
X0320039Y0172069
X0316000Y0162000
Y0158000
X0342464Y0166112
X0346464
X0348965Y0168612
X0349465Y0172112
X0347464Y0174612
X0344464Y0176112
X0340464Y0173612
X0339965Y0169112
X0352000Y0161000
Y0157000
X0359500
Y0161000
X0360718Y0167834
X0360218Y0171834
X0362218Y0175834
X0366655Y0176127
X0370155Y0173127
X0370218Y0169334
X0367718Y0166834
X0364218Y0165834
X0382643Y0165877
X0386643
X0389143Y0168377
X0389643Y0171877
X0387643Y0174377
X0384643Y0175877
X0380643Y0173377
X0380143Y0168877
X0394000Y0161000
Y0157000
X0394605Y0180491
Y0184991
X0394500Y0191000
Y0195000
X0359500Y0195500
Y0192000
Y0185500
Y0181000
X0352105Y0179991
Y0184491
X0352000Y0190500
Y0194500
X0348965Y0202612
X0349465Y0206112
X0347464Y0208612
X0344464Y0210112
X0340464Y0207612
X0339965Y0203112
X0342464Y0200112
X0346464
X0306000Y0198000
Y0194000
Y0185000
Y0181000
Y0172000
Y0168000
Y0158500
X0281500Y0161000
X0278000Y0161500
X0278500Y0158000
X0275500Y0159500
X0272500Y0158500
X0269000
X0266000Y0159500
X0263000Y0158000
Y0161500
X0259500
X0261000Y0164500
X0260000Y0167500
Y0171000
X0261000Y0174000
X0257500Y0173500
X0257000Y0169500
X0257500Y0165000
X0249590Y0164407
X0246500Y0164000
X0247590Y0160593
X0244500Y0161000
X0244880Y0157307
X0242000Y0158500
X0239000Y0157500
X0235000Y0157000
X0231524Y0157655
X0228500Y0158500
X0225093Y0158409
X0225500Y0161500
X0222512Y0162290
X0224000Y0165000
X0221120Y0166193
X0221027Y0170898
X0223500Y0169000
X0224500Y0172500
X0225500Y0175500
X0225093Y0178591
X0228500Y0178000
X0228620Y0181193
X0231500Y0180000
X0232154Y0183024
X0234500Y0181000
X0238000Y0180500
X0240500Y0179000
X0240907Y0182091
X0243407Y0180091
X0243500Y0177000
X0246590Y0177407
X0245500Y0174500
X0248488Y0173710
X0247000Y0171000
X0247500Y0167500
X0249973Y0169398
X0259500Y0177000
X0263000Y0176500
X0265500Y0178500
Y0182000
X0270000Y0182500
X0268500Y0179500
X0272000
X0275000Y0178500
X0274500Y0182000
X0278000Y0180000
Y0176500
X0281500Y0177000
X0280000Y0174000
X0281000Y0171000
Y0167500
X0284500Y0167388
Y0170500
X0283500Y0173500
Y0164500
X0280000Y0164000
X0262000Y0180000
X0263000Y0205000
X0267000
X0276500
X0280500
X0289500
X0293500
X0298500Y0214750
X0298476Y0218750
X0298500Y0222250
X0308145Y0222769
Y0219269
X0305780Y0244045
X0309280Y0247545
X0305780Y0251045
X0302280Y0247545
X0295780
X0291780Y0251545
X0287780Y0247545
X0291780Y0243545
X0277000Y0241000
X0274000Y0239500
X0270500
X0267500Y0241500
X0263500Y0241000
X0260500Y0239500
X0257000
X0254000Y0241500
Y0250000
X0257000Y0252500
X0260500
X0263500Y0250000
X0267500
X0270500Y0252500
X0274000
X0277000Y0250000
X0272000Y0261000
X0268000
X0261991Y0260895
X0257491
X0246000Y0252500
X0241000Y0254000
X0236000Y0252000
X0231000Y0253500
X0225500Y0254000
X0221000Y0250500
Y0241000
X0225500Y0238500
X0230500
X0235500Y0240000
X0240500Y0238000
X0245500Y0239000
X0252500Y0228500
Y0224500
X0252605Y0218491
Y0213991
X0253500Y0205000
X0249500
X0239933Y0205250
X0235933
X0226500Y0205000
X0222500
X0212571Y0205250
X0208571
X0201500Y0217000
X0201024Y0219750
X0201500Y0223000
X0192000Y0226000
Y0217000
X0179898Y0211973
X0174500Y0213500
X0169102Y0210973
X0161500Y0210000
X0156500Y0213500
X0160500Y0200500
X0171500Y0199500
X0177500Y0199000
X0181973Y0201602
X0183091Y0207407
X0195500Y0199000
Y0195000
Y0186000
Y0182000
Y0173000
Y0169000
Y0159500
X0182500Y0167500
X0183091Y0173407
X0179898Y0177973
X0174500Y0179500
X0169102Y0176973
X0161500Y0176000
X0156500Y0179500
X0160500Y0166500
X0171000Y0165000
X0177500Y0164500
X0222410Y0175093
X0236607Y0183264
X0229500Y0216250
Y0220250
Y0224250
X0209000Y0241000
X0214500Y0247000
X0208500Y0253000
X0195000
X0189500Y0247000
X0178674Y0247084
X0173175Y0241084
X0172675Y0253084
X0159000Y0253000
Y0241000
X0158500Y0273000
X0157000Y0276000
Y0279500
X0159000Y0282500
X0158500Y0286500
X0157000Y0289500
Y0293000
X0159000Y0296000
X0158082Y0302554
X0162082
X0168221Y0302844
X0172722
X0167500Y0296000
X0170000Y0293000
Y0289500
X0167500Y0286500
Y0282500
X0170000Y0279500
Y0276000
X0167500Y0273000
X0168221Y0268344
X0172722
X0200000Y0273500
X0198000Y0276000
Y0279500
X0200000Y0282000
X0205000
X0207000Y0279500
Y0276000
X0205000Y0273500
Y0287000
X0207000Y0289500
Y0293000
X0205000Y0295500
X0200000
X0198000Y0293000
Y0289500
X0200000Y0287000
X0223500Y0287500
X0226000Y0289500
X0229500
X0232000Y0287500
X0237000
X0239500Y0289500
X0243000
X0245500Y0287500
Y0282500
X0243000Y0280500
X0239500
X0237000Y0282500
X0232000
X0229500Y0280500
X0226000
X0223500Y0282500
X0254500
X0257000Y0280500
X0260500
X0263000Y0282500
X0268000
X0270500Y0280500
X0274000
X0276500Y0282500
Y0287500
X0274000Y0289500
X0270500
X0268000Y0287500
X0263000
X0260500Y0289500
X0257000
X0254500Y0287500
X0293500Y0289500
Y0293000
X0295500Y0295500
X0300500
X0302500Y0293000
Y0289500
X0300500Y0287000
X0295500
Y0282000
X0293500Y0279500
Y0276000
X0295500Y0273500
X0300500
X0302500Y0276000
Y0279500
X0300500Y0282000
X0299000Y0261000
X0303000
X0292991Y0260895
X0288491
X0269500Y0222250
Y0218250
Y0214750
X0195000Y0241000
X0153500Y0247000
X0139446Y0244582
Y0240582
X0139156Y0250722
Y0255222
X0130000Y0251000
X0126500Y0247500
X0120000
X0116000Y0251500
X0112000Y0247500
X0116000Y0243500
X0105344Y0244279
Y0239778
X0105054Y0250418
Y0254418
X0105344Y0276278
Y0280779
X0105054Y0286918
Y0290918
X0115500Y0289500
X0111500Y0285500
X0119500
X0126000Y0285000
X0129500Y0288500
X0133000Y0285000
X0129500Y0281500
X0115500
X0116240Y0302179
X0120240
X0126380Y0302469
X0130880
X0139000Y0303000
X0143000
X0147000
X0148500Y0268500
X0143500
X0133500Y0247500
X0130000Y0244000
X0131000Y0208000
X0130500Y0203500
X0133000Y0200500
X0137000
X0139500Y0203000
X0140000Y0206500
X0138000Y0209000
X0135000Y0210500
X0148000Y0206500
X0150000Y0201000
X0155000Y0198500
X0151000Y0212000
X0139500Y0195000
Y0190500
X0139789Y0184861
Y0180361
X0138000Y0175000
X0140000Y0172500
X0139500Y0169000
X0137000Y0166500
X0133000
X0130500Y0169500
X0131000Y0174000
X0135000Y0176500
X0148000Y0172500
X0150000Y0167000
X0155000Y0164500
X0151000Y0178000
X0140000Y0161000
X0140020Y0157357
X0118075Y0167457
X0114575Y0166457
X0111075Y0168457
X0110575Y0172457
X0112575Y0176457
X0117012Y0176750
X0120512Y0173750
X0120575Y0169957
X0106681Y0179077
Y0183577
X0106392Y0189716
Y0193717
X0111075Y0202457
X0110575Y0206457
X0112575Y0210457
X0117012Y0210750
X0120512Y0207750
X0120575Y0203957
X0118075Y0201457
X0114575Y0200457
X0107000Y0218000
X0104842Y0223500
X0107500Y0228500
X0106000Y0161500
Y0157500
X0138000Y0331000
X0142000
X0146500
X0349500Y0329500
X0353500Y0329913
X0357500Y0329500
X0466465Y0324282
Y0320282
Y0316282
Y0342282
Y0346282
X0466500Y0350500
T06
X0330221Y0247500
X0344000
X0368110Y0247000
X0381890
X0381390Y0284000
X0367610
X0305500Y0247500
X0291721
X0208890Y0247000
X0195110
X0172890
X0159110
X0129890Y0247500
X0116110
X0115610Y0285500
X0129390
T07
X0131095Y0481870
X0150779
T08
X0314295Y0476642
Y0494358
X0288705
Y0476642
X0191795
Y0494358
X0166205
Y0476642
T09
X0491157Y0482500
X0501000
X0510843
X0464342
X0454500
X0444658
X0413685
X0403842
X0394000
X0365843
X0356000
X0346158
T11
X0325000Y0171248
X0345000
X0365000
X0385000
Y0205500
X0365000
X0345000
X0325000
X0175500Y0206000
Y0171748
X0155500
X0135500
X0115500
Y0206000
X0135500
X0155500
T12
X0450500Y0156000
X0463886
Y0195055
X0450500
X0337055Y0277500
Y0290886
X0298000
Y0277500
X0272193Y0285028
X0258807
X0241193
X0227807
X0202528Y0291193
Y0277807
X0163472
Y0291193
X0227807Y0245972
X0241193
X0258807
X0272193
T13
X0550000Y0153500
Y0488000
X0112000Y0488500
T14
X0235500Y0168500
X0270500Y0169000
M30
