G04*
G04 #@! TF.GenerationSoftware,Altium Limited,Altium Designer,25.8.1 (18)*
G04*
G04 Layer_Physical_Order=4*
G04 Layer_Color=16711680*
%FSLAX42Y42*%
%MOMM*%
G71*
G04*
G04 #@! TF.SameCoordinates,874FC4BF-8C61-49E1-ACD6-6D65B42AE4DE*
G04*
G04*
G04 #@! TF.FilePolarity,Positive*
G04*
G01*
G75*
%ADD16C,0.25*%
%ADD76R,1.30X1.30*%
%ADD80C,2.45*%
%ADD81R,2.45X2.45*%
%ADD82R,2.45X2.45*%
%ADD83C,1.30*%
%ADD88C,0.63*%
%ADD91O,4.00X2.00*%
%ADD92O,4.50X2.00*%
%ADD93O,2.00X4.00*%
%ADD94R,1.51X1.51*%
%ADD95C,1.50*%
%ADD96R,1.50X1.50*%
%ADD97C,2.10*%
%ADD98C,5.42*%
%ADD99R,4.92X4.92*%
%ADD100C,1.45*%
%ADD101C,0.40*%
%ADD102C,1.51*%
%ADD103C,1.27*%
%ADD104C,3.43*%
%ADD105C,0.76*%
G36*
X10068Y7823D02*
X7994D01*
X7988Y7828D01*
Y7988D01*
X7310D01*
X7301Y8012D01*
X8446Y9157D01*
Y9258D01*
X10068D01*
Y7823D01*
D02*
G37*
G36*
X5031Y7923D02*
Y7890D01*
X4591D01*
X4581Y7881D01*
Y7874D01*
Y7798D01*
X2864D01*
X2632Y8030D01*
X2621Y8034D01*
X2591Y8064D01*
Y9195D01*
X3759D01*
X5031Y7923D01*
D02*
G37*
G36*
X10109Y6573D02*
X10093Y6566D01*
X10084Y6565D01*
X10071Y6578D01*
X10053Y6588D01*
X10033Y6593D01*
X10013D01*
X9993Y6588D01*
X9975Y6578D01*
X9960Y6563D01*
X9950Y6545D01*
X9944Y6525D01*
Y6505D01*
X9950Y6485D01*
X9960Y6467D01*
X9969Y6458D01*
X9960Y6449D01*
X9950Y6431D01*
X9944Y6411D01*
Y6390D01*
X9950Y6370D01*
X9960Y6352D01*
X9975Y6338D01*
X9993Y6327D01*
X10013Y6322D01*
X10033D01*
X10053Y6327D01*
X10071Y6338D01*
X10084Y6350D01*
X10093Y6349D01*
X10109Y6342D01*
Y6017D01*
X10084Y6013D01*
X10081Y6025D01*
X10070Y6043D01*
X10056Y6057D01*
X10038Y6068D01*
X10018Y6073D01*
X9997D01*
X9977Y6068D01*
X9959Y6057D01*
X9945Y6043D01*
X9934Y6025D01*
X9929Y6005D01*
Y5984D01*
X9934Y5964D01*
X9945Y5946D01*
X9954Y5937D01*
X9945Y5928D01*
X9934Y5910D01*
X9929Y5890D01*
Y5870D01*
X9934Y5850D01*
X9945Y5832D01*
X9959Y5817D01*
X9977Y5807D01*
X9997Y5802D01*
X10018D01*
X10038Y5807D01*
X10056Y5817D01*
X10070Y5832D01*
X10081Y5850D01*
X10084Y5861D01*
X10109Y5858D01*
Y4757D01*
X10093Y4750D01*
X10084Y4749D01*
X10071Y4762D01*
X10053Y4772D01*
X10033Y4777D01*
X10013D01*
X9993Y4772D01*
X9975Y4762D01*
X9960Y4747D01*
X9950Y4729D01*
X9944Y4709D01*
Y4688D01*
X9950Y4668D01*
X9960Y4651D01*
X9969Y4642D01*
X9960Y4633D01*
X9950Y4615D01*
X9944Y4595D01*
Y4574D01*
X9950Y4554D01*
X9960Y4536D01*
X9975Y4522D01*
X9993Y4511D01*
X10013Y4506D01*
X10033D01*
X10053Y4511D01*
X10071Y4522D01*
X10084Y4534D01*
X10093Y4533D01*
X10109Y4526D01*
Y3867D01*
X10084Y3864D01*
X10083Y3865D01*
X10073Y3883D01*
X10058Y3898D01*
X10041Y3908D01*
X10021Y3914D01*
X10000D01*
X9980Y3908D01*
X9962Y3898D01*
X9947Y3883D01*
X9937Y3865D01*
X9932Y3846D01*
Y3825D01*
X9937Y3805D01*
X9947Y3787D01*
X9956Y3778D01*
X9947Y3769D01*
X9937Y3751D01*
X9932Y3731D01*
Y3711D01*
X9937Y3691D01*
X9941Y3683D01*
X9929Y3658D01*
X9928Y3658D01*
X9216D01*
X9216Y3658D01*
X9203Y3683D01*
X9207Y3691D01*
X9212Y3711D01*
Y3731D01*
X9207Y3751D01*
X9197Y3769D01*
X9188Y3778D01*
X9197Y3787D01*
X9207Y3805D01*
X9212Y3825D01*
Y3846D01*
X9207Y3865D01*
X9197Y3883D01*
X9182Y3898D01*
X9164Y3908D01*
X9144Y3914D01*
X9124D01*
X9104Y3908D01*
X9086Y3898D01*
X9071Y3884D01*
X9070Y3884D01*
X9046Y3891D01*
Y4537D01*
X9059Y4544D01*
X9071Y4546D01*
X9083Y4535D01*
X9101Y4524D01*
X9121Y4519D01*
X9142D01*
X9162Y4524D01*
X9179Y4535D01*
X9194Y4549D01*
X9204Y4567D01*
X9210Y4587D01*
Y4608D01*
X9204Y4628D01*
X9194Y4646D01*
X9185Y4655D01*
X9194Y4663D01*
X9204Y4681D01*
X9210Y4701D01*
Y4722D01*
X9204Y4742D01*
X9194Y4760D01*
X9179Y4775D01*
X9162Y4785D01*
X9142Y4790D01*
X9121D01*
X9101Y4785D01*
X9083Y4775D01*
X9071Y4763D01*
X9059Y4765D01*
X9046Y4772D01*
Y5465D01*
X9071Y5479D01*
X9076Y5477D01*
X9096Y5471D01*
X9116D01*
X9136Y5477D01*
X9154Y5487D01*
X9169Y5502D01*
X9179Y5520D01*
X9184Y5540D01*
Y5560D01*
X9179Y5580D01*
X9169Y5598D01*
X9166Y5601D01*
X9169Y5603D01*
X9179Y5621D01*
X9184Y5641D01*
Y5662D01*
X9179Y5682D01*
X9169Y5700D01*
X9154Y5714D01*
X9136Y5725D01*
X9116Y5730D01*
X9096D01*
X9076Y5725D01*
X9071Y5722D01*
X9046Y5737D01*
Y6371D01*
X9070Y6378D01*
X9071Y6378D01*
X9086Y6363D01*
X9104Y6353D01*
X9124Y6347D01*
X9144D01*
X9164Y6353D01*
X9182Y6363D01*
X9197Y6378D01*
X9207Y6396D01*
X9212Y6416D01*
Y6436D01*
X9207Y6456D01*
X9197Y6474D01*
X9188Y6483D01*
X9197Y6492D01*
X9207Y6510D01*
X9212Y6530D01*
Y6551D01*
X9207Y6571D01*
X9197Y6588D01*
X9182Y6603D01*
X9164Y6613D01*
X9144Y6619D01*
X9124D01*
X9104Y6613D01*
X9086Y6603D01*
X9071Y6589D01*
X9070Y6589D01*
X9046Y6596D01*
Y6718D01*
X8801Y6721D01*
X8801Y6722D01*
X8798Y6726D01*
X8796Y6729D01*
X8794Y6730D01*
X8793Y6732D01*
X8789Y6733D01*
X8785Y6734D01*
X7975Y6733D01*
X7954Y6759D01*
Y7785D01*
X9592D01*
X9595Y7760D01*
X9584Y7757D01*
X9566Y7746D01*
X9551Y7732D01*
X9541Y7714D01*
X9535Y7694D01*
Y7673D01*
X9541Y7653D01*
X9551Y7635D01*
X9566Y7621D01*
X9584Y7610D01*
X9604Y7605D01*
X9624D01*
X9644Y7610D01*
X9662Y7621D01*
X9671Y7630D01*
X9680Y7621D01*
X9698Y7610D01*
X9718Y7605D01*
X9739D01*
X9758Y7610D01*
X9776Y7621D01*
X9791Y7635D01*
X9801Y7653D01*
X9807Y7673D01*
Y7694D01*
X9801Y7714D01*
X9791Y7732D01*
X9776Y7746D01*
X9758Y7757D01*
X9747Y7760D01*
X9750Y7785D01*
X10109D01*
Y6573D01*
D02*
G37*
G36*
X2858Y7782D02*
X3965D01*
X3968Y7777D01*
X3967Y7748D01*
X3952Y7733D01*
X3942Y7715D01*
X3937Y7695D01*
Y7675D01*
X3942Y7655D01*
X3952Y7637D01*
X3967Y7622D01*
X3985Y7612D01*
X4005Y7606D01*
X4026D01*
X4046Y7612D01*
X4063Y7622D01*
X4066Y7625D01*
X4069Y7622D01*
X4087Y7612D01*
X4107Y7606D01*
X4127D01*
X4147Y7612D01*
X4165Y7622D01*
X4180Y7637D01*
X4190Y7655D01*
X4195Y7675D01*
Y7695D01*
X4190Y7715D01*
X4180Y7733D01*
X4165Y7748D01*
X4165Y7777D01*
X4168Y7782D01*
X4581D01*
Y6744D01*
Y6735D01*
X3832D01*
X3825Y6748D01*
X3823Y6760D01*
X3835Y6772D01*
X3845Y6790D01*
X3850Y6810D01*
Y6830D01*
X3845Y6850D01*
X3835Y6868D01*
X3820Y6883D01*
X3802Y6893D01*
X3782Y6898D01*
X3762D01*
X3742Y6893D01*
X3724Y6883D01*
X3708Y6869D01*
X3693Y6883D01*
X3675Y6893D01*
X3655Y6898D01*
X3635D01*
X3615Y6893D01*
X3597Y6883D01*
X3582Y6868D01*
X3572Y6850D01*
X3566Y6830D01*
Y6810D01*
X3572Y6790D01*
X3582Y6772D01*
X3597Y6757D01*
X3615Y6747D01*
X3628Y6725D01*
X3629Y6718D01*
X3629Y6717D01*
Y6270D01*
X3610Y6263D01*
X3603Y6262D01*
X3590Y6275D01*
X3572Y6286D01*
X3552Y6291D01*
X3532D01*
X3512Y6286D01*
X3494Y6275D01*
X3479Y6261D01*
X3469Y6243D01*
X3463Y6223D01*
Y6202D01*
X3469Y6182D01*
X3479Y6164D01*
X3482Y6162D01*
X3479Y6159D01*
X3469Y6141D01*
X3463Y6121D01*
Y6100D01*
X3469Y6080D01*
X3479Y6063D01*
X3494Y6048D01*
X3512Y6038D01*
X3532Y6032D01*
X3552D01*
X3572Y6038D01*
X3590Y6048D01*
X3603Y6061D01*
X3610Y6061D01*
X3629Y6053D01*
Y5319D01*
X3608Y5309D01*
X3603Y5308D01*
X3586Y5318D01*
X3584Y5319D01*
X3578Y5339D01*
X3568Y5357D01*
X3553Y5371D01*
X3535Y5382D01*
X3516Y5387D01*
X3496D01*
X3492Y5395D01*
X3477Y5410D01*
X3459Y5420D01*
X3439Y5425D01*
X3419D01*
X3399Y5420D01*
X3381Y5410D01*
X3366Y5395D01*
X3356Y5377D01*
X3351Y5358D01*
X3338Y5362D01*
X3317D01*
X3297Y5356D01*
X3279Y5346D01*
X3265Y5331D01*
X3254Y5313D01*
X3249Y5294D01*
Y5273D01*
X3254Y5253D01*
X3265Y5235D01*
X3252Y5217D01*
X3242Y5199D01*
X3236Y5179D01*
Y5159D01*
X3242Y5139D01*
X3252Y5121D01*
X3267Y5106D01*
X3284Y5096D01*
X3300Y5092D01*
Y5082D01*
X3305Y5062D01*
X3315Y5044D01*
X3330Y5030D01*
X3348Y5020D01*
X3368Y5014D01*
X3389D01*
X3408Y5020D01*
X3426Y5030D01*
X3429Y5032D01*
X3432Y5030D01*
X3449Y5020D01*
X3469Y5014D01*
X3490D01*
X3510Y5020D01*
X3528Y5030D01*
X3543Y5044D01*
X3553Y5062D01*
X3557Y5079D01*
X3574Y5083D01*
X3592Y5093D01*
X3603Y5105D01*
X3615Y5103D01*
X3629Y5096D01*
Y4764D01*
X3603Y4754D01*
X3599Y4758D01*
X3581Y4769D01*
X3561Y4774D01*
X3540D01*
X3520Y4769D01*
X3502Y4758D01*
X3488Y4744D01*
X3478Y4726D01*
X3472Y4706D01*
Y4685D01*
X3478Y4665D01*
X3488Y4647D01*
X3497Y4638D01*
X3488Y4629D01*
X3478Y4611D01*
X3472Y4591D01*
Y4578D01*
X3469Y4574D01*
X3458Y4564D01*
X3449Y4559D01*
X3439Y4562D01*
X3419D01*
X3399Y4556D01*
X3381Y4546D01*
X3366Y4531D01*
X3356Y4513D01*
X3351Y4495D01*
X3338Y4498D01*
X3317D01*
X3297Y4493D01*
X3279Y4482D01*
X3265Y4468D01*
X3254Y4450D01*
X3249Y4430D01*
Y4409D01*
X3254Y4389D01*
X3265Y4371D01*
X3252Y4353D01*
X3242Y4336D01*
X3236Y4316D01*
Y4295D01*
X3242Y4275D01*
X3252Y4257D01*
X3267Y4242D01*
X3284Y4232D01*
X3300Y4228D01*
Y4219D01*
X3305Y4199D01*
X3315Y4181D01*
X3330Y4166D01*
X3348Y4156D01*
X3368Y4151D01*
X3389D01*
X3408Y4156D01*
X3426Y4166D01*
X3429Y4169D01*
X3432Y4166D01*
X3449Y4156D01*
X3469Y4151D01*
X3490D01*
X3510Y4156D01*
X3528Y4166D01*
X3543Y4181D01*
X3553Y4199D01*
X3557Y4215D01*
X3574Y4219D01*
X3592Y4230D01*
X3603Y4242D01*
X3615Y4240D01*
X3629Y4233D01*
Y3922D01*
X3603Y3912D01*
X3597Y3918D01*
X3579Y3928D01*
X3559Y3934D01*
X3538D01*
X3518Y3928D01*
X3501Y3918D01*
X3486Y3903D01*
X3476Y3885D01*
X3470Y3865D01*
Y3845D01*
X3476Y3825D01*
X3486Y3807D01*
X3495Y3798D01*
X3486Y3789D01*
X3476Y3771D01*
X3470Y3751D01*
Y3730D01*
X3476Y3710D01*
X3486Y3693D01*
X3501Y3678D01*
X3514Y3670D01*
X3512Y3651D01*
X3509Y3645D01*
X2749D01*
X2742Y3670D01*
X2743Y3671D01*
X2758Y3685D01*
X2768Y3703D01*
X2774Y3723D01*
Y3744D01*
X2768Y3764D01*
X2758Y3782D01*
X2749Y3791D01*
X2758Y3800D01*
X2768Y3818D01*
X2774Y3838D01*
Y3858D01*
X2768Y3878D01*
X2758Y3896D01*
X2743Y3911D01*
X2742Y3927D01*
X2743Y3940D01*
X2755Y3952D01*
X2766Y3970D01*
X2771Y3990D01*
Y4011D01*
X2766Y4031D01*
X2755Y4049D01*
X2753Y4051D01*
X2755Y4054D01*
X2766Y4072D01*
X2771Y4092D01*
Y4112D01*
X2766Y4132D01*
X2755Y4150D01*
X2741Y4165D01*
X2723Y4175D01*
X2703Y4181D01*
X2682D01*
X2662Y4175D01*
X2644Y4165D01*
X2630Y4150D01*
X2619Y4132D01*
X2616Y4121D01*
X2591Y4124D01*
Y5602D01*
X2610Y5612D01*
X2616Y5613D01*
X2633Y5604D01*
X2637Y5603D01*
X2639Y5601D01*
X2649Y5574D01*
X2645Y5567D01*
X2639Y5548D01*
Y5527D01*
X2645Y5507D01*
X2655Y5489D01*
X2670Y5474D01*
X2688Y5464D01*
X2707Y5459D01*
X2728D01*
X2748Y5464D01*
X2766Y5474D01*
X2781Y5489D01*
X2791Y5507D01*
X2796Y5527D01*
Y5548D01*
X2791Y5567D01*
X2781Y5585D01*
X2766Y5600D01*
X2748Y5610D01*
X2744Y5611D01*
X2742Y5614D01*
X2732Y5640D01*
X2736Y5647D01*
X2742Y5667D01*
Y5687D01*
X2738Y5700D01*
X2739Y5711D01*
X2753Y5729D01*
X2761Y5731D01*
X2779Y5741D01*
X2793Y5756D01*
X2804Y5774D01*
X2809Y5794D01*
Y5814D01*
X2804Y5834D01*
X2793Y5852D01*
X2779Y5867D01*
X2761Y5877D01*
X2741Y5882D01*
X2720D01*
X2700Y5877D01*
X2682Y5867D01*
X2668Y5852D01*
X2657Y5834D01*
X2652Y5814D01*
Y5794D01*
X2655Y5781D01*
X2654Y5770D01*
X2640Y5752D01*
X2633Y5750D01*
X2616Y5741D01*
X2610Y5742D01*
X2591Y5752D01*
Y6030D01*
X2603Y6036D01*
X2616Y6039D01*
X2628Y6028D01*
X2645Y6017D01*
X2665Y6012D01*
X2686D01*
X2706Y6017D01*
X2724Y6028D01*
X2739Y6042D01*
X2749Y6060D01*
X2754Y6080D01*
Y6101D01*
X2749Y6121D01*
X2739Y6139D01*
X2730Y6148D01*
X2739Y6156D01*
X2749Y6174D01*
X2754Y6194D01*
Y6215D01*
X2749Y6235D01*
X2739Y6253D01*
X2724Y6267D01*
X2706Y6278D01*
X2686Y6283D01*
X2665D01*
X2645Y6278D01*
X2628Y6267D01*
X2616Y6256D01*
X2603Y6259D01*
X2591Y6265D01*
Y6957D01*
X2603Y6964D01*
X2616Y6966D01*
X2628Y6955D01*
X2645Y6944D01*
X2665Y6939D01*
X2686D01*
X2706Y6944D01*
X2724Y6955D01*
X2739Y6969D01*
X2749Y6987D01*
X2754Y7007D01*
Y7028D01*
X2749Y7048D01*
X2739Y7066D01*
X2730Y7075D01*
X2739Y7084D01*
X2749Y7101D01*
X2754Y7121D01*
Y7142D01*
X2749Y7162D01*
X2739Y7180D01*
X2724Y7195D01*
X2706Y7205D01*
X2686Y7210D01*
X2665D01*
X2645Y7205D01*
X2628Y7195D01*
X2616Y7183D01*
X2603Y7186D01*
X2591Y7192D01*
Y8008D01*
X2601Y8018D01*
X2621D01*
X2858Y7782D01*
D02*
G37*
G36*
X7938Y6744D02*
X4597D01*
Y7874D01*
X7938D01*
Y6744D01*
D02*
G37*
G36*
X8792Y6693D02*
X8791Y6692D01*
X8776Y6678D01*
X8766Y6660D01*
X8761Y6640D01*
Y6619D01*
X8766Y6599D01*
X8776Y6581D01*
X8791Y6567D01*
X8809Y6556D01*
X8829Y6551D01*
X8850D01*
X8869Y6556D01*
X8887Y6567D01*
X8890Y6569D01*
X8893Y6567D01*
X8911Y6556D01*
X8930Y6551D01*
X8951D01*
X8971Y6556D01*
X8989Y6567D01*
X9004Y6581D01*
X9004Y6582D01*
X9030Y6576D01*
Y5687D01*
X9004Y5680D01*
X9000Y5687D01*
X8986Y5702D01*
X8968Y5712D01*
X8948Y5717D01*
X8927D01*
X8907Y5712D01*
X8889Y5702D01*
X8875Y5687D01*
X8864Y5669D01*
X8859Y5649D01*
Y5628D01*
X8864Y5608D01*
X8875Y5591D01*
X8877Y5588D01*
X8875Y5585D01*
X8864Y5567D01*
X8859Y5548D01*
Y5527D01*
X8864Y5507D01*
X8875Y5489D01*
X8889Y5474D01*
X8907Y5464D01*
X8927Y5459D01*
X8948D01*
X8968Y5464D01*
X8986Y5474D01*
X9000Y5489D01*
X9004Y5496D01*
X9030Y5489D01*
Y4745D01*
X9013Y4737D01*
X9004Y4736D01*
X8992Y4749D01*
X8974Y4759D01*
X8954Y4765D01*
X8933D01*
X8913Y4759D01*
X8895Y4749D01*
X8881Y4734D01*
X8870Y4716D01*
X8865Y4696D01*
Y4676D01*
X8870Y4656D01*
X8881Y4638D01*
X8890Y4629D01*
X8881Y4620D01*
X8870Y4602D01*
X8865Y4582D01*
Y4561D01*
X8870Y4541D01*
X8881Y4524D01*
X8881Y4523D01*
X8866Y4503D01*
X8856Y4508D01*
X8836Y4514D01*
X8817D01*
X8812Y4521D01*
X8798Y4536D01*
X8780Y4546D01*
X8760Y4552D01*
X8739D01*
X8719Y4546D01*
X8701Y4536D01*
X8687Y4521D01*
X8676Y4504D01*
X8671Y4485D01*
X8658Y4488D01*
X8637D01*
X8617Y4483D01*
X8600Y4473D01*
X8585Y4458D01*
X8575Y4440D01*
X8569Y4420D01*
Y4399D01*
X8575Y4379D01*
X8585Y4362D01*
X8572Y4344D01*
X8562Y4326D01*
X8557Y4306D01*
Y4285D01*
X8562Y4265D01*
X8572Y4247D01*
X8587Y4233D01*
X8605Y4222D01*
X8620Y4218D01*
Y4209D01*
X8625Y4189D01*
X8636Y4171D01*
X8650Y4156D01*
X8668Y4146D01*
X8688Y4141D01*
X8709D01*
X8729Y4146D01*
X8747Y4156D01*
X8749Y4159D01*
X8752Y4156D01*
X8770Y4146D01*
X8790Y4141D01*
X8811D01*
X8830Y4146D01*
X8848Y4156D01*
X8863Y4171D01*
X8873Y4189D01*
X8878Y4205D01*
X8894Y4210D01*
X8912Y4220D01*
X8927Y4235D01*
X8937Y4252D01*
X8942Y4272D01*
Y4293D01*
X8937Y4313D01*
X8934Y4318D01*
X8939Y4323D01*
X8950Y4341D01*
X8955Y4361D01*
Y4382D01*
X8950Y4402D01*
X8939Y4420D01*
X8925Y4434D01*
X8907Y4445D01*
X8904Y4445D01*
X8899Y4465D01*
X8888Y4483D01*
X8888Y4484D01*
X8903Y4504D01*
X8913Y4499D01*
X8933Y4493D01*
X8954D01*
X8974Y4499D01*
X8992Y4509D01*
X9004Y4522D01*
X9013Y4521D01*
X9030Y4513D01*
Y3894D01*
X9013Y3886D01*
X9004Y3885D01*
X8992Y3898D01*
X8974Y3908D01*
X8954Y3914D01*
X8933D01*
X8913Y3908D01*
X8895Y3898D01*
X8881Y3883D01*
X8870Y3865D01*
X8865Y3846D01*
Y3825D01*
X8870Y3805D01*
X8881Y3787D01*
X8890Y3778D01*
X8881Y3769D01*
X8870Y3751D01*
X8865Y3731D01*
Y3711D01*
X8870Y3691D01*
X8875Y3683D01*
X8862Y3658D01*
X8861Y3658D01*
X8083D01*
X8076Y3683D01*
X8077Y3683D01*
X8092Y3698D01*
X8102Y3716D01*
X8108Y3736D01*
Y3757D01*
X8102Y3777D01*
X8092Y3794D01*
X8083Y3803D01*
X8092Y3812D01*
X8102Y3830D01*
X8108Y3850D01*
Y3871D01*
X8102Y3891D01*
X8092Y3909D01*
X8077Y3923D01*
X8059Y3934D01*
X8039Y3939D01*
X8019D01*
X7999Y3934D01*
X7981Y3923D01*
X7966Y3909D01*
X7956Y3891D01*
X7954Y3883D01*
X7928Y3886D01*
Y4559D01*
X7954Y4562D01*
X7956Y4554D01*
X7966Y4536D01*
X7981Y4522D01*
X7999Y4511D01*
X8019Y4506D01*
X8039D01*
X8059Y4511D01*
X8077Y4522D01*
X8092Y4536D01*
X8102Y4554D01*
X8108Y4574D01*
Y4595D01*
X8102Y4615D01*
X8092Y4633D01*
X8083Y4642D01*
X8092Y4651D01*
X8102Y4668D01*
X8108Y4688D01*
Y4709D01*
X8102Y4729D01*
X8092Y4747D01*
X8077Y4762D01*
X8059Y4772D01*
X8039Y4777D01*
X8019D01*
X7999Y4772D01*
X7981Y4762D01*
X7966Y4747D01*
X7956Y4729D01*
X7954Y4721D01*
X7928Y4724D01*
Y5341D01*
X7924Y5345D01*
X7950Y5372D01*
Y5842D01*
X7112D01*
Y5804D01*
X7252D01*
Y5350D01*
X6328D01*
Y5642D01*
X6342Y5649D01*
X6354Y5651D01*
X6365Y5639D01*
X6383Y5629D01*
X6403Y5624D01*
X6424D01*
X6444Y5629D01*
X6462Y5639D01*
X6476Y5654D01*
X6487Y5672D01*
X6492Y5692D01*
Y5713D01*
X6487Y5733D01*
X6476Y5751D01*
X6474Y5753D01*
X6476Y5756D01*
X6487Y5774D01*
X6492Y5794D01*
Y5814D01*
X6487Y5834D01*
X6476Y5852D01*
X6462Y5867D01*
X6444Y5877D01*
X6424Y5882D01*
X6403D01*
X6383Y5877D01*
X6365Y5867D01*
X6354Y5855D01*
X6342Y5857D01*
X6328Y5864D01*
Y6715D01*
X6748Y6715D01*
X6755Y6700D01*
X6757Y6690D01*
X6744Y6678D01*
X6734Y6660D01*
X6729Y6640D01*
Y6619D01*
X6734Y6599D01*
X6744Y6581D01*
X6759Y6567D01*
X6777Y6556D01*
X6797Y6551D01*
X6818D01*
X6838Y6556D01*
X6855Y6567D01*
X6858Y6569D01*
X6861Y6567D01*
X6879Y6556D01*
X6898Y6551D01*
X6919D01*
X6939Y6556D01*
X6957Y6567D01*
X6972Y6581D01*
X6982Y6599D01*
X6987Y6619D01*
Y6640D01*
X6982Y6660D01*
X6972Y6678D01*
X6959Y6690D01*
X6960Y6699D01*
X6967Y6716D01*
X7537Y6716D01*
X7545Y6697D01*
X7545Y6691D01*
X7532Y6678D01*
X7521Y6660D01*
X7516Y6640D01*
Y6619D01*
X7521Y6599D01*
X7532Y6581D01*
X7546Y6567D01*
X7564Y6556D01*
X7584Y6551D01*
X7605D01*
X7625Y6556D01*
X7643Y6567D01*
X7645Y6569D01*
X7648Y6567D01*
X7666Y6556D01*
X7686Y6551D01*
X7707D01*
X7726Y6556D01*
X7744Y6567D01*
X7759Y6581D01*
X7769Y6599D01*
X7775Y6619D01*
Y6640D01*
X7769Y6660D01*
X7759Y6678D01*
X7745Y6691D01*
X7746Y6696D01*
X7753Y6717D01*
X8785Y6718D01*
X8792Y6693D01*
D02*
G37*
G36*
X7934Y5807D02*
Y5379D01*
X7931D01*
X7916Y5364D01*
X7913Y5358D01*
X7912Y5357D01*
X7911Y5355D01*
X7909Y5350D01*
X7268D01*
Y5804D01*
X7284Y5826D01*
X7916D01*
X7934Y5807D01*
D02*
G37*
G36*
X6312Y5347D02*
X5309D01*
X5309Y5820D01*
X5312Y5829D01*
X5330Y5829D01*
X5588D01*
Y5842D01*
X5318Y5842D01*
X5288Y5842D01*
X4801D01*
Y5759D01*
X4798Y5751D01*
Y5730D01*
X4801Y5721D01*
Y5531D01*
X4798Y5522D01*
Y5501D01*
X4801Y5493D01*
Y3658D01*
X3645D01*
Y6718D01*
X6312D01*
Y5347D01*
D02*
G37*
G36*
X5283D02*
X4817D01*
Y5493D01*
X4816Y5495D01*
X4816Y5497D01*
X4815Y5504D01*
Y5520D01*
X4816Y5527D01*
X4816Y5529D01*
X4817Y5531D01*
Y5721D01*
X4816Y5724D01*
X4816Y5726D01*
X4815Y5732D01*
Y5749D01*
X4816Y5755D01*
X4816Y5757D01*
X4817Y5759D01*
Y5826D01*
X5283D01*
Y5347D01*
D02*
G37*
G36*
X7909Y5330D02*
X7912Y5329D01*
Y3619D01*
X4826D01*
Y5330D01*
X7909D01*
D02*
G37*
%LPC*%
G36*
X8989Y8458D02*
X8969D01*
X8949Y8453D01*
X8931Y8443D01*
X8922Y8434D01*
X8908Y8442D01*
X8888Y8448D01*
X8867D01*
X8847Y8442D01*
X8829Y8432D01*
X8814Y8418D01*
X8804Y8400D01*
X8799Y8380D01*
Y8359D01*
X8804Y8339D01*
X8814Y8321D01*
X8829Y8306D01*
X8847Y8296D01*
X8867Y8291D01*
X8888D01*
X8908Y8296D01*
X8925Y8306D01*
X8934Y8315D01*
X8949Y8307D01*
X8969Y8301D01*
X8989D01*
X9009Y8307D01*
X9024Y8315D01*
X9032Y8306D01*
X9050Y8296D01*
X9070Y8291D01*
X9091D01*
X9111Y8296D01*
X9129Y8306D01*
X9143Y8321D01*
X9154Y8339D01*
X9159Y8359D01*
Y8380D01*
X9154Y8400D01*
X9143Y8418D01*
X9129Y8432D01*
X9111Y8442D01*
X9091Y8448D01*
X9070D01*
X9050Y8442D01*
X9036Y8434D01*
X9027Y8443D01*
X9009Y8453D01*
X8989Y8458D01*
D02*
G37*
G36*
X9339Y7382D02*
X9319D01*
X9299Y7377D01*
X9281Y7366D01*
X9266Y7352D01*
X9256Y7334D01*
X9250Y7314D01*
Y7303D01*
X9242Y7289D01*
X9228Y7281D01*
X9217D01*
X9197Y7275D01*
X9179Y7265D01*
X9165Y7250D01*
X9154Y7232D01*
X9149Y7212D01*
Y7192D01*
X9154Y7172D01*
X9165Y7154D01*
X9179Y7139D01*
X9197Y7129D01*
X9217Y7124D01*
X9228D01*
X9242Y7115D01*
X9250Y7101D01*
Y7090D01*
X9256Y7070D01*
X9266Y7052D01*
X9281Y7038D01*
X9299Y7027D01*
X9319Y7022D01*
X9339D01*
X9359Y7027D01*
X9377Y7038D01*
X9392Y7052D01*
X9402Y7070D01*
X9407Y7090D01*
Y7101D01*
X9416Y7115D01*
X9430Y7124D01*
X9441D01*
X9461Y7129D01*
X9479Y7139D01*
X9493Y7154D01*
X9504Y7172D01*
X9509Y7192D01*
Y7212D01*
X9504Y7232D01*
X9493Y7250D01*
X9479Y7265D01*
X9461Y7275D01*
X9441Y7281D01*
X9420D01*
X9417Y7285D01*
Y7294D01*
X9412D01*
X9407Y7302D01*
Y7314D01*
X9402Y7334D01*
X9392Y7352D01*
X9377Y7366D01*
X9359Y7377D01*
X9339Y7382D01*
D02*
G37*
G36*
X9420Y6462D02*
X9399D01*
X9379Y6456D01*
X9361Y6446D01*
X9356Y6441D01*
X9352Y6442D01*
X9331D01*
X9311Y6437D01*
X9293Y6427D01*
X9279Y6412D01*
X9268Y6394D01*
X9263Y6374D01*
Y6363D01*
X9255Y6349D01*
X9240Y6341D01*
X9230D01*
X9210Y6335D01*
X9192Y6325D01*
X9177Y6310D01*
X9167Y6293D01*
X9162Y6273D01*
Y6252D01*
X9167Y6232D01*
X9177Y6214D01*
X9192Y6199D01*
X9210Y6189D01*
X9230Y6184D01*
X9240D01*
X9255Y6176D01*
X9263Y6161D01*
Y6150D01*
X9268Y6130D01*
X9279Y6112D01*
X9293Y6098D01*
X9311Y6087D01*
X9331Y6082D01*
X9352D01*
X9372Y6087D01*
X9390Y6098D01*
X9395Y6103D01*
X9399Y6102D01*
X9420D01*
X9440Y6107D01*
X9458Y6117D01*
X9472Y6132D01*
X9483Y6150D01*
X9488Y6170D01*
Y6181D01*
X9496Y6195D01*
X9511Y6203D01*
X9522D01*
X9542Y6209D01*
X9559Y6219D01*
X9574Y6233D01*
X9584Y6251D01*
X9590Y6271D01*
Y6292D01*
X9584Y6312D01*
X9574Y6330D01*
X9559Y6344D01*
X9542Y6355D01*
X9522Y6360D01*
X9511D01*
X9496Y6368D01*
X9488Y6383D01*
Y6394D01*
X9483Y6414D01*
X9472Y6431D01*
X9458Y6446D01*
X9440Y6456D01*
X9420Y6462D01*
D02*
G37*
G36*
X9780Y5409D02*
X9760D01*
X9740Y5404D01*
X9722Y5394D01*
X9707Y5379D01*
X9697Y5361D01*
X9692Y5342D01*
X9679Y5346D01*
X9658D01*
X9638Y5341D01*
X9620Y5330D01*
X9606Y5316D01*
X9595Y5298D01*
X9590Y5278D01*
Y5257D01*
X9595Y5237D01*
X9606Y5219D01*
X9593Y5201D01*
X9582Y5183D01*
X9577Y5163D01*
Y5143D01*
X9582Y5123D01*
X9593Y5105D01*
X9607Y5090D01*
X9625Y5080D01*
X9641Y5076D01*
Y5067D01*
X9646Y5047D01*
X9656Y5029D01*
X9671Y5014D01*
X9689Y5004D01*
X9709Y4998D01*
X9729D01*
X9749Y5004D01*
X9767Y5014D01*
X9770Y5017D01*
X9773Y5014D01*
X9790Y5004D01*
X9810Y4998D01*
X9831D01*
X9851Y5004D01*
X9869Y5014D01*
X9884Y5029D01*
X9894Y5047D01*
X9898Y5063D01*
X9915Y5067D01*
X9932Y5078D01*
X9947Y5092D01*
X9957Y5110D01*
X9963Y5130D01*
Y5151D01*
X9957Y5171D01*
X9954Y5176D01*
X9960Y5181D01*
X9970Y5199D01*
X9975Y5219D01*
Y5240D01*
X9970Y5260D01*
X9960Y5277D01*
X9945Y5292D01*
X9927Y5302D01*
X9925Y5303D01*
X9919Y5323D01*
X9909Y5341D01*
X9894Y5356D01*
X9876Y5366D01*
X9856Y5371D01*
X9837D01*
X9833Y5379D01*
X9818Y5394D01*
X9800Y5404D01*
X9780Y5409D01*
D02*
G37*
G36*
Y4546D02*
X9760D01*
X9740Y4540D01*
X9722Y4530D01*
X9707Y4515D01*
X9697Y4498D01*
X9692Y4479D01*
X9679Y4482D01*
X9658D01*
X9638Y4477D01*
X9620Y4467D01*
X9606Y4452D01*
X9595Y4434D01*
X9590Y4414D01*
Y4393D01*
X9595Y4373D01*
X9606Y4356D01*
X9593Y4338D01*
X9582Y4320D01*
X9577Y4300D01*
Y4279D01*
X9582Y4259D01*
X9593Y4241D01*
X9607Y4227D01*
X9625Y4216D01*
X9641Y4212D01*
Y4203D01*
X9646Y4183D01*
X9656Y4165D01*
X9671Y4150D01*
X9689Y4140D01*
X9709Y4135D01*
X9729D01*
X9749Y4140D01*
X9767Y4150D01*
X9770Y4153D01*
X9773Y4150D01*
X9790Y4140D01*
X9810Y4135D01*
X9831D01*
X9851Y4140D01*
X9869Y4150D01*
X9884Y4165D01*
X9894Y4183D01*
X9898Y4199D01*
X9915Y4204D01*
X9932Y4214D01*
X9947Y4229D01*
X9957Y4246D01*
X9963Y4266D01*
Y4287D01*
X9957Y4307D01*
X9954Y4312D01*
X9960Y4317D01*
X9970Y4335D01*
X9975Y4355D01*
Y4376D01*
X9970Y4396D01*
X9960Y4414D01*
X9945Y4428D01*
X9927Y4439D01*
X9925Y4440D01*
X9919Y4459D01*
X9909Y4477D01*
X9894Y4492D01*
X9876Y4502D01*
X9856Y4508D01*
X9837D01*
X9833Y4515D01*
X9818Y4530D01*
X9800Y4540D01*
X9780Y4546D01*
D02*
G37*
G36*
X3064Y7754D02*
X3044D01*
X3024Y7749D01*
X3006Y7738D01*
X3003Y7736D01*
X3001Y7738D01*
X2983Y7749D01*
X2963Y7754D01*
X2942D01*
X2922Y7749D01*
X2904Y7738D01*
X2890Y7724D01*
X2879Y7706D01*
X2874Y7686D01*
Y7665D01*
X2879Y7645D01*
X2890Y7627D01*
X2904Y7613D01*
X2922Y7602D01*
X2942Y7597D01*
X2963D01*
X2983Y7602D01*
X3001Y7613D01*
X3003Y7615D01*
X3006Y7613D01*
X3024Y7602D01*
X3044Y7597D01*
X3064D01*
X3084Y7602D01*
X3102Y7613D01*
X3117Y7627D01*
X3127Y7645D01*
X3133Y7665D01*
Y7686D01*
X3127Y7706D01*
X3117Y7724D01*
X3102Y7738D01*
X3084Y7749D01*
X3064Y7754D01*
D02*
G37*
G36*
X2944Y7432D02*
X2923D01*
X2903Y7426D01*
X2885Y7416D01*
X2871Y7401D01*
X2861Y7384D01*
X2855Y7364D01*
Y7353D01*
X2847Y7338D01*
X2832Y7330D01*
X2822D01*
X2802Y7325D01*
X2784Y7315D01*
X2769Y7300D01*
X2759Y7282D01*
X2754Y7262D01*
Y7241D01*
X2759Y7221D01*
X2769Y7204D01*
X2784Y7189D01*
X2802Y7179D01*
X2822Y7173D01*
X2832D01*
X2847Y7165D01*
X2855Y7150D01*
Y7140D01*
X2861Y7120D01*
X2871Y7102D01*
X2885Y7087D01*
X2903Y7077D01*
X2923Y7072D01*
X2944D01*
X2964Y7077D01*
X2982Y7087D01*
X2997Y7102D01*
X3007Y7120D01*
X3012Y7140D01*
Y7150D01*
X3020Y7165D01*
X3035Y7173D01*
X3046D01*
X3066Y7179D01*
X3083Y7189D01*
X3098Y7204D01*
X3108Y7221D01*
X3114Y7241D01*
Y7262D01*
X3108Y7282D01*
X3098Y7300D01*
X3083Y7315D01*
X3066Y7325D01*
X3046Y7330D01*
X3035D01*
X3020Y7338D01*
X3012Y7353D01*
Y7364D01*
X3007Y7384D01*
X2997Y7401D01*
X2982Y7416D01*
X2964Y7426D01*
X2944Y7432D01*
D02*
G37*
G36*
X2957Y6467D02*
X2936D01*
X2916Y6461D01*
X2898Y6451D01*
X2884Y6436D01*
X2873Y6418D01*
X2868Y6398D01*
Y6388D01*
X2860Y6373D01*
X2845Y6365D01*
X2834D01*
X2815Y6360D01*
X2797Y6349D01*
X2782Y6335D01*
X2772Y6317D01*
X2766Y6297D01*
Y6276D01*
X2772Y6256D01*
X2782Y6238D01*
X2797Y6224D01*
X2815Y6213D01*
X2834Y6208D01*
X2845D01*
X2860Y6200D01*
X2868Y6185D01*
Y6175D01*
X2873Y6155D01*
X2884Y6137D01*
X2898Y6122D01*
X2916Y6112D01*
X2936Y6106D01*
X2957D01*
X2977Y6112D01*
X2995Y6122D01*
X3009Y6137D01*
X3020Y6155D01*
X3025Y6175D01*
Y6185D01*
X3033Y6200D01*
X3048Y6208D01*
X3058D01*
X3078Y6213D01*
X3096Y6224D01*
X3111Y6238D01*
X3121Y6256D01*
X3126Y6276D01*
Y6297D01*
X3121Y6317D01*
X3111Y6335D01*
X3096Y6349D01*
X3078Y6360D01*
X3058Y6365D01*
X3048D01*
X3033Y6373D01*
X3025Y6388D01*
Y6398D01*
X3020Y6418D01*
X3009Y6436D01*
X2995Y6451D01*
X2977Y6461D01*
X2957Y6467D01*
D02*
G37*
G36*
X2720Y4741D02*
X2699D01*
X2679Y4736D01*
X2662Y4726D01*
X2647Y4711D01*
X2637Y4693D01*
X2631Y4673D01*
Y4653D01*
X2637Y4633D01*
X2647Y4615D01*
X2656Y4606D01*
X2647Y4597D01*
X2637Y4579D01*
X2631Y4559D01*
Y4538D01*
X2637Y4518D01*
X2647Y4500D01*
X2662Y4486D01*
X2679Y4475D01*
X2699Y4470D01*
X2720D01*
X2740Y4475D01*
X2758Y4486D01*
X2773Y4500D01*
X2783Y4518D01*
X2788Y4538D01*
Y4559D01*
X2783Y4579D01*
X2773Y4597D01*
X2764Y4606D01*
X2773Y4615D01*
X2783Y4633D01*
X2788Y4653D01*
Y4673D01*
X2783Y4693D01*
X2773Y4711D01*
X2758Y4726D01*
X2740Y4736D01*
X2720Y4741D01*
D02*
G37*
G36*
X6928Y6396D02*
X6926D01*
Y6260D01*
X7062D01*
Y6262D01*
X7056Y6291D01*
X7045Y6318D01*
X7029Y6342D01*
X7008Y6363D01*
X6984Y6379D01*
X6957Y6390D01*
X6928Y6396D01*
D02*
G37*
G36*
X6901D02*
X6899D01*
X6871Y6390D01*
X6844Y6379D01*
X6819Y6363D01*
X6799Y6342D01*
X6783Y6318D01*
X6771Y6291D01*
X6766Y6262D01*
Y6260D01*
X6901D01*
Y6396D01*
D02*
G37*
G36*
X6588D02*
X6586D01*
Y6260D01*
X6722D01*
Y6262D01*
X6716Y6291D01*
X6705Y6318D01*
X6689Y6342D01*
X6668Y6363D01*
X6644Y6379D01*
X6617Y6390D01*
X6588Y6396D01*
D02*
G37*
G36*
X6561D02*
X6559D01*
X6531Y6390D01*
X6504Y6379D01*
X6479Y6363D01*
X6459Y6342D01*
X6443Y6318D01*
X6431Y6291D01*
X6426Y6262D01*
Y6260D01*
X6561D01*
Y6396D01*
D02*
G37*
G36*
X8399Y6468D02*
X8379D01*
X8359Y6462D01*
X8341Y6452D01*
X8326Y6437D01*
X8316Y6420D01*
X8311Y6400D01*
Y6389D01*
X8302Y6374D01*
X8288Y6366D01*
X8277D01*
X8257Y6361D01*
X8239Y6350D01*
X8225Y6336D01*
X8214Y6318D01*
X8209Y6298D01*
Y6277D01*
X8214Y6257D01*
X8225Y6239D01*
X8239Y6225D01*
X8257Y6214D01*
X8277Y6209D01*
X8288D01*
X8302Y6201D01*
X8311Y6186D01*
Y6176D01*
X8316Y6156D01*
X8326Y6138D01*
X8341Y6123D01*
X8359Y6113D01*
X8379Y6108D01*
X8399D01*
X8419Y6113D01*
X8437Y6123D01*
X8452Y6138D01*
X8462Y6156D01*
X8468Y6176D01*
Y6186D01*
X8476Y6201D01*
X8490Y6209D01*
X8501D01*
X8521Y6214D01*
X8539Y6225D01*
X8554Y6239D01*
X8564Y6257D01*
X8569Y6277D01*
Y6298D01*
X8564Y6318D01*
X8554Y6336D01*
X8539Y6350D01*
X8521Y6361D01*
X8501Y6366D01*
X8490D01*
X8476Y6374D01*
X8468Y6389D01*
Y6400D01*
X8462Y6420D01*
X8452Y6437D01*
X8437Y6452D01*
X8419Y6462D01*
X8399Y6468D01*
D02*
G37*
G36*
X7422D02*
X7401D01*
X7381Y6462D01*
X7363Y6452D01*
X7348Y6437D01*
X7338Y6420D01*
X7333Y6400D01*
Y6389D01*
X7325Y6374D01*
X7310Y6366D01*
X7299D01*
X7279Y6361D01*
X7261Y6350D01*
X7247Y6336D01*
X7236Y6318D01*
X7231Y6298D01*
Y6277D01*
X7236Y6257D01*
X7247Y6239D01*
X7261Y6225D01*
X7279Y6214D01*
X7299Y6209D01*
X7310D01*
X7325Y6201D01*
X7333Y6186D01*
Y6176D01*
X7338Y6156D01*
X7348Y6138D01*
X7363Y6123D01*
X7381Y6113D01*
X7401Y6108D01*
X7422D01*
X7442Y6113D01*
X7459Y6123D01*
X7474Y6138D01*
X7484Y6156D01*
X7490Y6176D01*
Y6186D01*
X7498Y6201D01*
X7513Y6209D01*
X7523D01*
X7543Y6214D01*
X7561Y6225D01*
X7576Y6239D01*
X7586Y6257D01*
X7591Y6277D01*
Y6298D01*
X7586Y6318D01*
X7576Y6336D01*
X7561Y6350D01*
X7543Y6361D01*
X7523Y6366D01*
X7513D01*
X7498Y6374D01*
X7490Y6389D01*
Y6400D01*
X7484Y6420D01*
X7474Y6437D01*
X7459Y6452D01*
X7442Y6462D01*
X7422Y6468D01*
D02*
G37*
G36*
X7062Y6235D02*
X6926D01*
Y6100D01*
X6928D01*
X6957Y6105D01*
X6984Y6117D01*
X7008Y6133D01*
X7029Y6153D01*
X7045Y6178D01*
X7056Y6205D01*
X7062Y6233D01*
Y6235D01*
D02*
G37*
G36*
X6901D02*
X6766D01*
Y6233D01*
X6771Y6205D01*
X6783Y6178D01*
X6799Y6153D01*
X6819Y6133D01*
X6844Y6117D01*
X6871Y6105D01*
X6899Y6100D01*
X6901D01*
Y6235D01*
D02*
G37*
G36*
X6722Y6235D02*
X6586D01*
Y6100D01*
X6588D01*
X6617Y6105D01*
X6644Y6117D01*
X6668Y6133D01*
X6689Y6153D01*
X6705Y6178D01*
X6716Y6205D01*
X6722Y6233D01*
Y6235D01*
D02*
G37*
G36*
X6561D02*
X6426D01*
Y6233D01*
X6431Y6205D01*
X6443Y6178D01*
X6459Y6153D01*
X6479Y6133D01*
X6504Y6117D01*
X6531Y6105D01*
X6559Y6100D01*
X6561D01*
Y6235D01*
D02*
G37*
G36*
X8075Y6009D02*
X8054D01*
X8034Y6004D01*
X8016Y5994D01*
X8002Y5979D01*
X7991Y5961D01*
X7986Y5941D01*
Y5921D01*
X7991Y5901D01*
X8002Y5883D01*
X8012Y5862D01*
X8001Y5844D01*
X7996Y5824D01*
Y5803D01*
X8001Y5783D01*
X8012Y5765D01*
X8026Y5751D01*
X8044Y5740D01*
X8064Y5735D01*
X8085D01*
X8105Y5740D01*
X8123Y5751D01*
X8137Y5765D01*
X8148Y5783D01*
X8153Y5803D01*
Y5824D01*
X8148Y5844D01*
X8137Y5862D01*
X8127Y5883D01*
X8138Y5901D01*
X8143Y5921D01*
Y5941D01*
X8138Y5961D01*
X8127Y5979D01*
X8113Y5994D01*
X8095Y6004D01*
X8075Y6009D01*
D02*
G37*
G36*
X8760Y5415D02*
X8739D01*
X8719Y5410D01*
X8701Y5400D01*
X8687Y5385D01*
X8676Y5367D01*
X8671Y5348D01*
X8658Y5352D01*
X8637D01*
X8617Y5346D01*
X8600Y5336D01*
X8585Y5322D01*
X8575Y5304D01*
X8569Y5284D01*
Y5263D01*
X8575Y5243D01*
X8585Y5225D01*
X8572Y5207D01*
X8562Y5189D01*
X8557Y5169D01*
Y5149D01*
X8562Y5129D01*
X8572Y5111D01*
X8587Y5096D01*
X8605Y5086D01*
X8620Y5082D01*
Y5073D01*
X8625Y5053D01*
X8636Y5035D01*
X8650Y5020D01*
X8668Y5010D01*
X8688Y5004D01*
X8709D01*
X8729Y5010D01*
X8747Y5020D01*
X8749Y5023D01*
X8752Y5020D01*
X8770Y5010D01*
X8790Y5004D01*
X8811D01*
X8830Y5010D01*
X8848Y5020D01*
X8863Y5035D01*
X8873Y5053D01*
X8878Y5069D01*
X8894Y5073D01*
X8912Y5084D01*
X8927Y5098D01*
X8937Y5116D01*
X8942Y5136D01*
Y5157D01*
X8937Y5177D01*
X8934Y5182D01*
X8939Y5187D01*
X8950Y5205D01*
X8955Y5225D01*
Y5246D01*
X8950Y5266D01*
X8939Y5283D01*
X8925Y5298D01*
X8907Y5308D01*
X8904Y5309D01*
X8899Y5329D01*
X8888Y5347D01*
X8874Y5362D01*
X8856Y5372D01*
X8836Y5377D01*
X8817D01*
X8812Y5385D01*
X8798Y5400D01*
X8780Y5410D01*
X8760Y5415D01*
D02*
G37*
G36*
X4963Y6505D02*
X4943D01*
X4923Y6499D01*
X4905Y6489D01*
X4890Y6474D01*
X4880Y6457D01*
X4874Y6437D01*
Y6416D01*
X4880Y6396D01*
X4889Y6379D01*
X4888Y6374D01*
X4876Y6354D01*
X4850Y6343D01*
X4844Y6347D01*
X4824Y6352D01*
X4803D01*
X4783Y6347D01*
X4765Y6337D01*
X4750Y6322D01*
X4740Y6304D01*
X4735Y6284D01*
Y6263D01*
X4740Y6244D01*
X4750Y6226D01*
X4765Y6211D01*
X4783Y6201D01*
X4803Y6195D01*
X4824D01*
X4844Y6201D01*
X4850Y6205D01*
X4876Y6194D01*
X4888Y6174D01*
X4889Y6168D01*
X4880Y6152D01*
X4874Y6132D01*
Y6111D01*
X4880Y6091D01*
X4890Y6073D01*
X4905Y6059D01*
X4923Y6048D01*
X4943Y6043D01*
X4963D01*
X4983Y6048D01*
X5001Y6059D01*
X5016Y6073D01*
X5026Y6091D01*
X5031Y6111D01*
Y6132D01*
X5026Y6152D01*
X5017Y6168D01*
X5018Y6174D01*
X5028Y6194D01*
X5036D01*
Y6354D01*
X5028D01*
X5018Y6374D01*
X5017Y6379D01*
X5026Y6396D01*
X5031Y6416D01*
Y6437D01*
X5026Y6457D01*
X5016Y6474D01*
X5001Y6489D01*
X4983Y6499D01*
X4963Y6505D01*
D02*
G37*
G36*
X4049D02*
X4028D01*
X4008Y6499D01*
X3990Y6489D01*
X3976Y6474D01*
X3965Y6457D01*
X3960Y6437D01*
Y6416D01*
X3965Y6396D01*
X3975Y6379D01*
X3974Y6374D01*
X3961Y6354D01*
X3936Y6343D01*
X3929Y6347D01*
X3909Y6352D01*
X3889D01*
X3869Y6347D01*
X3851Y6337D01*
X3836Y6322D01*
X3826Y6304D01*
X3820Y6284D01*
Y6263D01*
X3826Y6244D01*
X3836Y6226D01*
X3851Y6211D01*
X3869Y6201D01*
X3889Y6195D01*
X3909D01*
X3929Y6201D01*
X3936Y6205D01*
X3961Y6194D01*
X3974Y6174D01*
X3975Y6168D01*
X3965Y6152D01*
X3960Y6132D01*
Y6111D01*
X3965Y6091D01*
X3976Y6073D01*
X3990Y6059D01*
X4008Y6048D01*
X4028Y6043D01*
X4049D01*
X4069Y6048D01*
X4087Y6059D01*
X4101Y6073D01*
X4112Y6091D01*
X4117Y6111D01*
Y6132D01*
X4112Y6152D01*
X4102Y6168D01*
X4103Y6174D01*
X4113Y6194D01*
X4121D01*
Y6354D01*
X4113D01*
X4103Y6374D01*
X4102Y6379D01*
X4112Y6396D01*
X4117Y6416D01*
Y6437D01*
X4112Y6457D01*
X4101Y6474D01*
X4087Y6489D01*
X4069Y6499D01*
X4049Y6505D01*
D02*
G37*
G36*
X4443Y5501D02*
X4422D01*
X4402Y5496D01*
X4384Y5486D01*
X4369Y5471D01*
X4359Y5453D01*
X4356Y5443D01*
X4334Y5431D01*
X4328Y5430D01*
X4326Y5432D01*
X4306Y5437D01*
X4285D01*
X4265Y5432D01*
X4247Y5422D01*
X4232Y5407D01*
X4222Y5389D01*
X4217Y5369D01*
Y5348D01*
X4222Y5328D01*
X4232Y5311D01*
X4247Y5296D01*
X4265Y5286D01*
X4285Y5280D01*
X4306D01*
X4321Y5284D01*
X4334Y5276D01*
X4342Y5266D01*
X4338Y5248D01*
Y5217D01*
X4346Y5186D01*
X4354Y5171D01*
X4350Y5158D01*
X4341Y5145D01*
X4326Y5140D01*
X4308Y5130D01*
X4293Y5115D01*
X4283Y5098D01*
X4278Y5078D01*
Y5057D01*
X4283Y5037D01*
X4293Y5019D01*
X4308Y5004D01*
X4326Y4994D01*
X4346Y4989D01*
X4366D01*
X4386Y4994D01*
X4404Y5004D01*
X4413Y5013D01*
X4436Y5013D01*
X4443Y5011D01*
X4446Y5006D01*
X4460Y4992D01*
X4478Y4981D01*
X4498Y4976D01*
X4519D01*
X4539Y4981D01*
X4557Y4992D01*
X4571Y5006D01*
X4582Y5024D01*
X4582Y5025D01*
X4590Y5044D01*
X4612Y5042D01*
X4612Y5042D01*
X4632D01*
X4652Y5048D01*
X4670Y5058D01*
X4685Y5072D01*
X4695Y5090D01*
X4701Y5110D01*
Y5131D01*
X4695Y5151D01*
X4685Y5169D01*
X4684Y5170D01*
X4683Y5176D01*
X4690Y5200D01*
X4699Y5205D01*
X4713Y5220D01*
X4724Y5238D01*
X4729Y5258D01*
Y5278D01*
X4724Y5298D01*
X4713Y5316D01*
X4699Y5331D01*
X4681Y5341D01*
X4665Y5345D01*
X4661Y5347D01*
X4647Y5372D01*
X4648Y5374D01*
Y5394D01*
X4643Y5414D01*
X4632Y5432D01*
X4618Y5447D01*
X4600Y5457D01*
X4580Y5463D01*
X4559D01*
X4539Y5457D01*
X4532Y5453D01*
X4513Y5453D01*
X4500Y5462D01*
X4495Y5471D01*
X4481Y5486D01*
X4463Y5496D01*
X4443Y5501D01*
D02*
G37*
G36*
Y4638D02*
X4422D01*
X4402Y4632D01*
X4384Y4622D01*
X4369Y4608D01*
X4359Y4590D01*
X4356Y4579D01*
X4334Y4567D01*
X4328Y4567D01*
X4326Y4568D01*
X4306Y4574D01*
X4285D01*
X4265Y4568D01*
X4247Y4558D01*
X4232Y4543D01*
X4222Y4525D01*
X4217Y4505D01*
Y4485D01*
X4222Y4465D01*
X4232Y4447D01*
X4247Y4432D01*
X4265Y4422D01*
X4285Y4417D01*
X4306D01*
X4324Y4422D01*
X4333Y4416D01*
X4345Y4404D01*
X4338Y4378D01*
Y4347D01*
X4346Y4316D01*
X4359Y4294D01*
X4358Y4289D01*
X4352Y4278D01*
X4345Y4269D01*
X4333D01*
X4313Y4264D01*
X4295Y4254D01*
X4281Y4239D01*
X4270Y4221D01*
X4265Y4201D01*
Y4181D01*
X4270Y4161D01*
X4281Y4143D01*
X4295Y4128D01*
X4313Y4118D01*
X4333Y4112D01*
X4354D01*
X4374Y4118D01*
X4392Y4128D01*
X4406Y4143D01*
X4409Y4148D01*
X4426Y4148D01*
X4437Y4145D01*
X4446Y4130D01*
X4460Y4115D01*
X4478Y4105D01*
X4498Y4100D01*
X4519D01*
X4539Y4105D01*
X4557Y4115D01*
X4571Y4130D01*
X4582Y4148D01*
X4586Y4163D01*
X4594Y4171D01*
X4612Y4179D01*
X4625Y4176D01*
X4646D01*
X4666Y4181D01*
X4684Y4192D01*
X4698Y4206D01*
X4709Y4224D01*
X4714Y4244D01*
Y4265D01*
X4709Y4285D01*
X4698Y4303D01*
X4692Y4309D01*
X4693Y4336D01*
X4695Y4340D01*
X4699Y4342D01*
X4713Y4356D01*
X4724Y4374D01*
X4729Y4394D01*
Y4415D01*
X4724Y4435D01*
X4713Y4453D01*
X4699Y4467D01*
X4681Y4478D01*
X4665Y4482D01*
X4661Y4484D01*
X4647Y4508D01*
X4648Y4510D01*
Y4531D01*
X4643Y4551D01*
X4632Y4569D01*
X4618Y4583D01*
X4600Y4594D01*
X4580Y4599D01*
X4559D01*
X4539Y4594D01*
X4532Y4589D01*
X4513Y4590D01*
X4500Y4598D01*
X4495Y4608D01*
X4481Y4622D01*
X4463Y4632D01*
X4443Y4638D01*
D02*
G37*
G36*
X6020Y4733D02*
X5999D01*
X5980Y4728D01*
X5962Y4718D01*
X5950Y4706D01*
X5945Y4712D01*
X5927Y4722D01*
X5907Y4727D01*
X5886D01*
X5866Y4722D01*
X5849Y4712D01*
X5834Y4697D01*
X5824Y4679D01*
X5817Y4681D01*
X5797D01*
X5777Y4675D01*
X5759Y4665D01*
X5744Y4651D01*
X5734Y4633D01*
X5729Y4614D01*
X5728Y4615D01*
X5707D01*
X5687Y4609D01*
X5669Y4599D01*
X5655Y4584D01*
X5644Y4567D01*
X5639Y4547D01*
Y4526D01*
X5619Y4521D01*
X5601Y4510D01*
X5586Y4496D01*
X5576Y4478D01*
X5571Y4458D01*
Y4437D01*
X5576Y4417D01*
X5579Y4411D01*
X5566Y4404D01*
X5551Y4389D01*
X5541Y4371D01*
X5536Y4351D01*
Y4330D01*
X5541Y4310D01*
X5551Y4293D01*
X5564Y4280D01*
X5554Y4269D01*
X5543Y4252D01*
X5538Y4232D01*
Y4211D01*
X5543Y4191D01*
X5554Y4173D01*
X5568Y4158D01*
X5579Y4152D01*
X5573Y4133D01*
Y4112D01*
X5579Y4092D01*
X5589Y4074D01*
X5604Y4059D01*
X5622Y4049D01*
X5641Y4044D01*
X5639Y4034D01*
Y4013D01*
X5644Y3993D01*
X5655Y3975D01*
X5669Y3961D01*
X5687Y3950D01*
X5707Y3945D01*
X5728D01*
X5740Y3922D01*
X5741Y3917D01*
X5751Y3899D01*
X5766Y3885D01*
X5784Y3874D01*
X5804Y3869D01*
X5825D01*
X5845Y3874D01*
X5856Y3881D01*
X5858Y3877D01*
X5873Y3862D01*
X5890Y3852D01*
X5910Y3846D01*
X5931D01*
X5951Y3852D01*
X5969Y3862D01*
X5982Y3875D01*
X5992Y3865D01*
X6010Y3854D01*
X6030Y3849D01*
X6051D01*
X6071Y3854D01*
X6088Y3865D01*
X6101Y3877D01*
X6106Y3874D01*
X6126Y3869D01*
X6147D01*
X6167Y3874D01*
X6185Y3885D01*
X6199Y3899D01*
X6210Y3917D01*
X6230D01*
X6250Y3922D01*
X6268Y3933D01*
X6283Y3947D01*
X6293Y3965D01*
X6298Y3985D01*
Y4001D01*
X6299D01*
X6319Y4006D01*
X6337Y4016D01*
X6352Y4031D01*
X6362Y4049D01*
X6367Y4069D01*
Y4089D01*
X6364Y4101D01*
X6370Y4103D01*
X6388Y4113D01*
X6402Y4128D01*
X6413Y4146D01*
X6418Y4166D01*
Y4186D01*
X6413Y4206D01*
X6402Y4224D01*
X6410Y4252D01*
X6412Y4254D01*
X6422Y4272D01*
X6428Y4292D01*
Y4313D01*
X6422Y4333D01*
X6412Y4351D01*
X6398Y4366D01*
X6381Y4375D01*
X6385Y4382D01*
X6390Y4402D01*
Y4423D01*
X6385Y4443D01*
X6374Y4460D01*
X6360Y4475D01*
X6342Y4485D01*
X6339Y4486D01*
X6342Y4496D01*
Y4516D01*
X6337Y4536D01*
X6326Y4554D01*
X6312Y4569D01*
X6294Y4579D01*
X6274Y4585D01*
X6261D01*
X6256Y4605D01*
X6245Y4622D01*
X6231Y4637D01*
X6213Y4647D01*
X6193Y4653D01*
X6192Y4655D01*
X6182Y4673D01*
X6167Y4688D01*
X6149Y4698D01*
X6129Y4704D01*
X6109D01*
X6089Y4698D01*
X6079Y4692D01*
X6073Y4703D01*
X6058Y4718D01*
X6040Y4728D01*
X6020Y4733D01*
D02*
G37*
%LPD*%
D16*
X11430Y11417D02*
X11506Y11341D01*
X10376Y11417D02*
X11430D01*
X11112Y10274D02*
Y10541D01*
X8350Y9519D02*
X10928D01*
X8877Y11290D02*
X10096D01*
X7518Y10960D02*
Y11214D01*
X10287Y10319D02*
Y11493D01*
X9576Y9608D02*
X10287Y10319D01*
X9576Y9608D02*
X11817D01*
X11824Y9614D01*
X7734Y11582D02*
X8915D01*
X8915Y11582D01*
X10198Y11582D01*
X7696Y9500D02*
X7811Y9614D01*
X10198Y11582D02*
X10287Y11493D01*
X10808Y11595D02*
X12014D01*
X4077Y10096D02*
X4699D01*
X4762Y8865D02*
Y10033D01*
X4699Y10096D02*
X4762Y10033D01*
X10287Y11493D02*
X10389Y11595D01*
X10808D01*
X7671Y11112D02*
X8522D01*
X7518Y10960D02*
X7671Y11112D01*
X8522D02*
X8700Y11290D01*
X7518Y9680D02*
Y10960D01*
X7150Y9665D02*
X7504D01*
X7518Y9680D01*
X8998Y9608D02*
X9576D01*
X8700Y11290D02*
X8877D01*
X7817Y9608D02*
X8998D01*
X7811Y9614D02*
X7817Y9608D01*
X8312Y10128D02*
X8446Y10262D01*
Y10706D01*
X8788Y11049D01*
Y11125D01*
X6909Y9423D02*
X7150Y9665D01*
X6909Y9322D02*
Y9423D01*
X7696Y9004D02*
Y9500D01*
X7150Y8458D02*
X7696Y9004D01*
X6604Y8458D02*
X7150D01*
X5004Y11684D02*
Y12078D01*
X5944Y9500D02*
X6668D01*
X5397D02*
X5944D01*
X5817Y8458D02*
X6604D01*
X6185Y8572D02*
X7049D01*
X6179Y8579D02*
X6185Y8572D01*
X5296Y8674D02*
X5391Y8579D01*
X6179D01*
X5296Y8674D02*
Y11214D01*
X5169Y8458D02*
X5817D01*
X4762Y8865D02*
X5169Y8458D01*
X3327Y10846D02*
X4077Y10096D01*
X3327Y10846D02*
Y11951D01*
X3464Y12087D01*
X3975D01*
X5004Y11506D02*
X5296Y11214D01*
X3453Y10908D02*
Y11950D01*
Y10908D02*
X4126Y10236D01*
X3453Y11950D02*
X3454Y11951D01*
X4890Y9474D02*
Y9487D01*
X4928Y9525D01*
Y11284D01*
X5004Y9474D02*
Y11252D01*
Y11360D02*
Y11379D01*
X4928Y11284D02*
X5004Y11360D01*
X4126Y10236D02*
X4496D01*
X4128Y10363D02*
X4496D01*
X3531Y10960D02*
X4128Y10363D01*
X3531Y10960D02*
Y11900D01*
X4975Y12107D02*
X5004Y12078D01*
X4872Y12107D02*
X4975D01*
D76*
X9337Y7214D02*
D03*
X8388Y6287D02*
D03*
X7410D02*
D03*
X9350Y6274D02*
D03*
X4956D02*
D03*
X2936Y7252D02*
D03*
X4041Y6274D02*
D03*
X2949Y6287D02*
D03*
D80*
X6574Y7240D02*
D03*
X5786D02*
D03*
X5144Y7396D02*
D03*
X7569Y7049D02*
D03*
X6574Y6248D02*
D03*
X6914D02*
D03*
X4152Y7396D02*
D03*
Y7056D02*
D03*
X5786Y6248D02*
D03*
X6126D02*
D03*
X8561Y7049D02*
D03*
Y7389D02*
D03*
X11443Y3962D02*
D03*
Y4954D02*
D03*
X11783Y3962D02*
D03*
D81*
X6126Y7240D02*
D03*
X6914D02*
D03*
X11783Y4954D02*
D03*
D82*
X5144Y7056D02*
D03*
X7569Y7389D02*
D03*
D83*
X8738Y6287D02*
D03*
X7760D02*
D03*
X3299D02*
D03*
X3287Y7252D02*
D03*
X4391Y6274D02*
D03*
X5306D02*
D03*
X9700D02*
D03*
X9687Y7214D02*
D03*
D88*
X12013Y6665D02*
D03*
Y6515D02*
D03*
X11863Y6665D02*
D03*
Y6515D02*
D03*
X12013Y6365D02*
D03*
X11863D02*
D03*
D91*
X10630Y4395D02*
D03*
D92*
Y5015D02*
D03*
D93*
X11130Y4695D02*
D03*
D94*
X12975Y12256D02*
D03*
X11794D02*
D03*
X10508D02*
D03*
X9292D02*
D03*
D95*
X7983Y12557D02*
D03*
X4872D02*
D03*
X4222D02*
D03*
X7333Y12107D02*
D03*
X7983D02*
D03*
X4222D02*
D03*
D96*
X7333Y12557D02*
D03*
X4872Y12107D02*
D03*
D97*
X9779Y5220D02*
D03*
Y4350D02*
D03*
X8763Y5220D02*
D03*
Y4350D02*
D03*
X4458Y5232D02*
D03*
X3442D02*
D03*
X4458Y4362D02*
D03*
X3442D02*
D03*
X8255Y4350D02*
D03*
Y5220D02*
D03*
X2934Y4362D02*
D03*
Y5232D02*
D03*
X3950D02*
D03*
Y4362D02*
D03*
X9271Y5220D02*
D03*
Y4350D02*
D03*
D98*
X5982Y4280D02*
D03*
D99*
X6871Y4293D02*
D03*
D100*
X3830Y12239D02*
D03*
X3330D02*
D03*
D101*
X5932Y11185D02*
D03*
X5792D02*
D03*
X6072D02*
D03*
X5792Y11045D02*
D03*
X5932D02*
D03*
X6072D02*
D03*
X5862Y11255D02*
D03*
X6002D02*
D03*
X5862Y10975D02*
D03*
X6002D02*
D03*
D102*
X10008Y12256D02*
D03*
X10258D02*
D03*
X8792D02*
D03*
X9042D02*
D03*
X12475D02*
D03*
X12725D02*
D03*
X11294D02*
D03*
X11544D02*
D03*
D103*
X6121Y6452D02*
D03*
X6248Y6414D02*
D03*
X5994Y6401D02*
D03*
X5867Y6439D02*
D03*
X5728Y6452D02*
D03*
X5613Y6363D02*
D03*
Y6121D02*
D03*
X5982Y6096D02*
D03*
X6236Y6071D02*
D03*
X6109Y6045D02*
D03*
X5855Y6058D02*
D03*
X5728D02*
D03*
X3975Y4559D02*
D03*
X3835Y4521D02*
D03*
X4102Y4470D02*
D03*
X3759Y4381D02*
D03*
X4077Y4229D02*
D03*
X3937Y4178D02*
D03*
X3810Y4242D02*
D03*
X4635Y4254D02*
D03*
X4508Y4178D02*
D03*
X4651Y4405D02*
D03*
X4569Y4521D02*
D03*
X4432Y4559D02*
D03*
X4295Y4495D02*
D03*
X4343Y4191D02*
D03*
X4356Y5067D02*
D03*
X4295Y5359D02*
D03*
X4432Y5423D02*
D03*
X4569Y5384D02*
D03*
X4651Y5268D02*
D03*
X4508Y5055D02*
D03*
X4622Y5121D02*
D03*
X3810Y5105D02*
D03*
X3937Y5042D02*
D03*
X4077Y5093D02*
D03*
X3759Y5245D02*
D03*
X4102Y5334D02*
D03*
X3835Y5385D02*
D03*
X3975Y5423D02*
D03*
X3899Y6274D02*
D03*
X4538Y6276D02*
D03*
X4039Y6426D02*
D03*
Y6121D02*
D03*
X4386Y6428D02*
D03*
X4399Y6124D02*
D03*
X5309Y6121D02*
D03*
X5296Y6426D02*
D03*
X4953Y6121D02*
D03*
Y6426D02*
D03*
X5448Y6274D02*
D03*
X4813D02*
D03*
X8064Y5931D02*
D03*
X9360Y7681D02*
D03*
X9728Y7683D02*
D03*
X9461Y7681D02*
D03*
X9614Y7683D02*
D03*
X10020Y6769D02*
D03*
X10023Y6401D02*
D03*
Y6515D02*
D03*
X10020Y6668D02*
D03*
X10021Y7459D02*
D03*
X10024Y7090D02*
D03*
Y7204D02*
D03*
X10021Y7357D02*
D03*
X10008Y5880D02*
D03*
X9995Y5702D02*
D03*
Y5601D02*
D03*
X10008Y5994D02*
D03*
X8075Y5814D02*
D03*
X8077Y5559D02*
D03*
Y5661D02*
D03*
X8877Y7671D02*
D03*
X8979Y7670D02*
D03*
X8687Y7506D02*
D03*
X8674Y6921D02*
D03*
X8458D02*
D03*
X8687Y6627D02*
D03*
X8572D02*
D03*
X9131Y6794D02*
D03*
Y6693D02*
D03*
X9134Y6540D02*
D03*
X8941Y6629D02*
D03*
X8725Y7429D02*
D03*
X8026Y7351D02*
D03*
Y7249D02*
D03*
X8028Y7097D02*
D03*
Y6982D02*
D03*
X9106Y5550D02*
D03*
Y5651D02*
D03*
X9131Y4712D02*
D03*
Y4877D02*
D03*
Y4966D02*
D03*
X6416Y5435D02*
D03*
Y5550D02*
D03*
X6414Y5702D02*
D03*
Y5804D02*
D03*
X6540Y6627D02*
D03*
X6655D02*
D03*
X6807Y6629D02*
D03*
X6909D02*
D03*
X7328Y6627D02*
D03*
X7442D02*
D03*
X7595Y6629D02*
D03*
X7696D02*
D03*
X8839D02*
D03*
X8935Y5906D02*
D03*
Y5791D02*
D03*
X8938Y5639D02*
D03*
Y5537D02*
D03*
X9134Y6426D02*
D03*
X9131Y5817D02*
D03*
Y5918D02*
D03*
Y4597D02*
D03*
X10023Y4584D02*
D03*
Y4699D02*
D03*
X10020Y4851D02*
D03*
Y4953D02*
D03*
X10010Y3721D02*
D03*
Y3835D02*
D03*
X10008Y3988D02*
D03*
Y4089D02*
D03*
X9134Y3721D02*
D03*
Y3835D02*
D03*
X9131Y3988D02*
D03*
Y4089D02*
D03*
X8943Y3721D02*
D03*
Y3835D02*
D03*
X8941Y3988D02*
D03*
Y4089D02*
D03*
X8943Y4572D02*
D03*
Y4686D02*
D03*
X8941Y4839D02*
D03*
Y4940D02*
D03*
X8029Y4584D02*
D03*
Y4699D02*
D03*
X8026Y4851D02*
D03*
Y4953D02*
D03*
X8029Y3746D02*
D03*
Y3861D02*
D03*
X8026Y4013D02*
D03*
Y4115D02*
D03*
X3556Y4089D02*
D03*
X2692Y4102D02*
D03*
Y4001D02*
D03*
X3645Y6820D02*
D03*
X4026Y6934D02*
D03*
X3535Y6483D02*
D03*
Y6368D02*
D03*
X3542Y6111D02*
D03*
Y6212D02*
D03*
X4387Y6816D02*
D03*
X4273D02*
D03*
X3772Y6820D02*
D03*
X4387Y7692D02*
D03*
X4273D02*
D03*
X4015Y7685D02*
D03*
X4117D02*
D03*
X3324Y7683D02*
D03*
X3210D02*
D03*
X2953Y7675D02*
D03*
X3054D02*
D03*
X2676Y7017D02*
D03*
Y7132D02*
D03*
X2668Y7389D02*
D03*
Y7288D02*
D03*
X2676Y6090D02*
D03*
Y6205D02*
D03*
X2668Y6462D02*
D03*
Y6361D02*
D03*
X13163Y6186D02*
D03*
Y6084D02*
D03*
X13214Y6447D02*
D03*
Y6549D02*
D03*
Y6650D02*
D03*
X13330Y6903D02*
D03*
X13432D02*
D03*
X13534D02*
D03*
X12734Y6890D02*
D03*
X12835D02*
D03*
X12937D02*
D03*
X11848Y8034D02*
D03*
Y8135D02*
D03*
Y8237D02*
D03*
Y8694D02*
D03*
Y8796D02*
D03*
X11849Y8903D02*
D03*
X11684Y7785D02*
D03*
Y7696D02*
D03*
X9431Y7202D02*
D03*
X9081Y8369D02*
D03*
X9329Y7304D02*
D03*
X8979Y8380D02*
D03*
X8877Y8369D02*
D03*
X9410Y6383D02*
D03*
X9342Y6364D02*
D03*
X9227Y7202D02*
D03*
X9329Y7100D02*
D03*
X8389Y6389D02*
D03*
X7411D02*
D03*
X7310Y6288D02*
D03*
X8288D02*
D03*
X8491D02*
D03*
X7513D02*
D03*
X9846Y5293D02*
D03*
X9897Y5229D02*
D03*
X9770Y5331D02*
D03*
X9443Y6262D02*
D03*
X9410Y6180D02*
D03*
X9308Y6282D02*
D03*
X9240Y6262D02*
D03*
X9668Y5267D02*
D03*
X9342Y6161D02*
D03*
X9656Y5153D02*
D03*
X8826Y5299D02*
D03*
X8876Y5235D02*
D03*
X9884Y5140D02*
D03*
X9821Y5077D02*
D03*
X9770Y4467D02*
D03*
X9897Y4366D02*
D03*
X9846Y4429D02*
D03*
X9884Y4277D02*
D03*
X9821Y4213D02*
D03*
X9719Y5077D02*
D03*
X8864Y5146D02*
D03*
X9668Y4404D02*
D03*
X8800Y5083D02*
D03*
X8826Y4435D02*
D03*
X9656Y4289D02*
D03*
X8876Y4372D02*
D03*
X9719Y4213D02*
D03*
X8864Y4283D02*
D03*
X8800Y4219D02*
D03*
X8389Y6186D02*
D03*
X7827Y5569D02*
D03*
Y5658D02*
D03*
X7582Y5455D02*
D03*
X8749Y5337D02*
D03*
X8699Y5083D02*
D03*
X8648Y5273D02*
D03*
X8635Y5159D02*
D03*
X7582Y5645D02*
D03*
X7411Y6186D02*
D03*
X7581Y5556D02*
D03*
X6183Y4574D02*
D03*
X6263Y4506D02*
D03*
X6119Y4625D02*
D03*
X6109Y4547D02*
D03*
X8749Y4473D02*
D03*
X8648Y4410D02*
D03*
X6312Y4412D02*
D03*
X6349Y4303D02*
D03*
X8699Y4219D02*
D03*
X8635Y4295D02*
D03*
X6340Y4176D02*
D03*
X6287Y4254D02*
D03*
X6289Y4079D02*
D03*
X6274Y4343D02*
D03*
X6236Y4432D02*
D03*
X6261Y4166D02*
D03*
X6185Y4496D02*
D03*
X6210Y4089D02*
D03*
X6147Y4026D02*
D03*
X6220Y3996D02*
D03*
X6071Y4001D02*
D03*
X6136Y3947D02*
D03*
X5118Y5664D02*
D03*
X5106Y5582D02*
D03*
X4877Y5740D02*
D03*
X3505Y8407D02*
D03*
X3607D02*
D03*
X3721D02*
D03*
X2934Y7353D02*
D03*
X2832Y7252D02*
D03*
X3048Y6287D02*
D03*
X3035Y7252D02*
D03*
X2946Y6388D02*
D03*
X2934Y7150D02*
D03*
X2845Y6287D02*
D03*
X2946Y6185D02*
D03*
X2731Y5804D02*
D03*
X2663Y5677D02*
D03*
X6010Y4655D02*
D03*
X5956Y4597D02*
D03*
X6045Y4585D02*
D03*
X5897Y4649D02*
D03*
X5807Y4602D02*
D03*
X5880Y4572D02*
D03*
X5804Y4521D02*
D03*
X5717Y4536D02*
D03*
X5728Y4458D02*
D03*
X4877Y5512D02*
D03*
X5118D02*
D03*
X5649Y4447D02*
D03*
X5804Y4026D02*
D03*
X5728Y4102D02*
D03*
X5717Y4024D02*
D03*
X5702Y4381D02*
D03*
X5690Y4191D02*
D03*
X6040Y3927D02*
D03*
X5969Y3988D02*
D03*
X5921Y3925D02*
D03*
X5881Y4004D02*
D03*
X5814Y3947D02*
D03*
X5614Y4341D02*
D03*
X5677Y4293D02*
D03*
X5652Y4122D02*
D03*
X5616Y4221D02*
D03*
X3556Y5245D02*
D03*
X3505Y5309D02*
D03*
X3429Y5347D02*
D03*
X2718Y5537D02*
D03*
X3327Y5283D02*
D03*
X3543Y5156D02*
D03*
X3480Y5093D02*
D03*
X3551Y4695D02*
D03*
X3315Y5169D02*
D03*
X3378Y5093D02*
D03*
X3551Y4581D02*
D03*
X3556Y4381D02*
D03*
X3549Y3741D02*
D03*
X3505Y4445D02*
D03*
X3429Y4483D02*
D03*
X3327Y4420D02*
D03*
X3315Y4305D02*
D03*
X3543Y4293D02*
D03*
X3549Y3855D02*
D03*
X3378Y4229D02*
D03*
X3480D02*
D03*
X7150Y4089D02*
D03*
X6833Y4026D02*
D03*
X6680Y4013D02*
D03*
X6883Y3950D02*
D03*
X6985Y3962D02*
D03*
X6769D02*
D03*
X6756Y4051D02*
D03*
X7061Y4102D02*
D03*
X6921Y4026D02*
D03*
X6680Y4102D02*
D03*
X7074Y4013D02*
D03*
X6998Y4051D02*
D03*
X7137Y4254D02*
D03*
Y4343D02*
D03*
X6680Y4483D02*
D03*
X7112Y4166D02*
D03*
Y4420D02*
D03*
X6820Y4559D02*
D03*
X6909D02*
D03*
X6744Y4534D02*
D03*
Y4623D02*
D03*
X6985Y4534D02*
D03*
X6858Y4635D02*
D03*
X6972Y4623D02*
D03*
X7061Y4572D02*
D03*
X6655D02*
D03*
X7226Y4252D02*
D03*
Y4331D02*
D03*
X6591Y4496D02*
D03*
X6528Y4305D02*
D03*
X6591Y4102D02*
D03*
X6629Y4178D02*
D03*
X7201D02*
D03*
X6629Y4420D02*
D03*
X6604Y4343D02*
D03*
X7150Y4496D02*
D03*
X6604Y4254D02*
D03*
X7201Y4407D02*
D03*
X7061Y4483D02*
D03*
X6540Y4407D02*
D03*
Y4191D02*
D03*
X5399Y5213D02*
D03*
X6337Y3721D02*
D03*
X5399Y3727D02*
D03*
X7455Y3721D02*
D03*
X6680D02*
D03*
X5993Y3727D02*
D03*
X7023Y3721D02*
D03*
X6782D02*
D03*
X6094Y3727D02*
D03*
X5298D02*
D03*
X6439Y3721D02*
D03*
X5753D02*
D03*
X7125D02*
D03*
X5651D02*
D03*
X7353D02*
D03*
Y5207D02*
D03*
X5651D02*
D03*
X7125D02*
D03*
X5753D02*
D03*
X6439D02*
D03*
X5298Y5213D02*
D03*
X6094D02*
D03*
X6782Y5207D02*
D03*
X7023D02*
D03*
X5993Y5213D02*
D03*
X6680Y5207D02*
D03*
X7455D02*
D03*
X6337D02*
D03*
X7772Y5029D02*
D03*
Y4026D02*
D03*
Y3924D02*
D03*
Y4597D02*
D03*
Y4369D02*
D03*
Y4699D02*
D03*
Y4267D02*
D03*
Y4928D02*
D03*
X4966Y4953D02*
D03*
Y4293D02*
D03*
Y4724D02*
D03*
Y4394D02*
D03*
Y4623D02*
D03*
Y3950D02*
D03*
Y4051D02*
D03*
Y5055D02*
D03*
X6236Y7303D02*
D03*
X6172Y7353D02*
D03*
X6083D02*
D03*
X6020Y7303D02*
D03*
X6236Y7175D02*
D03*
X6172Y7125D02*
D03*
X6083D02*
D03*
X6020Y7175D02*
D03*
X5893Y7303D02*
D03*
X5829Y7353D02*
D03*
X5740D02*
D03*
X5677Y7303D02*
D03*
X5893Y7175D02*
D03*
X5829Y7125D02*
D03*
X5740D02*
D03*
X5677Y7175D02*
D03*
X5207Y6947D02*
D03*
X5258Y7010D02*
D03*
Y7099D02*
D03*
X5207Y7163D02*
D03*
X5080Y6947D02*
D03*
X5029Y7010D02*
D03*
Y7099D02*
D03*
X5080Y7163D02*
D03*
X5207Y7290D02*
D03*
X5258Y7353D02*
D03*
Y7442D02*
D03*
X5207Y7506D02*
D03*
X5080Y7290D02*
D03*
X5029Y7353D02*
D03*
Y7442D02*
D03*
X5080Y7506D02*
D03*
X7506D02*
D03*
X7455Y7442D02*
D03*
Y7353D02*
D03*
X7506Y7290D02*
D03*
X7633Y7506D02*
D03*
X7683Y7442D02*
D03*
Y7353D02*
D03*
X7633Y7290D02*
D03*
X7506Y7163D02*
D03*
X7455Y7099D02*
D03*
Y7010D02*
D03*
X7506Y6947D02*
D03*
X7633Y7163D02*
D03*
X7683Y7099D02*
D03*
Y7010D02*
D03*
X7633Y6947D02*
D03*
X7023Y7303D02*
D03*
X6960Y7353D02*
D03*
X6871D02*
D03*
X6807Y7303D02*
D03*
X7023Y7175D02*
D03*
X6960Y7125D02*
D03*
X6871D02*
D03*
X6807Y7175D02*
D03*
X6464D02*
D03*
X6528Y7125D02*
D03*
X6617D02*
D03*
X6680Y7175D02*
D03*
X6464Y7303D02*
D03*
X6528Y7353D02*
D03*
X6617D02*
D03*
X6680Y7303D02*
D03*
X3543Y4953D02*
D03*
Y4839D02*
D03*
X3556Y3997D02*
D03*
X2702Y4819D02*
D03*
Y4920D02*
D03*
X2695Y3848D02*
D03*
Y3734D02*
D03*
X2710Y4663D02*
D03*
Y4549D02*
D03*
X6845Y5645D02*
D03*
Y5544D02*
D03*
Y5455D02*
D03*
X8383Y4307D02*
D03*
X8319Y4244D02*
D03*
X8381Y4403D02*
D03*
X8293Y4480D02*
D03*
X8231Y4218D02*
D03*
X8142Y4269D02*
D03*
X8129Y4371D02*
D03*
X8180Y4472D02*
D03*
Y5336D02*
D03*
X8129Y5234D02*
D03*
X8142Y5133D02*
D03*
X8231Y5082D02*
D03*
X8293Y5343D02*
D03*
X8381Y5267D02*
D03*
X8319Y5107D02*
D03*
X8383Y5171D02*
D03*
X8745Y6199D02*
D03*
X8834Y6288D02*
D03*
X8745Y6377D02*
D03*
X8656Y6288D02*
D03*
X7767Y6199D02*
D03*
X7856Y6288D02*
D03*
X7767Y6377D02*
D03*
X7678Y6288D02*
D03*
X6452Y6134D02*
D03*
Y6350D02*
D03*
X6528Y6083D02*
D03*
Y6414D02*
D03*
X6617Y6083D02*
D03*
Y6414D02*
D03*
X6693Y6121D02*
D03*
Y6350D02*
D03*
X6960Y6414D02*
D03*
X6871D02*
D03*
X6794Y6134D02*
D03*
X6871Y6083D02*
D03*
X7036Y6121D02*
D03*
Y6350D02*
D03*
X6960Y6083D02*
D03*
X6794Y6350D02*
D03*
X9081Y7671D02*
D03*
X9676Y6282D02*
D03*
X9765Y6371D02*
D03*
X9854Y6282D02*
D03*
X9765Y6193D02*
D03*
X9404Y5165D02*
D03*
X9340Y5101D02*
D03*
X9402Y5261D02*
D03*
X9313Y5337D02*
D03*
X9251Y5076D02*
D03*
X9162Y5127D02*
D03*
X9150Y5228D02*
D03*
X9200Y5330D02*
D03*
Y4466D02*
D03*
X9150Y4365D02*
D03*
X9162Y4263D02*
D03*
X9251Y4212D02*
D03*
X9313Y4474D02*
D03*
X9402Y4397D02*
D03*
X9340Y4238D02*
D03*
X9404Y4301D02*
D03*
X9511Y6282D02*
D03*
X9596Y7202D02*
D03*
X9685Y7291D02*
D03*
X9773Y7202D02*
D03*
X9685Y7113D02*
D03*
X9608Y6262D02*
D03*
X9697Y6351D02*
D03*
X9786Y6262D02*
D03*
X9697Y6173D02*
D03*
X3734Y7696D02*
D03*
X3632D02*
D03*
X3531D02*
D03*
X3063Y5181D02*
D03*
X2999Y5117D02*
D03*
X3061Y5277D02*
D03*
X2972Y5353D02*
D03*
X2910Y5092D02*
D03*
X2821Y5142D02*
D03*
X2809Y5244D02*
D03*
X2859Y5346D02*
D03*
Y4482D02*
D03*
X2809Y4380D02*
D03*
X2821Y4279D02*
D03*
X2910Y4228D02*
D03*
X2972Y4489D02*
D03*
X3061Y4413D02*
D03*
X2999Y4253D02*
D03*
X3063Y4317D02*
D03*
X3213Y6287D02*
D03*
X3302Y6375D02*
D03*
X3391Y6287D02*
D03*
X3302Y6198D02*
D03*
X3200Y7239D02*
D03*
X3289Y7328D02*
D03*
X3378Y7239D02*
D03*
X3289Y7150D02*
D03*
X4318Y7442D02*
D03*
X4254Y7518D02*
D03*
X4039D02*
D03*
X3988Y7442D02*
D03*
Y7353D02*
D03*
X4318D02*
D03*
X4026Y7277D02*
D03*
X4254D02*
D03*
Y6934D02*
D03*
X4318Y7010D02*
D03*
Y7099D02*
D03*
X4039Y7175D02*
D03*
X4254D02*
D03*
X3988Y7099D02*
D03*
Y7010D02*
D03*
X5829Y5696D02*
D03*
Y5594D02*
D03*
Y5493D02*
D03*
X8395Y7429D02*
D03*
Y7341D02*
D03*
X8458Y7264D02*
D03*
Y7506D02*
D03*
X8674Y7264D02*
D03*
X8725Y7341D02*
D03*
X8395Y7087D02*
D03*
Y6998D02*
D03*
X8458Y7163D02*
D03*
X8725Y6998D02*
D03*
Y7087D02*
D03*
X8687Y7163D02*
D03*
D104*
X13970Y3899D02*
D03*
Y12395D02*
D03*
X2845Y12408D02*
D03*
D105*
X5004Y9474D02*
D03*
X11506Y11341D02*
D03*
X10376Y11417D02*
D03*
X11112Y10274D02*
D03*
Y10541D02*
D03*
X10909Y9525D02*
D03*
X8350Y9519D02*
D03*
X10096Y11290D02*
D03*
X11824Y9614D02*
D03*
X10452D02*
D03*
X7734Y11582D02*
D03*
X8915D02*
D03*
X10808Y11595D02*
D03*
X12014D02*
D03*
X8877Y11290D02*
D03*
X7518Y11214D02*
D03*
X8998Y9608D02*
D03*
X7817D02*
D03*
X8312Y10128D02*
D03*
X8788Y11125D02*
D03*
X6909Y9322D02*
D03*
X5004Y11684D02*
D03*
X6668Y9500D02*
D03*
X5944D02*
D03*
X5397D02*
D03*
X7049Y8572D02*
D03*
X6185D02*
D03*
X5385Y8585D02*
D03*
X6604Y8458D02*
D03*
X5817D02*
D03*
X3975Y12087D02*
D03*
X5004Y11506D02*
D03*
X4890Y9474D02*
D03*
X5004Y11252D02*
D03*
Y11379D02*
D03*
X4496Y10236D02*
D03*
Y10363D02*
D03*
X3454Y11951D02*
D03*
X3531Y11900D02*
D03*
M02*
