G04*
G04 #@! TF.GenerationSoftware,Altium Limited,Altium Designer,25.8.1 (18)*
G04*
G04 Layer_Physical_Order=2*
G04 Layer_Color=32768*
%FSLAX42Y42*%
%MOMM*%
G71*
G04*
G04 #@! TF.SameCoordinates,874FC4BF-8C61-49E1-ACD6-6D65B42AE4DE*
G04*
G04*
G04 #@! TF.FilePolarity,Negative*
G04*
G01*
G75*
%ADD106C,1.02*%
%ADD107O,4.02X2.02*%
%ADD108C,5.52*%
%ADD109C,2.62*%
%ADD110C,2.42*%
%ADD111C,1.82*%
%ADD112O,1.62X2.32*%
%ADD113C,1.87*%
%ADD114C,2.01*%
%ADD115C,1.22*%
%ADD116C,2.02*%
%ADD117C,1.73*%
%ADD118C,4.06*%
%ADD119C,1.40*%
D106*
X2492Y3625D02*
G03*
X2599Y3518I107J0D01*
G01*
X14246Y3518D02*
G03*
X14353Y3625I0J107D01*
G01*
X14351Y12664D02*
G03*
X14239Y12776I-112J-0D01*
G01*
X2599Y12776D02*
G03*
X2492Y12669I0J-107D01*
G01*
X2593Y3518D02*
X2599Y3518D01*
X2593Y3518D02*
X14246Y3518D01*
X14351Y12664D02*
X14353Y3625D01*
X2593Y12776D02*
X14239Y12776D01*
X2593Y12776D02*
X2599Y12776D01*
X2492Y3625D02*
Y12669D01*
D107*
X10630Y4395D02*
D03*
D108*
X6871Y4293D02*
D03*
D109*
X6574Y7240D02*
D03*
X6126D02*
D03*
X5786D02*
D03*
X5144Y7056D02*
D03*
Y7396D02*
D03*
X7569Y7389D02*
D03*
Y7049D02*
D03*
X6914Y7240D02*
D03*
X6574Y6248D02*
D03*
X6914D02*
D03*
X4152Y7396D02*
D03*
Y7056D02*
D03*
X5786Y6248D02*
D03*
X6126D02*
D03*
X8561Y7049D02*
D03*
Y7389D02*
D03*
X11443Y3962D02*
D03*
Y4954D02*
D03*
X11783Y3962D02*
D03*
Y4954D02*
D03*
D110*
X8255Y4350D02*
D03*
Y5220D02*
D03*
X2934Y4362D02*
D03*
Y5232D02*
D03*
X3950D02*
D03*
Y4362D02*
D03*
X9271Y5220D02*
D03*
Y4350D02*
D03*
D111*
X8738Y6287D02*
D03*
X7760D02*
D03*
X3299D02*
D03*
X3287Y7252D02*
D03*
X4391Y6274D02*
D03*
X5306D02*
D03*
X9700D02*
D03*
X9687Y7214D02*
D03*
D112*
X3930Y12510D02*
D03*
X3230D02*
D03*
D113*
X3830Y12239D02*
D03*
X3330D02*
D03*
D114*
X7333Y12107D02*
D03*
X7983D02*
D03*
X4872D02*
D03*
X4222D02*
D03*
D115*
X5932Y11185D02*
D03*
X5792D02*
D03*
X6072D02*
D03*
X5792Y11045D02*
D03*
X5932D02*
D03*
X6072D02*
D03*
X5862Y11255D02*
D03*
X6002D02*
D03*
X5862Y10975D02*
D03*
X6002D02*
D03*
D116*
X10008Y12256D02*
D03*
X10258D02*
D03*
X8792D02*
D03*
X9042D02*
D03*
X12475D02*
D03*
X12725D02*
D03*
X11294D02*
D03*
X11544D02*
D03*
D117*
X6121Y6452D02*
D03*
X6248Y6414D02*
D03*
X5994Y6401D02*
D03*
X5867Y6439D02*
D03*
X5728Y6452D02*
D03*
X5613Y6363D02*
D03*
Y6121D02*
D03*
X5982Y6096D02*
D03*
X6236Y6071D02*
D03*
X6109Y6045D02*
D03*
X5855Y6058D02*
D03*
X5728D02*
D03*
X3975Y4559D02*
D03*
X3835Y4521D02*
D03*
X4102Y4470D02*
D03*
X3759Y4381D02*
D03*
X4077Y4229D02*
D03*
X3937Y4178D02*
D03*
X3810Y4242D02*
D03*
Y5105D02*
D03*
X3937Y5042D02*
D03*
X4077Y5093D02*
D03*
X3759Y5245D02*
D03*
X4102Y5334D02*
D03*
X3835Y5385D02*
D03*
X3975Y5423D02*
D03*
X4538Y6276D02*
D03*
X4386Y6428D02*
D03*
X4399Y6124D02*
D03*
X5309Y6121D02*
D03*
X5296Y6426D02*
D03*
X5448Y6274D02*
D03*
X9360Y7681D02*
D03*
X9461D02*
D03*
X10020Y6769D02*
D03*
Y6668D02*
D03*
X10021Y7459D02*
D03*
X10024Y7090D02*
D03*
Y7204D02*
D03*
X10021Y7357D02*
D03*
X9995Y5702D02*
D03*
Y5601D02*
D03*
X8077Y5559D02*
D03*
Y5661D02*
D03*
X8877Y7671D02*
D03*
X8979Y7670D02*
D03*
X8687Y7506D02*
D03*
X8674Y6921D02*
D03*
X8458D02*
D03*
X8687Y6627D02*
D03*
X8572D02*
D03*
X9131Y6794D02*
D03*
Y6693D02*
D03*
X8725Y7429D02*
D03*
X8026Y7351D02*
D03*
Y7249D02*
D03*
X8028Y7097D02*
D03*
Y6982D02*
D03*
X9131Y4877D02*
D03*
Y4966D02*
D03*
X6416Y5435D02*
D03*
Y5550D02*
D03*
X6540Y6627D02*
D03*
X6655D02*
D03*
X7328D02*
D03*
X7442D02*
D03*
X8935Y5906D02*
D03*
Y5791D02*
D03*
X9131Y5817D02*
D03*
Y5918D02*
D03*
X10020Y4851D02*
D03*
Y4953D02*
D03*
X10008Y3988D02*
D03*
Y4089D02*
D03*
X9131Y3988D02*
D03*
Y4089D02*
D03*
X8941Y3988D02*
D03*
Y4089D02*
D03*
Y4839D02*
D03*
Y4940D02*
D03*
X8026Y4851D02*
D03*
Y4953D02*
D03*
Y4013D02*
D03*
Y4115D02*
D03*
X3556Y4089D02*
D03*
X4026Y6934D02*
D03*
X3535Y6483D02*
D03*
Y6368D02*
D03*
X4387Y6816D02*
D03*
X4273D02*
D03*
X4387Y7692D02*
D03*
X4273D02*
D03*
X3324Y7683D02*
D03*
X3210D02*
D03*
X2668Y7389D02*
D03*
Y7288D02*
D03*
Y6462D02*
D03*
Y6361D02*
D03*
X7150Y4089D02*
D03*
X6833Y4026D02*
D03*
X6680Y4013D02*
D03*
X6883Y3950D02*
D03*
X6985Y3962D02*
D03*
X6769D02*
D03*
X6756Y4051D02*
D03*
X7061Y4102D02*
D03*
X6921Y4026D02*
D03*
X6680Y4102D02*
D03*
X7074Y4013D02*
D03*
X6998Y4051D02*
D03*
X7137Y4254D02*
D03*
Y4343D02*
D03*
X6680Y4483D02*
D03*
X7112Y4166D02*
D03*
Y4420D02*
D03*
X6820Y4559D02*
D03*
X6909D02*
D03*
X6744Y4534D02*
D03*
Y4623D02*
D03*
X6985Y4534D02*
D03*
X6858Y4635D02*
D03*
X6972Y4623D02*
D03*
X7061Y4572D02*
D03*
X6655D02*
D03*
X7226Y4252D02*
D03*
Y4331D02*
D03*
X6591Y4496D02*
D03*
X6528Y4305D02*
D03*
X6591Y4102D02*
D03*
X6629Y4178D02*
D03*
X7201D02*
D03*
X6629Y4420D02*
D03*
X6604Y4343D02*
D03*
X7150Y4496D02*
D03*
X6604Y4254D02*
D03*
X7201Y4407D02*
D03*
X7061Y4483D02*
D03*
X6540Y4407D02*
D03*
Y4191D02*
D03*
X5399Y5213D02*
D03*
X6337Y3721D02*
D03*
X5399Y3727D02*
D03*
X7455Y3721D02*
D03*
X6680D02*
D03*
X5993Y3727D02*
D03*
X7023Y3721D02*
D03*
X6782D02*
D03*
X6094Y3727D02*
D03*
X5298D02*
D03*
X6439Y3721D02*
D03*
X5753D02*
D03*
X7125D02*
D03*
X5651D02*
D03*
X7353D02*
D03*
Y5207D02*
D03*
X5651D02*
D03*
X7125D02*
D03*
X5753D02*
D03*
X6439D02*
D03*
X5298Y5213D02*
D03*
X6094D02*
D03*
X6782Y5207D02*
D03*
X7023D02*
D03*
X5993Y5213D02*
D03*
X6680Y5207D02*
D03*
X7455D02*
D03*
X6337D02*
D03*
X7772Y5029D02*
D03*
Y4026D02*
D03*
Y3924D02*
D03*
Y4597D02*
D03*
Y4369D02*
D03*
Y4699D02*
D03*
Y4267D02*
D03*
Y4928D02*
D03*
X4966Y4953D02*
D03*
Y4293D02*
D03*
Y4724D02*
D03*
Y4394D02*
D03*
Y4623D02*
D03*
Y3950D02*
D03*
Y4051D02*
D03*
Y5055D02*
D03*
X6236Y7303D02*
D03*
X6172Y7353D02*
D03*
X6083D02*
D03*
X6020Y7303D02*
D03*
X6236Y7175D02*
D03*
X6172Y7125D02*
D03*
X6083D02*
D03*
X6020Y7175D02*
D03*
X5893Y7303D02*
D03*
X5829Y7353D02*
D03*
X5740D02*
D03*
X5677Y7303D02*
D03*
X5893Y7175D02*
D03*
X5829Y7125D02*
D03*
X5740D02*
D03*
X5677Y7175D02*
D03*
X5207Y6947D02*
D03*
X5258Y7010D02*
D03*
Y7099D02*
D03*
X5207Y7163D02*
D03*
X5080Y6947D02*
D03*
X5029Y7010D02*
D03*
Y7099D02*
D03*
X5080Y7163D02*
D03*
X5207Y7290D02*
D03*
X5258Y7353D02*
D03*
Y7442D02*
D03*
X5207Y7506D02*
D03*
X5080Y7290D02*
D03*
X5029Y7353D02*
D03*
Y7442D02*
D03*
X5080Y7506D02*
D03*
X7506D02*
D03*
X7455Y7442D02*
D03*
Y7353D02*
D03*
X7506Y7290D02*
D03*
X7633Y7506D02*
D03*
X7683Y7442D02*
D03*
Y7353D02*
D03*
X7633Y7290D02*
D03*
X7506Y7163D02*
D03*
X7455Y7099D02*
D03*
Y7010D02*
D03*
X7506Y6947D02*
D03*
X7633Y7163D02*
D03*
X7683Y7099D02*
D03*
Y7010D02*
D03*
X7633Y6947D02*
D03*
X7023Y7303D02*
D03*
X6960Y7353D02*
D03*
X6871D02*
D03*
X6807Y7303D02*
D03*
X7023Y7175D02*
D03*
X6960Y7125D02*
D03*
X6871D02*
D03*
X6807Y7175D02*
D03*
X6464D02*
D03*
X6528Y7125D02*
D03*
X6617D02*
D03*
X6680Y7175D02*
D03*
X6464Y7303D02*
D03*
X6528Y7353D02*
D03*
X6617D02*
D03*
X6680Y7303D02*
D03*
X3543Y4953D02*
D03*
Y4839D02*
D03*
X3556Y3997D02*
D03*
X2702Y4819D02*
D03*
Y4920D02*
D03*
X6845Y5645D02*
D03*
Y5544D02*
D03*
Y5455D02*
D03*
X8383Y4307D02*
D03*
X8319Y4244D02*
D03*
X8381Y4403D02*
D03*
X8293Y4480D02*
D03*
X8231Y4218D02*
D03*
X8142Y4269D02*
D03*
X8129Y4371D02*
D03*
X8180Y4472D02*
D03*
Y5336D02*
D03*
X8129Y5234D02*
D03*
X8142Y5133D02*
D03*
X8231Y5082D02*
D03*
X8293Y5343D02*
D03*
X8381Y5267D02*
D03*
X8319Y5107D02*
D03*
X8383Y5171D02*
D03*
X8745Y6199D02*
D03*
X8834Y6288D02*
D03*
X8745Y6377D02*
D03*
X8656Y6288D02*
D03*
X7767Y6199D02*
D03*
X7856Y6288D02*
D03*
X7767Y6377D02*
D03*
X7678Y6288D02*
D03*
X6452Y6134D02*
D03*
Y6350D02*
D03*
X6528Y6083D02*
D03*
Y6414D02*
D03*
X6617Y6083D02*
D03*
Y6414D02*
D03*
X6693Y6121D02*
D03*
Y6350D02*
D03*
X6960Y6414D02*
D03*
X6871D02*
D03*
X6794Y6134D02*
D03*
X6871Y6083D02*
D03*
X7036Y6121D02*
D03*
Y6350D02*
D03*
X6960Y6083D02*
D03*
X6794Y6350D02*
D03*
X9081Y7671D02*
D03*
X9676Y6282D02*
D03*
X9765Y6371D02*
D03*
X9854Y6282D02*
D03*
X9765Y6193D02*
D03*
X9404Y5165D02*
D03*
X9340Y5101D02*
D03*
X9402Y5261D02*
D03*
X9313Y5337D02*
D03*
X9251Y5076D02*
D03*
X9162Y5127D02*
D03*
X9150Y5228D02*
D03*
X9200Y5330D02*
D03*
Y4466D02*
D03*
X9150Y4365D02*
D03*
X9162Y4263D02*
D03*
X9251Y4212D02*
D03*
X9313Y4474D02*
D03*
X9402Y4397D02*
D03*
X9340Y4238D02*
D03*
X9404Y4301D02*
D03*
X9511Y6282D02*
D03*
X9596Y7202D02*
D03*
X9685Y7291D02*
D03*
X9773Y7202D02*
D03*
X9685Y7113D02*
D03*
X9608Y6262D02*
D03*
X9697Y6351D02*
D03*
X9786Y6262D02*
D03*
X9697Y6173D02*
D03*
X3734Y7696D02*
D03*
X3632D02*
D03*
X3531D02*
D03*
X3063Y5181D02*
D03*
X2999Y5117D02*
D03*
X3061Y5277D02*
D03*
X2972Y5353D02*
D03*
X2910Y5092D02*
D03*
X2821Y5142D02*
D03*
X2809Y5244D02*
D03*
X2859Y5346D02*
D03*
Y4482D02*
D03*
X2809Y4380D02*
D03*
X2821Y4279D02*
D03*
X2910Y4228D02*
D03*
X2972Y4489D02*
D03*
X3061Y4413D02*
D03*
X2999Y4253D02*
D03*
X3063Y4317D02*
D03*
X3213Y6287D02*
D03*
X3302Y6375D02*
D03*
X3391Y6287D02*
D03*
X3302Y6198D02*
D03*
X3200Y7239D02*
D03*
X3289Y7328D02*
D03*
X3378Y7239D02*
D03*
X3289Y7150D02*
D03*
X4318Y7442D02*
D03*
X4254Y7518D02*
D03*
X4039D02*
D03*
X3988Y7442D02*
D03*
Y7353D02*
D03*
X4318D02*
D03*
X4026Y7277D02*
D03*
X4254D02*
D03*
Y6934D02*
D03*
X4318Y7010D02*
D03*
Y7099D02*
D03*
X4039Y7175D02*
D03*
X4254D02*
D03*
X3988Y7099D02*
D03*
Y7010D02*
D03*
X5829Y5696D02*
D03*
Y5594D02*
D03*
Y5493D02*
D03*
X8395Y7429D02*
D03*
Y7341D02*
D03*
X8458Y7264D02*
D03*
Y7506D02*
D03*
X8674Y7264D02*
D03*
X8725Y7341D02*
D03*
X8395Y7087D02*
D03*
Y6998D02*
D03*
X8458Y7163D02*
D03*
X8725Y6998D02*
D03*
Y7087D02*
D03*
X8687Y7163D02*
D03*
D118*
X13970Y3899D02*
D03*
D119*
X5004Y9474D02*
D03*
X11506Y11341D02*
D03*
X10376Y11417D02*
D03*
X11112Y10274D02*
D03*
Y10541D02*
D03*
X10909Y9525D02*
D03*
X8350Y9519D02*
D03*
X10096Y11290D02*
D03*
X11824Y9614D02*
D03*
X10452D02*
D03*
X7734Y11582D02*
D03*
X8915D02*
D03*
X10808Y11595D02*
D03*
X12014D02*
D03*
X8877Y11290D02*
D03*
X7518Y11214D02*
D03*
X8998Y9608D02*
D03*
X7817D02*
D03*
X8312Y10128D02*
D03*
X8788Y11125D02*
D03*
X6909Y9322D02*
D03*
X5004Y11684D02*
D03*
X6668Y9500D02*
D03*
X5944D02*
D03*
X5397D02*
D03*
X7049Y8572D02*
D03*
X6185D02*
D03*
X5385Y8585D02*
D03*
X6604Y8458D02*
D03*
X5817D02*
D03*
X3975Y12087D02*
D03*
X5004Y11506D02*
D03*
X4890Y9474D02*
D03*
X5004Y11252D02*
D03*
Y11379D02*
D03*
X4496Y10236D02*
D03*
Y10363D02*
D03*
X3454Y11951D02*
D03*
X3531Y11900D02*
D03*
M02*
