G04*
G04 #@! TF.GenerationSoftware,Altium Limited,Altium Designer,25.8.1 (18)*
G04*
G04 Layer_Color=65535*
%FSLAX42Y42*%
%MOMM*%
G71*
G04*
G04 #@! TF.SameCoordinates,874FC4BF-8C61-49E1-ACD6-6D65B42AE4DE*
G04*
G04*
G04 #@! TF.FilePolarity,Positive*
G04*
G01*
G75*
%ADD10C,0.25*%
%ADD11C,0.20*%
%ADD12C,0.15*%
%ADD13C,0.13*%
%ADD14C,0.15*%
%ADD15C,0.40*%
%ADD16C,0.25*%
G36*
X4565Y9207D02*
Y9182D01*
X4527D01*
Y9207D01*
X4565D01*
D02*
G37*
D10*
X12527Y7303D02*
G03*
X12527Y7303I-12J0D01*
G01*
X10105Y6883D02*
G03*
X10105Y6883I-12J0D01*
G01*
X6929Y7604D02*
G03*
X6929Y7604I-12J0D01*
G01*
X6141D02*
G03*
X6141Y7604I-12J0D01*
G01*
X7218Y7391D02*
G03*
X7218Y7391I-12J0D01*
G01*
X5521Y7054D02*
G03*
X5521Y7054I-12J0D01*
G01*
X6406Y9241D02*
G03*
X6406Y9241I-12J0D01*
G01*
X5637Y9241D02*
G03*
X5637Y9241I-12J0D01*
G01*
X3722Y12117D02*
G03*
X3722Y12117I-12J0D01*
G01*
X4006Y11770D02*
G03*
X4006Y11770I-12J0D01*
G01*
X7092Y8764D02*
G03*
X7092Y8764I-12J0D01*
G01*
X11798Y5318D02*
G03*
X11798Y5318I-12J0D01*
G01*
X11533Y6710D02*
G03*
X11533Y6710I-12J0D01*
G01*
D11*
X11407Y7333D02*
G03*
X11232Y7508I-175J0D01*
G01*
X6806Y5556D02*
G03*
X6806Y5556I-10J0D01*
G01*
X2944Y5517D02*
G03*
X2944Y5517I-10J0D01*
G01*
X8265Y5505D02*
G03*
X8265Y5505I-10J0D01*
G01*
X3629Y7609D02*
G03*
X3629Y7609I-10J0D01*
G01*
X5901Y5582D02*
G03*
X5901Y5582I-10J0D01*
G01*
X8989Y7595D02*
G03*
X8989Y7595I-10J0D01*
G01*
X5072Y11887D02*
G03*
X5072Y11887I-10J0D01*
G01*
X11618Y11192D02*
G03*
X11618Y11192I-10J0D01*
G01*
X10412D02*
G03*
X10412Y11192I-10J0D01*
G01*
X8913Y11207D02*
G03*
X8913Y11207I-10J0D01*
G01*
X7730Y11219D02*
G03*
X7730Y11219I-10J0D01*
G01*
X12218Y10025D02*
G03*
X12218Y10025I-10J0D01*
G01*
X10910Y10012D02*
G03*
X10910Y10012I-10J0D01*
G01*
X9411D02*
G03*
X9411Y10012I-10J0D01*
G01*
X8218Y10025D02*
G03*
X8218Y10025I-10J0D01*
G01*
X10843Y12256D02*
G03*
X10843Y12256I-10J0D01*
G01*
X9627D02*
G03*
X9627Y12256I-10J0D01*
G01*
X13310D02*
G03*
X13310Y12256I-10J0D01*
G01*
X12129D02*
G03*
X12129Y12256I-10J0D01*
G01*
X5001Y12107D02*
G03*
X5001Y12107I-10J0D01*
G01*
X7224Y12557D02*
G03*
X7224Y12557I-10J0D01*
G01*
X10180Y5015D02*
X10338Y5015D01*
X10180Y3645D02*
Y5015D01*
Y3645D02*
X11080D01*
Y4915D02*
Y5015D01*
Y3645D02*
Y4475D01*
X10922Y5015D02*
X11080Y5015D01*
X11620Y7533D02*
Y7594D01*
X12306Y7533D02*
Y7594D01*
X11620D02*
X12306D01*
Y7011D02*
Y7072D01*
X11620Y7011D02*
Y7072D01*
Y7011D02*
X12306D01*
X11407Y7188D02*
Y7333D01*
X11407Y6519D02*
Y6578D01*
X10157Y7188D02*
Y7248D01*
X10157Y6451D02*
Y6578D01*
X11095Y6258D02*
X11407Y6519D01*
X10157Y7248D02*
X10470Y7508D01*
X11245D01*
X10350Y6258D02*
X11095D01*
X10157Y6451D02*
X10350Y6258D01*
X7227Y6072D02*
Y6501D01*
X8205Y6072D02*
Y6501D01*
X2816Y5749D02*
X2831D01*
X2816Y5604D02*
X2831D01*
X4773Y6059D02*
Y6489D01*
X2754Y7037D02*
Y7467D01*
X3859Y6059D02*
Y6489D01*
X2767Y6072D02*
Y6501D01*
X9168Y6059D02*
Y6489D01*
X9155Y6999D02*
Y7429D01*
X6401Y7550D02*
X7087D01*
X6401Y5937D02*
Y7550D01*
Y5937D02*
X7087D01*
Y7550D01*
X5613D02*
X6299D01*
X5613Y5937D02*
Y7550D01*
Y5937D02*
X6299D01*
Y7550D01*
X4768Y5554D02*
X4783D01*
X4768Y5699D02*
X4783D01*
X10102Y5724D02*
X10117D01*
X10102Y5579D02*
X10117D01*
X7968Y5686D02*
X7983D01*
X7968Y5541D02*
X7983D01*
X7259Y6875D02*
Y7561D01*
Y6875D02*
X8872D01*
Y7561D01*
X7259D02*
X8872D01*
X5455Y6883D02*
Y7569D01*
X3842D02*
X5455D01*
X3842Y6883D02*
Y7569D01*
Y6883D02*
X5455D01*
X11193Y8403D02*
Y8411D01*
Y7871D02*
Y7878D01*
Y7871D02*
X11803D01*
Y8403D02*
Y8411D01*
Y7871D02*
Y7878D01*
X11193Y8411D02*
X11803D01*
X11189Y9064D02*
Y9071D01*
Y8531D02*
Y8539D01*
Y8531D02*
X11799D01*
Y9064D02*
Y9071D01*
Y8531D02*
Y8539D01*
X11189Y9071D02*
X11799D01*
X8064Y10653D02*
X8345D01*
X8064Y10839D02*
X8345D01*
X6441Y8901D02*
Y9006D01*
X6146Y8901D02*
X6441D01*
X6146D02*
Y9006D01*
X6441D01*
X5672Y8901D02*
Y9006D01*
X5377Y8901D02*
X5672D01*
X5377D02*
Y9006D01*
X5672D01*
X5757Y8730D02*
Y8745D01*
X5902Y8730D02*
Y8745D01*
X4514Y9740D02*
X4528D01*
X4514Y9615D02*
X4528D01*
X4514Y9981D02*
X4528D01*
X4514Y9856D02*
X4528D01*
X4514Y8983D02*
X4529D01*
X4514Y9128D02*
X4529D01*
X4187Y9381D02*
Y9396D01*
X4042Y9381D02*
Y9396D01*
X3205Y12724D02*
X3954D01*
X3205Y12643D02*
Y12725D01*
Y12254D02*
Y12376D01*
Y12254D02*
X3218D01*
X3941Y12255D02*
X3954D01*
Y12376D01*
X3954Y12643D02*
Y12724D01*
X4478Y10555D02*
X4548D01*
X4478Y10705D02*
X4548D01*
X4508Y10783D02*
X4522D01*
X4508Y10908D02*
X4522D01*
X3724Y11335D02*
Y11615D01*
X4074Y11335D02*
Y11615D01*
X11925Y10824D02*
X12205D01*
X11925Y10639D02*
X12205D01*
X10727Y10824D02*
X11008D01*
X10727Y10639D02*
X11008D01*
X5757Y9204D02*
Y9219D01*
X5902Y9204D02*
Y9219D01*
X12343Y11048D02*
Y11193D01*
X12168Y11048D02*
Y11193D01*
X11149Y11048D02*
Y11193D01*
X10974Y11048D02*
Y11193D01*
X11845Y11477D02*
X11860D01*
X11845Y11332D02*
X11860D01*
X10635Y11477D02*
X10650D01*
X10635Y11332D02*
X10650D01*
X9203Y10839D02*
X9484D01*
X9203Y10653D02*
X9484D01*
X6664Y8730D02*
Y8745D01*
X6519Y8730D02*
Y8745D01*
Y9213D02*
Y9228D01*
X6664Y9213D02*
Y9228D01*
X9638Y11075D02*
Y11220D01*
X9463Y11075D02*
Y11220D01*
X8495Y11042D02*
Y11187D01*
X8320Y11042D02*
Y11187D01*
X9136Y11347D02*
X9151D01*
X9136Y11492D02*
X9151D01*
X7968Y11359D02*
X7983D01*
X7968Y11504D02*
X7983D01*
X7022Y8969D02*
X7327D01*
Y9039D01*
X7022D02*
X7327D01*
X7022Y8969D02*
Y9039D01*
X7295Y9287D02*
X7310D01*
X7295Y9432D02*
X7310D01*
X11969Y9753D02*
X11984D01*
X11969Y9898D02*
X11984D01*
X10661Y9740D02*
X10676D01*
X10661Y9885D02*
X10676D01*
X9166Y9740D02*
X9181D01*
X9166Y9885D02*
X9181D01*
X7959Y9753D02*
X7974D01*
X7959Y9898D02*
X7974D01*
X4763Y11683D02*
Y11697D01*
X4888Y11683D02*
Y11697D01*
X4508Y11012D02*
X4522D01*
X4508Y11137D02*
X4522D01*
X4525Y11689D02*
Y11704D01*
X4670Y11689D02*
Y11704D01*
X4284Y11689D02*
Y11704D01*
X4429Y11689D02*
Y11704D01*
X4487Y11211D02*
X4557D01*
X4487Y11361D02*
X4557D01*
X11270Y5265D02*
X11956D01*
X11270Y3652D02*
Y5265D01*
Y3652D02*
X11956D01*
Y5265D01*
X11495Y7662D02*
X11510D01*
X11495Y7807D02*
X11510D01*
X13324Y6181D02*
X13339D01*
X13324Y6036D02*
X13339D01*
X13843Y6283D02*
Y6291D01*
Y6816D02*
Y6823D01*
X13233D02*
X13843D01*
X13233Y6283D02*
Y6291D01*
Y6816D02*
Y6823D01*
Y6283D02*
X13843D01*
X13699Y7544D02*
X13707D01*
X13167D02*
X13174D01*
X13167Y6934D02*
Y7544D01*
X13699Y6934D02*
X13707D01*
X13167D02*
X13174D01*
X13707D02*
Y7544D01*
X13090D02*
X13097D01*
X12557D02*
X12564D01*
X12557Y6934D02*
Y7544D01*
X13090Y6934D02*
X13097D01*
X12557D02*
X12564D01*
X13097D02*
Y7544D01*
X11713Y6763D02*
Y6770D01*
Y6260D02*
Y6268D01*
X12146Y6260D02*
X12163D01*
X11713D02*
X11731D01*
X12163Y6763D02*
Y6770D01*
Y6260D02*
Y6268D01*
X12146Y6770D02*
X12163D01*
X11713D02*
X11731D01*
X12526Y5938D02*
X12772D01*
X12526Y5719D02*
X12772D01*
X11218Y6000D02*
Y6015D01*
X11363Y6000D02*
Y6015D01*
X12509Y6429D02*
X12790D01*
X12509Y6244D02*
X12790D01*
X12327Y5896D02*
Y6142D01*
X12107Y5896D02*
Y6142D01*
D12*
X8010Y6287D02*
G03*
X8010Y6287I-425J0D01*
G01*
X8988D02*
G03*
X8988Y6287I-425J0D01*
G01*
X5556Y6274D02*
G03*
X5556Y6274I-425J0D01*
G01*
X3537Y7252D02*
G03*
X3537Y7252I-425J0D01*
G01*
X4641Y6274D02*
G03*
X4641Y6274I-425J0D01*
G01*
X3549Y6287D02*
G03*
X3549Y6287I-425J0D01*
G01*
X9950Y6274D02*
G03*
X9950Y6274I-425J0D01*
G01*
X9937Y7214D02*
G03*
X9937Y7214I-425J0D01*
G01*
D13*
X4722Y12332D02*
G03*
X4722Y12332I-175J0D01*
G01*
X7834D02*
G03*
X7834Y12332I-175J0D01*
G01*
X7213Y3997D02*
X7428D01*
Y4712D01*
X5348Y3997D02*
Y4712D01*
Y3997D02*
X5563D01*
X6128D02*
X6648D01*
X12639Y6188D02*
X12675D01*
X12639Y6044D02*
X12675D01*
X6961Y5695D02*
Y5701D01*
Y5411D02*
Y5418D01*
X7491Y5695D02*
Y5701D01*
Y5411D02*
Y5418D01*
X6961Y5701D02*
X7491D01*
X6961Y5411D02*
X7491D01*
X2640Y3657D02*
Y5457D01*
X4752D01*
Y3657D02*
Y5457D01*
X2640Y3657D02*
X4752D01*
X7961Y3645D02*
Y5445D01*
X10073D01*
Y3645D02*
Y5445D01*
X7961Y3645D02*
X10073D01*
X3474Y7774D02*
X3481D01*
X3758D02*
X3765D01*
X3474Y8304D02*
X3481D01*
X3758D02*
X3765D01*
X3474Y7774D02*
Y8304D01*
X3765Y7774D02*
Y8304D01*
X5726Y5437D02*
Y5443D01*
Y5720D02*
Y5727D01*
X5196Y5437D02*
Y5443D01*
Y5720D02*
Y5727D01*
Y5437D02*
X5726D01*
X5196Y5727D02*
X5726D01*
X8834Y7760D02*
X8840D01*
X9117D02*
X9124D01*
X8834Y8290D02*
X8840D01*
X9117D02*
X9124D01*
X8834Y7760D02*
Y8290D01*
X9124Y7760D02*
Y8290D01*
X5182Y12636D02*
X6982D01*
Y11964D02*
Y12636D01*
X5182Y11964D02*
Y12636D01*
Y10086D02*
Y10159D01*
Y10086D02*
X5306D01*
X6982D02*
Y10159D01*
X6857Y10086D02*
X6982D01*
X11816Y10942D02*
X11882D01*
X11929Y11054D02*
Y11121D01*
X11816Y11232D02*
X11882D01*
X10610Y10942D02*
X10676D01*
X10723Y11054D02*
Y11121D01*
X10610Y11232D02*
X10676D01*
X9111Y10957D02*
X9177D01*
X9224Y11068D02*
Y11135D01*
X9111Y11247D02*
X9177D01*
X7928Y10969D02*
X7994D01*
X8041Y11081D02*
Y11148D01*
X7928Y11259D02*
X7994D01*
X11934Y10275D02*
X12000D01*
X11887Y10096D02*
Y10164D01*
X11934Y9985D02*
X12000D01*
X10626Y10262D02*
X10692D01*
X10579Y10084D02*
Y10151D01*
X10626Y9972D02*
X10692D01*
X9128Y10262D02*
X9193D01*
X9081Y10084D02*
Y10151D01*
X9128Y9972D02*
X9193D01*
X7934Y10275D02*
X8000D01*
X7887Y10096D02*
Y10164D01*
X7934Y9985D02*
X8000D01*
X9763Y12596D02*
X10753D01*
Y12021D02*
Y12596D01*
X9763Y12021D02*
X10753D01*
X9763D02*
Y12596D01*
X8547D02*
X9537D01*
Y12021D02*
Y12596D01*
X8547Y12021D02*
X9537D01*
X8547D02*
Y12596D01*
X12230D02*
X13220D01*
Y12021D02*
Y12596D01*
X12230Y12021D02*
X13220D01*
X12230D02*
Y12596D01*
X11049D02*
X12039D01*
Y12021D02*
Y12596D01*
X11049Y12021D02*
X12039D01*
X11049D02*
Y12596D01*
X4846Y12217D02*
Y12447D01*
X4317Y12631D02*
X4777D01*
X4247Y12217D02*
Y12447D01*
X4317Y12032D02*
X4767D01*
X7359Y12217D02*
Y12447D01*
X7428Y12032D02*
X7888D01*
X7958Y12217D02*
Y12447D01*
X7438Y12631D02*
X7888D01*
D14*
X4653Y9464D02*
Y9535D01*
X4633Y9210D02*
X4653D01*
X4389D02*
Y9281D01*
Y9535D02*
X4409D01*
X4633D02*
X4653D01*
Y9210D02*
Y9281D01*
X4389Y9210D02*
X4409D01*
X4389Y9464D02*
Y9535D01*
D15*
X4758Y10555D02*
Y10705D01*
X4277Y11211D02*
Y11361D01*
D16*
X3200Y12929D02*
Y12827D01*
X3251Y12776D01*
X3302Y12827D01*
Y12929D01*
X3353D02*
X3404D01*
X3378D01*
Y12776D01*
X3353D01*
X3404D01*
X3480D02*
Y12929D01*
X3581Y12776D01*
Y12929D01*
X5067Y12893D02*
Y12766D01*
X5093Y12741D01*
X5143D01*
X5169Y12766D01*
Y12893D01*
X5220Y12741D02*
X5270D01*
X5245D01*
Y12893D01*
X5220Y12868D01*
X4122Y12758D02*
Y12911D01*
X4199D01*
X4224Y12885D01*
Y12835D01*
X4199Y12809D01*
X4122D01*
X4173D02*
X4224Y12758D01*
X4351D02*
X4300D01*
X4275Y12784D01*
Y12835D01*
X4300Y12860D01*
X4351D01*
X4376Y12835D01*
Y12809D01*
X4275D01*
X4427Y12758D02*
X4503D01*
X4529Y12784D01*
X4503Y12809D01*
X4453D01*
X4427Y12835D01*
X4453Y12860D01*
X4529D01*
X4656Y12758D02*
X4605D01*
X4579Y12784D01*
Y12835D01*
X4605Y12860D01*
X4656D01*
X4681Y12835D01*
Y12809D01*
X4579D01*
X4757Y12885D02*
Y12860D01*
X4732D01*
X4783D01*
X4757D01*
Y12784D01*
X4783Y12758D01*
X4859D02*
X4910D01*
X4884D01*
Y12911D01*
X4859Y12885D01*
X10297Y5354D02*
X10246D01*
X10272D01*
Y5227D01*
X10246Y5202D01*
X10221D01*
X10196Y5227D01*
X10348Y5329D02*
X10373Y5354D01*
X10424D01*
X10449Y5329D01*
Y5303D01*
X10424Y5278D01*
X10449Y5253D01*
Y5227D01*
X10424Y5202D01*
X10373D01*
X10348Y5227D01*
Y5253D01*
X10373Y5278D01*
X10348Y5303D01*
Y5329D01*
X10373Y5278D02*
X10424D01*
X12329Y12852D02*
X12278D01*
X12304D01*
Y12725D01*
X12278Y12700D01*
X12253D01*
X12228Y12725D01*
X12456Y12700D02*
Y12852D01*
X12380Y12776D01*
X12481D01*
X11148Y12852D02*
X11097D01*
X11123D01*
Y12725D01*
X11097Y12700D01*
X11072D01*
X11046Y12725D01*
X11199Y12827D02*
X11224Y12852D01*
X11275D01*
X11300Y12827D01*
Y12802D01*
X11275Y12776D01*
X11250D01*
X11275D01*
X11300Y12751D01*
Y12725D01*
X11275Y12700D01*
X11224D01*
X11199Y12725D01*
X9863Y12852D02*
X9812D01*
X9837D01*
Y12725D01*
X9812Y12700D01*
X9787D01*
X9761Y12725D01*
X10015Y12700D02*
X9914D01*
X10015Y12802D01*
Y12827D01*
X9990Y12852D01*
X9939D01*
X9914Y12827D01*
X8646Y12852D02*
X8595D01*
X8621D01*
Y12725D01*
X8595Y12700D01*
X8570D01*
X8545Y12725D01*
X8697Y12700D02*
X8748D01*
X8722D01*
Y12852D01*
X8697Y12827D01*
X8824Y8611D02*
Y8458D01*
X8900D01*
X8926Y8484D01*
Y8585D01*
X8900Y8611D01*
X8824D01*
X8976Y8585D02*
X9002Y8611D01*
X9052D01*
X9078Y8585D01*
Y8560D01*
X9052Y8534D01*
X9027D01*
X9052D01*
X9078Y8509D01*
Y8484D01*
X9052Y8458D01*
X9002D01*
X8976Y8484D01*
X10066Y5969D02*
X10041Y5994D01*
X9990D01*
X9964Y5969D01*
Y5867D01*
X9990Y5842D01*
X10041D01*
X10066Y5867D01*
X10117Y5969D02*
X10142Y5994D01*
X10193D01*
X10218Y5969D01*
Y5944D01*
X10193Y5918D01*
X10168D01*
X10193D01*
X10218Y5893D01*
Y5867D01*
X10193Y5842D01*
X10142D01*
X10117Y5867D01*
X10371Y5842D02*
X10269D01*
X10371Y5944D01*
Y5969D01*
X10345Y5994D01*
X10295D01*
X10269Y5969D01*
X9207Y6921D02*
X9182Y6947D01*
X9131D01*
X9106Y6921D01*
Y6820D01*
X9131Y6794D01*
X9182D01*
X9207Y6820D01*
X9258Y6921D02*
X9284Y6947D01*
X9334D01*
X9360Y6921D01*
Y6896D01*
X9334Y6871D01*
X9309D01*
X9334D01*
X9360Y6845D01*
Y6820D01*
X9334Y6794D01*
X9284D01*
X9258Y6820D01*
X9411Y6794D02*
X9461D01*
X9436D01*
Y6947D01*
X9411Y6921D01*
X9195Y7861D02*
X9169Y7887D01*
X9119D01*
X9093Y7861D01*
Y7760D01*
X9119Y7734D01*
X9169D01*
X9195Y7760D01*
X9246Y7861D02*
X9271Y7887D01*
X9322D01*
X9347Y7861D01*
Y7836D01*
X9322Y7810D01*
X9296D01*
X9322D01*
X9347Y7785D01*
Y7760D01*
X9322Y7734D01*
X9271D01*
X9246Y7760D01*
X9398Y7861D02*
X9423Y7887D01*
X9474D01*
X9499Y7861D01*
Y7760D01*
X9474Y7734D01*
X9423D01*
X9398Y7760D01*
Y7861D01*
X7219Y12911D02*
Y12758D01*
X7295D01*
X7320Y12784D01*
Y12809D01*
X7295Y12835D01*
X7219D01*
X7295D01*
X7320Y12860D01*
Y12885D01*
X7295Y12911D01*
X7219D01*
X7396Y12758D02*
X7447D01*
X7473Y12784D01*
Y12835D01*
X7447Y12860D01*
X7396D01*
X7371Y12835D01*
Y12784D01*
X7396Y12758D01*
X7549D02*
X7600D01*
X7625Y12784D01*
Y12835D01*
X7600Y12860D01*
X7549D01*
X7523Y12835D01*
Y12784D01*
X7549Y12758D01*
X7701Y12885D02*
Y12860D01*
X7676D01*
X7727D01*
X7701D01*
Y12784D01*
X7727Y12758D01*
X7803D02*
X7853D01*
X7828D01*
Y12911D01*
X7803Y12885D01*
M02*
