G04*
G04 #@! TF.GenerationSoftware,Altium Limited,Altium Designer,25.8.1 (18)*
G04*
G04 Layer_Physical_Order=2*
G04 Layer_Color=32768*
%FSLAX25Y25*%
%MOIN*%
G70*
G04*
G04 #@! TF.SameCoordinates,5F6CD9CC-33C6-4A7B-A0D4-F81A13939800*
G04*
G04*
G04 #@! TF.FilePolarity,Negative*
G04*
G01*
G75*
%ADD123C,0.04000*%
%ADD124C,0.26441*%
%ADD125C,0.10299*%
%ADD126C,0.09512*%
%ADD127C,0.08213*%
%ADD128O,0.17779X0.07937*%
%ADD129C,0.07937*%
%ADD130C,0.05181*%
%ADD131C,0.07898*%
%ADD132C,0.07347*%
%ADD133O,0.09118X0.06362*%
%ADD134C,0.05500*%
%ADD135C,0.16000*%
D123*
X-1118Y2698D02*
G03*
X2698Y-1118I3816J0D01*
G01*
X478703Y-1119D02*
G03*
X482205Y2383I0J3502D01*
G01*
X482205Y228382D02*
G03*
X476655Y233910I-5298J230D01*
G01*
X2937Y233882D02*
G03*
X-1295Y229650I0J-4232D01*
G01*
X2698Y-1118D02*
X2705Y-1118D01*
X478703Y-1119D01*
X482205Y2383D02*
X482205Y228382D01*
X476655Y233910D02*
X476655Y233882D01*
X2703Y233882D02*
X476655Y233882D01*
X2703Y233882D02*
X2937Y233882D01*
X-1295Y229650D02*
X-1118Y2698D01*
D124*
X240000Y46000D02*
D03*
D125*
X312678Y21190D02*
D03*
Y34575D02*
D03*
X167705Y49882D02*
D03*
Y63268D02*
D03*
X312678Y50190D02*
D03*
Y63575D02*
D03*
X167733Y21190D02*
D03*
Y34575D02*
D03*
X351733Y63575D02*
D03*
Y50190D02*
D03*
X128650Y49882D02*
D03*
Y63268D02*
D03*
X128677Y34575D02*
D03*
Y21190D02*
D03*
X351733D02*
D03*
Y34575D02*
D03*
D126*
X426205Y49382D02*
D03*
X391953D02*
D03*
X426205Y9382D02*
D03*
X391953D02*
D03*
X88205Y29382D02*
D03*
X53953D02*
D03*
X88205Y69382D02*
D03*
X53953D02*
D03*
D127*
X185705Y215882D02*
D03*
X199205D02*
D03*
Y225882D02*
D03*
X185705D02*
D03*
D128*
X377890Y173784D02*
D03*
D129*
X257520Y217882D02*
D03*
X267363D02*
D03*
X339662Y221256D02*
D03*
Y211414D02*
D03*
X216520Y217882D02*
D03*
X226363D02*
D03*
X308205Y217815D02*
D03*
X298363D02*
D03*
D130*
X99504Y165477D02*
D03*
X93993D02*
D03*
X99504Y176500D02*
D03*
X93993D02*
D03*
X102260Y168233D02*
D03*
X96748D02*
D03*
X91237D02*
D03*
X102260Y173745D02*
D03*
X91237D02*
D03*
X96748D02*
D03*
D131*
X29410Y210024D02*
D03*
X55000D02*
D03*
X174500D02*
D03*
X148910D02*
D03*
D132*
X17020Y135540D02*
D03*
Y155225D02*
D03*
D133*
X6390Y131603D02*
D03*
Y159162D02*
D03*
D134*
X328268Y65626D02*
D03*
Y57752D02*
D03*
Y49878D02*
D03*
Y42004D02*
D03*
Y34130D02*
D03*
Y26256D02*
D03*
Y18382D02*
D03*
Y10508D02*
D03*
Y2634D02*
D03*
X320394Y65626D02*
D03*
Y57752D02*
D03*
Y49878D02*
D03*
Y42004D02*
D03*
Y34130D02*
D03*
Y26256D02*
D03*
Y18382D02*
D03*
Y10508D02*
D03*
Y2634D02*
D03*
X312520Y42004D02*
D03*
Y10508D02*
D03*
Y2634D02*
D03*
X304646Y65626D02*
D03*
Y57752D02*
D03*
Y49878D02*
D03*
Y42004D02*
D03*
Y34130D02*
D03*
Y26256D02*
D03*
Y18382D02*
D03*
Y10508D02*
D03*
Y2634D02*
D03*
X296772Y65626D02*
D03*
Y57752D02*
D03*
Y49878D02*
D03*
Y42004D02*
D03*
Y34130D02*
D03*
Y26256D02*
D03*
Y18382D02*
D03*
Y10508D02*
D03*
Y2634D02*
D03*
X288897Y65626D02*
D03*
Y57752D02*
D03*
Y49878D02*
D03*
Y42004D02*
D03*
Y34130D02*
D03*
Y26256D02*
D03*
Y18382D02*
D03*
Y10508D02*
D03*
Y2634D02*
D03*
X281024Y65626D02*
D03*
Y57752D02*
D03*
Y49878D02*
D03*
Y42004D02*
D03*
Y34130D02*
D03*
Y26256D02*
D03*
Y18382D02*
D03*
Y10508D02*
D03*
Y2634D02*
D03*
X273149Y65626D02*
D03*
Y57752D02*
D03*
Y49878D02*
D03*
Y42004D02*
D03*
Y34130D02*
D03*
Y26256D02*
D03*
Y18382D02*
D03*
Y10508D02*
D03*
Y2634D02*
D03*
X265276Y65626D02*
D03*
Y57752D02*
D03*
Y49878D02*
D03*
Y42004D02*
D03*
Y34130D02*
D03*
Y26256D02*
D03*
Y18382D02*
D03*
Y10508D02*
D03*
Y2634D02*
D03*
X257401Y65626D02*
D03*
Y57752D02*
D03*
Y49878D02*
D03*
Y42004D02*
D03*
Y34130D02*
D03*
Y26256D02*
D03*
Y18382D02*
D03*
Y10508D02*
D03*
Y2634D02*
D03*
X249527Y65626D02*
D03*
Y26256D02*
D03*
Y18382D02*
D03*
Y10508D02*
D03*
Y2634D02*
D03*
X241653Y65626D02*
D03*
Y26256D02*
D03*
Y18382D02*
D03*
Y10508D02*
D03*
Y2634D02*
D03*
X233779Y65626D02*
D03*
Y26256D02*
D03*
Y18382D02*
D03*
Y10508D02*
D03*
Y2634D02*
D03*
X225905Y65626D02*
D03*
Y26256D02*
D03*
Y18382D02*
D03*
Y10508D02*
D03*
Y2634D02*
D03*
X218031Y65626D02*
D03*
Y57752D02*
D03*
Y49878D02*
D03*
Y42004D02*
D03*
Y34130D02*
D03*
Y26256D02*
D03*
Y18382D02*
D03*
Y10508D02*
D03*
Y2634D02*
D03*
X210157Y65626D02*
D03*
Y57752D02*
D03*
Y49878D02*
D03*
Y42004D02*
D03*
Y34130D02*
D03*
Y26256D02*
D03*
Y18382D02*
D03*
Y10508D02*
D03*
Y2634D02*
D03*
X202283Y65626D02*
D03*
Y57752D02*
D03*
Y49878D02*
D03*
Y42004D02*
D03*
Y34130D02*
D03*
Y26256D02*
D03*
Y18382D02*
D03*
Y10508D02*
D03*
Y2634D02*
D03*
X194409Y65626D02*
D03*
Y57752D02*
D03*
Y49878D02*
D03*
Y42004D02*
D03*
Y34130D02*
D03*
Y26256D02*
D03*
Y18382D02*
D03*
Y10508D02*
D03*
Y2634D02*
D03*
X186535Y65626D02*
D03*
Y57752D02*
D03*
Y49878D02*
D03*
Y42004D02*
D03*
Y34130D02*
D03*
Y26256D02*
D03*
Y18382D02*
D03*
Y10508D02*
D03*
Y2634D02*
D03*
X178661Y65626D02*
D03*
Y57752D02*
D03*
Y49878D02*
D03*
Y42004D02*
D03*
Y34130D02*
D03*
Y26256D02*
D03*
Y18382D02*
D03*
Y10508D02*
D03*
Y2634D02*
D03*
X448422Y104855D02*
D03*
Y111855D02*
D03*
Y108355D02*
D03*
X429922Y124355D02*
D03*
Y127355D02*
D03*
Y121355D02*
D03*
Y118355D02*
D03*
X448422Y128355D02*
D03*
Y119355D02*
D03*
Y122355D02*
D03*
Y125355D02*
D03*
Y114855D02*
D03*
X429922Y110855D02*
D03*
Y103855D02*
D03*
Y107355D02*
D03*
Y113855D02*
D03*
X435500Y161500D02*
D03*
X398422Y170855D02*
D03*
X450418Y56185D02*
D03*
Y50280D02*
D03*
Y44374D02*
D03*
X444512Y56185D02*
D03*
Y50280D02*
D03*
Y44374D02*
D03*
X438607Y56185D02*
D03*
Y50280D02*
D03*
Y44374D02*
D03*
X432701Y56185D02*
D03*
Y50280D02*
D03*
Y44374D02*
D03*
X426795Y56185D02*
D03*
X420890D02*
D03*
Y44374D02*
D03*
X414985Y56185D02*
D03*
Y50280D02*
D03*
Y44374D02*
D03*
X409079Y56185D02*
D03*
Y50280D02*
D03*
Y44374D02*
D03*
X403173Y56185D02*
D03*
Y50280D02*
D03*
Y44374D02*
D03*
X397268Y56185D02*
D03*
Y44374D02*
D03*
X391362Y56185D02*
D03*
X385457D02*
D03*
Y50280D02*
D03*
Y44374D02*
D03*
X379551Y62091D02*
D03*
Y56185D02*
D03*
Y50280D02*
D03*
Y44374D02*
D03*
X373646Y50280D02*
D03*
Y44374D02*
D03*
X367740Y50280D02*
D03*
Y44374D02*
D03*
X361835Y62091D02*
D03*
Y56185D02*
D03*
Y50280D02*
D03*
Y44374D02*
D03*
X355929Y56185D02*
D03*
Y44374D02*
D03*
X344118Y62091D02*
D03*
Y56185D02*
D03*
Y50280D02*
D03*
Y44374D02*
D03*
X338213Y62091D02*
D03*
Y56185D02*
D03*
Y50280D02*
D03*
Y44374D02*
D03*
X450418Y14847D02*
D03*
Y8941D02*
D03*
Y3036D02*
D03*
X444512Y14847D02*
D03*
Y8941D02*
D03*
Y3036D02*
D03*
X438607Y14847D02*
D03*
Y8941D02*
D03*
Y3036D02*
D03*
X432701Y14847D02*
D03*
Y8941D02*
D03*
Y3036D02*
D03*
X426795D02*
D03*
X420890Y14847D02*
D03*
Y3036D02*
D03*
X414985Y14847D02*
D03*
Y8941D02*
D03*
Y3036D02*
D03*
X409079Y14847D02*
D03*
Y8941D02*
D03*
Y3036D02*
D03*
X403173Y14847D02*
D03*
Y8941D02*
D03*
Y3036D02*
D03*
X397268Y14847D02*
D03*
Y3036D02*
D03*
X391362D02*
D03*
X385457Y14847D02*
D03*
Y8941D02*
D03*
Y3036D02*
D03*
X379551D02*
D03*
X373646D02*
D03*
X367740D02*
D03*
X361835Y38469D02*
D03*
Y32563D02*
D03*
Y26658D02*
D03*
Y20752D02*
D03*
Y14847D02*
D03*
Y8941D02*
D03*
Y3036D02*
D03*
X355929Y26658D02*
D03*
Y14847D02*
D03*
Y8941D02*
D03*
Y3036D02*
D03*
X350024Y8941D02*
D03*
Y3036D02*
D03*
X344118Y38469D02*
D03*
Y32563D02*
D03*
Y26658D02*
D03*
Y20752D02*
D03*
Y14847D02*
D03*
Y8941D02*
D03*
Y3036D02*
D03*
X338213Y38469D02*
D03*
Y32563D02*
D03*
Y26658D02*
D03*
Y20752D02*
D03*
Y14847D02*
D03*
Y8941D02*
D03*
Y3036D02*
D03*
X143331Y67997D02*
D03*
Y62091D02*
D03*
Y56185D02*
D03*
Y50280D02*
D03*
X137425Y67997D02*
D03*
Y62091D02*
D03*
Y56185D02*
D03*
Y50280D02*
D03*
X131520Y56185D02*
D03*
X125615D02*
D03*
X119709Y67997D02*
D03*
Y62091D02*
D03*
Y56185D02*
D03*
Y50280D02*
D03*
X113804Y67997D02*
D03*
Y62091D02*
D03*
Y56185D02*
D03*
X107898D02*
D03*
X101992Y73902D02*
D03*
Y56185D02*
D03*
X96087Y79808D02*
D03*
Y73902D02*
D03*
Y67997D02*
D03*
Y62091D02*
D03*
X90181Y79808D02*
D03*
Y62091D02*
D03*
X84276Y79808D02*
D03*
Y62091D02*
D03*
X78370Y79808D02*
D03*
Y73902D02*
D03*
Y67997D02*
D03*
Y62091D02*
D03*
X72465Y79808D02*
D03*
Y73902D02*
D03*
Y67997D02*
D03*
Y62091D02*
D03*
X66559Y79808D02*
D03*
Y73902D02*
D03*
Y67997D02*
D03*
Y62091D02*
D03*
X60654Y79808D02*
D03*
Y73902D02*
D03*
Y67997D02*
D03*
Y62091D02*
D03*
X54748Y79808D02*
D03*
Y62091D02*
D03*
X48843Y79808D02*
D03*
Y73902D02*
D03*
Y62091D02*
D03*
X42937Y79808D02*
D03*
Y73902D02*
D03*
Y67997D02*
D03*
Y62091D02*
D03*
X37032Y79808D02*
D03*
Y73902D02*
D03*
Y67997D02*
D03*
Y62091D02*
D03*
X31126Y79808D02*
D03*
Y73902D02*
D03*
Y67997D02*
D03*
Y62091D02*
D03*
X137425Y38469D02*
D03*
Y32563D02*
D03*
Y26658D02*
D03*
Y20752D02*
D03*
X119709Y38469D02*
D03*
Y32563D02*
D03*
Y26658D02*
D03*
Y20752D02*
D03*
X113804Y32563D02*
D03*
Y26658D02*
D03*
Y20752D02*
D03*
X107898Y32563D02*
D03*
X101992D02*
D03*
X96087D02*
D03*
Y26658D02*
D03*
Y20752D02*
D03*
X90181D02*
D03*
X84276D02*
D03*
X78370Y32563D02*
D03*
Y26658D02*
D03*
Y20752D02*
D03*
X72465Y32563D02*
D03*
Y26658D02*
D03*
Y20752D02*
D03*
X66559Y32563D02*
D03*
Y26658D02*
D03*
Y20752D02*
D03*
X60654Y32563D02*
D03*
Y26658D02*
D03*
Y20752D02*
D03*
X54748D02*
D03*
X48843D02*
D03*
X42937Y32563D02*
D03*
Y26658D02*
D03*
Y20752D02*
D03*
X37032Y32563D02*
D03*
Y26658D02*
D03*
Y20752D02*
D03*
X31126Y32563D02*
D03*
Y26658D02*
D03*
Y20752D02*
D03*
X145705Y176382D02*
D03*
Y171882D02*
D03*
X180205Y206882D02*
D03*
X193705Y205382D02*
D03*
X210205Y200382D02*
D03*
X209796Y189018D02*
D03*
X324705Y200382D02*
D03*
X429422Y184355D02*
D03*
X394422Y147355D02*
D03*
X368205Y146882D02*
D03*
X386922Y163355D02*
D03*
X422922Y95355D02*
D03*
X421693Y123855D02*
D03*
X426922Y161355D02*
D03*
X283705Y200882D02*
D03*
X162705Y200382D02*
D03*
X60205Y181382D02*
D03*
X50705Y111382D02*
D03*
X60205Y193382D02*
D03*
X26205Y197882D02*
D03*
X7705Y121882D02*
D03*
X89174Y120964D02*
D03*
X118674D02*
D03*
X53705Y102382D02*
D03*
X63205Y94822D02*
D03*
X60205Y186382D02*
D03*
X186955Y119132D02*
D03*
X287705Y119382D02*
D03*
X94705Y94882D02*
D03*
X128705D02*
D03*
X60205Y176382D02*
D03*
X55205Y111382D02*
D03*
X80205Y92063D02*
D03*
X110705Y91882D02*
D03*
X165955Y122632D02*
D03*
X212455D02*
D03*
X28205Y163882D02*
D03*
X269705Y122882D02*
D03*
X323705D02*
D03*
X129674Y120964D02*
D03*
X204205Y182382D02*
D03*
X185455Y143132D02*
D03*
X311205Y190882D02*
D03*
X266705Y193882D02*
D03*
X295705Y148882D02*
D03*
Y159382D02*
D03*
X255705Y188882D02*
D03*
X154205Y175882D02*
D03*
D135*
X469205Y220382D02*
D03*
X468205Y12882D02*
D03*
X12705D02*
D03*
M02*
