G04*
G04 #@! TF.GenerationSoftware,Altium Limited,Altium Designer,25.8.1 (18)*
G04*
G04 Layer_Color=16711935*
%FSLAX25Y25*%
%MOIN*%
G70*
G04*
G04 #@! TF.SameCoordinates,84D38476-EC8B-4E85-A8E5-E5852804B053*
G04*
G04*
G04 #@! TF.FilePolarity,Negative*
G04*
G01*
G75*
%ADD86C,0.09068*%
%ADD87R,0.06737X0.06737*%
%ADD88C,0.06698*%
%ADD89R,0.06698X0.06698*%
%ADD90C,0.22123*%
%ADD91R,0.06737X0.06737*%
%ADD92O,0.16548X0.08674*%
%ADD93O,0.08674X0.16548*%
%ADD94C,0.09646*%
%ADD95R,0.09646X0.09646*%
%ADD96R,0.07119X0.07119*%
%ADD97O,0.18517X0.08674*%
%ADD98R,0.20154X0.20154*%
%ADD99C,0.07119*%
%ADD100C,0.06737*%
%ADD101C,0.06509*%
%ADD102C,0.03800*%
%ADD103C,0.16548*%
D86*
X426205Y49382D02*
D03*
X391953D02*
D03*
X426205Y9382D02*
D03*
X391953D02*
D03*
Y29382D02*
D03*
X426205D02*
D03*
Y69382D02*
D03*
X391953D02*
D03*
X88205Y9382D02*
D03*
Y49382D02*
D03*
X53953D02*
D03*
Y9382D02*
D03*
X88205Y29382D02*
D03*
X53953D02*
D03*
X88205Y69382D02*
D03*
X53953D02*
D03*
D87*
X277205Y217882D02*
D03*
X236205D02*
D03*
X318048Y217815D02*
D03*
D88*
X29410Y227741D02*
D03*
X55000D02*
D03*
X174500D02*
D03*
X29410Y210024D02*
D03*
X174500D02*
D03*
X148910D02*
D03*
D89*
Y227741D02*
D03*
X55000Y210024D02*
D03*
D90*
X239205Y84382D02*
D03*
D91*
X339662Y201571D02*
D03*
D92*
X377890Y198193D02*
D03*
D93*
X358205Y186382D02*
D03*
D94*
X351733Y63575D02*
D03*
Y50190D02*
D03*
X128650Y49882D02*
D03*
Y63268D02*
D03*
X128677Y34575D02*
D03*
Y21190D02*
D03*
X167733Y34575D02*
D03*
X312678Y50190D02*
D03*
X167705Y63268D02*
D03*
X312678Y21190D02*
D03*
X351733D02*
D03*
Y34575D02*
D03*
D95*
X167733Y21190D02*
D03*
X312678Y63575D02*
D03*
X167705Y49882D02*
D03*
X312678Y34575D02*
D03*
D96*
X185705Y215882D02*
D03*
X199205D02*
D03*
D97*
X377890Y173784D02*
D03*
D98*
X239705Y49382D02*
D03*
D99*
X199205Y225882D02*
D03*
X185705D02*
D03*
D100*
X257520Y217882D02*
D03*
X267363D02*
D03*
X339662Y221256D02*
D03*
Y211414D02*
D03*
X216520Y217882D02*
D03*
X226363D02*
D03*
X308205Y217815D02*
D03*
X298363D02*
D03*
D101*
X17020Y135540D02*
D03*
Y155225D02*
D03*
D102*
X450418Y79808D02*
D03*
Y73902D02*
D03*
Y67997D02*
D03*
Y38469D02*
D03*
Y32563D02*
D03*
Y26658D02*
D03*
X444512Y79808D02*
D03*
Y73902D02*
D03*
Y67997D02*
D03*
Y38469D02*
D03*
Y32563D02*
D03*
Y26658D02*
D03*
X438607Y79808D02*
D03*
Y73902D02*
D03*
Y67997D02*
D03*
Y38469D02*
D03*
Y32563D02*
D03*
Y26658D02*
D03*
X432701Y79808D02*
D03*
Y73902D02*
D03*
Y67997D02*
D03*
Y38469D02*
D03*
Y32563D02*
D03*
Y26658D02*
D03*
X426795Y79808D02*
D03*
Y38469D02*
D03*
X420890Y79808D02*
D03*
Y73902D02*
D03*
Y38469D02*
D03*
Y32563D02*
D03*
X414985Y79808D02*
D03*
Y73902D02*
D03*
Y67997D02*
D03*
Y38469D02*
D03*
Y32563D02*
D03*
Y26658D02*
D03*
X409079Y79808D02*
D03*
Y73902D02*
D03*
Y67997D02*
D03*
Y38469D02*
D03*
Y32563D02*
D03*
Y26658D02*
D03*
X403173Y79808D02*
D03*
Y73902D02*
D03*
Y67997D02*
D03*
Y38469D02*
D03*
Y32563D02*
D03*
Y26658D02*
D03*
X397268Y79808D02*
D03*
Y73902D02*
D03*
Y38469D02*
D03*
Y32563D02*
D03*
X391362Y79808D02*
D03*
Y38469D02*
D03*
X385457Y79808D02*
D03*
Y73902D02*
D03*
Y67997D02*
D03*
Y38469D02*
D03*
Y32563D02*
D03*
Y26658D02*
D03*
X379551Y79808D02*
D03*
Y73902D02*
D03*
Y38469D02*
D03*
X373646D02*
D03*
X367740D02*
D03*
X361835Y79808D02*
D03*
Y73902D02*
D03*
X355929Y79808D02*
D03*
Y73902D02*
D03*
X350024Y79808D02*
D03*
Y73902D02*
D03*
X344118Y79808D02*
D03*
Y73902D02*
D03*
X338213Y79808D02*
D03*
Y73902D02*
D03*
X450418Y56185D02*
D03*
Y50280D02*
D03*
Y44374D02*
D03*
X444512Y56185D02*
D03*
Y50280D02*
D03*
Y44374D02*
D03*
X438607Y56185D02*
D03*
Y50280D02*
D03*
Y44374D02*
D03*
X432701Y56185D02*
D03*
Y50280D02*
D03*
Y44374D02*
D03*
X426795Y56185D02*
D03*
X420890D02*
D03*
Y44374D02*
D03*
X414985Y56185D02*
D03*
Y50280D02*
D03*
Y44374D02*
D03*
X409079Y56185D02*
D03*
Y50280D02*
D03*
Y44374D02*
D03*
X403173Y56185D02*
D03*
Y50280D02*
D03*
Y44374D02*
D03*
X397268Y56185D02*
D03*
Y44374D02*
D03*
X391362Y56185D02*
D03*
X385457D02*
D03*
Y50280D02*
D03*
Y44374D02*
D03*
X379551Y62091D02*
D03*
Y56185D02*
D03*
Y50280D02*
D03*
Y44374D02*
D03*
X373646Y50280D02*
D03*
Y44374D02*
D03*
X367740Y50280D02*
D03*
Y44374D02*
D03*
X361835Y62091D02*
D03*
Y56185D02*
D03*
Y50280D02*
D03*
Y44374D02*
D03*
X355929Y56185D02*
D03*
Y44374D02*
D03*
X344118Y62091D02*
D03*
Y56185D02*
D03*
Y50280D02*
D03*
Y44374D02*
D03*
X338213Y62091D02*
D03*
Y56185D02*
D03*
Y50280D02*
D03*
Y44374D02*
D03*
X108405Y39500D02*
D03*
X102500D02*
D03*
X107970Y15218D02*
D03*
X102065D02*
D03*
X143403Y9313D02*
D03*
Y3407D02*
D03*
X137498Y9313D02*
D03*
Y3407D02*
D03*
X131592Y9313D02*
D03*
Y3407D02*
D03*
X125687Y9313D02*
D03*
Y3407D02*
D03*
X119781Y9313D02*
D03*
Y3407D02*
D03*
X113876Y44745D02*
D03*
Y9313D02*
D03*
Y3407D02*
D03*
X96159Y50651D02*
D03*
Y44745D02*
D03*
Y15218D02*
D03*
Y9313D02*
D03*
Y3407D02*
D03*
X90254D02*
D03*
X84348Y44745D02*
D03*
Y15218D02*
D03*
Y3407D02*
D03*
X78443Y50651D02*
D03*
Y44745D02*
D03*
Y15218D02*
D03*
Y9313D02*
D03*
Y3407D02*
D03*
X72537Y50651D02*
D03*
Y44745D02*
D03*
Y15218D02*
D03*
Y9313D02*
D03*
Y3407D02*
D03*
X66632Y50651D02*
D03*
Y44745D02*
D03*
Y15218D02*
D03*
Y9313D02*
D03*
Y3407D02*
D03*
X60726Y50651D02*
D03*
Y44745D02*
D03*
Y15218D02*
D03*
Y9313D02*
D03*
Y3407D02*
D03*
X54821D02*
D03*
X48915Y44745D02*
D03*
Y15218D02*
D03*
Y3407D02*
D03*
X43009Y50651D02*
D03*
Y44745D02*
D03*
Y15218D02*
D03*
Y9313D02*
D03*
Y3407D02*
D03*
X37104Y50651D02*
D03*
Y44745D02*
D03*
Y15218D02*
D03*
Y9313D02*
D03*
Y3407D02*
D03*
X31198Y50651D02*
D03*
Y44745D02*
D03*
Y15218D02*
D03*
Y9313D02*
D03*
Y3407D02*
D03*
X326402Y101461D02*
D03*
Y93587D02*
D03*
Y85713D02*
D03*
Y77839D02*
D03*
X318528Y101461D02*
D03*
Y93587D02*
D03*
Y85713D02*
D03*
Y77839D02*
D03*
X310654Y101461D02*
D03*
Y93587D02*
D03*
Y85713D02*
D03*
Y77839D02*
D03*
X302780Y101461D02*
D03*
Y93587D02*
D03*
Y85713D02*
D03*
Y77839D02*
D03*
X294906Y101461D02*
D03*
Y93587D02*
D03*
Y85713D02*
D03*
Y77839D02*
D03*
X287032Y101461D02*
D03*
Y93587D02*
D03*
Y85713D02*
D03*
Y77839D02*
D03*
X279158Y101461D02*
D03*
Y93587D02*
D03*
Y85713D02*
D03*
Y77839D02*
D03*
X271284Y101461D02*
D03*
Y93587D02*
D03*
Y85713D02*
D03*
Y77839D02*
D03*
X263410Y101461D02*
D03*
Y93587D02*
D03*
Y85713D02*
D03*
Y77839D02*
D03*
X255536Y101461D02*
D03*
Y93587D02*
D03*
Y85713D02*
D03*
Y77839D02*
D03*
X247662Y101461D02*
D03*
X239788D02*
D03*
X231914D02*
D03*
X224040D02*
D03*
Y93587D02*
D03*
Y85713D02*
D03*
Y77839D02*
D03*
X216166Y101461D02*
D03*
Y93587D02*
D03*
Y85713D02*
D03*
Y77839D02*
D03*
X208292Y101461D02*
D03*
Y93587D02*
D03*
Y85713D02*
D03*
Y77839D02*
D03*
X200418Y101461D02*
D03*
Y93587D02*
D03*
Y85713D02*
D03*
Y77839D02*
D03*
X192544Y101461D02*
D03*
Y93587D02*
D03*
Y85713D02*
D03*
Y77839D02*
D03*
X184670Y101461D02*
D03*
Y93587D02*
D03*
Y85713D02*
D03*
Y77839D02*
D03*
X176796Y101461D02*
D03*
Y93587D02*
D03*
Y85713D02*
D03*
Y77839D02*
D03*
X168922Y93587D02*
D03*
Y85713D02*
D03*
Y77839D02*
D03*
X161048Y85713D02*
D03*
Y77839D02*
D03*
X153174D02*
D03*
X470422Y107855D02*
D03*
Y104355D02*
D03*
Y114855D02*
D03*
Y111355D02*
D03*
Y119355D02*
D03*
Y129855D02*
D03*
Y122855D02*
D03*
Y126355D02*
D03*
X421922Y186855D02*
D03*
X418922Y193355D02*
D03*
Y190355D02*
D03*
Y226355D02*
D03*
Y223355D02*
D03*
X415422Y183855D02*
D03*
X412135Y156641D02*
D03*
X421922Y152355D02*
D03*
X405806Y142669D02*
D03*
X412000Y150000D02*
D03*
X418922Y214355D02*
D03*
Y211355D02*
D03*
Y217355D02*
D03*
Y208355D02*
D03*
Y205355D02*
D03*
Y202355D02*
D03*
Y199355D02*
D03*
Y196355D02*
D03*
Y220355D02*
D03*
X459705Y89382D02*
D03*
X450418Y14847D02*
D03*
Y8941D02*
D03*
Y3036D02*
D03*
X444512Y14847D02*
D03*
Y8941D02*
D03*
Y3036D02*
D03*
X438607Y14847D02*
D03*
Y8941D02*
D03*
Y3036D02*
D03*
X432701Y14847D02*
D03*
Y8941D02*
D03*
Y3036D02*
D03*
X426795D02*
D03*
X420890Y14847D02*
D03*
Y3036D02*
D03*
X414985Y14847D02*
D03*
Y8941D02*
D03*
Y3036D02*
D03*
X409079Y14847D02*
D03*
Y8941D02*
D03*
Y3036D02*
D03*
X403173Y14847D02*
D03*
Y8941D02*
D03*
Y3036D02*
D03*
X397268Y14847D02*
D03*
Y3036D02*
D03*
X391362D02*
D03*
X385457Y14847D02*
D03*
Y8941D02*
D03*
Y3036D02*
D03*
X379551D02*
D03*
X373646D02*
D03*
X367740D02*
D03*
X361835Y38469D02*
D03*
Y32563D02*
D03*
Y26658D02*
D03*
Y20752D02*
D03*
Y14847D02*
D03*
Y8941D02*
D03*
Y3036D02*
D03*
X355929Y26658D02*
D03*
Y14847D02*
D03*
Y8941D02*
D03*
Y3036D02*
D03*
X350024Y8941D02*
D03*
Y3036D02*
D03*
X344118Y38469D02*
D03*
Y32563D02*
D03*
Y26658D02*
D03*
Y20752D02*
D03*
Y14847D02*
D03*
Y8941D02*
D03*
Y3036D02*
D03*
X338213Y38469D02*
D03*
Y32563D02*
D03*
Y26658D02*
D03*
Y20752D02*
D03*
Y14847D02*
D03*
Y8941D02*
D03*
Y3036D02*
D03*
X143331Y67997D02*
D03*
Y62091D02*
D03*
Y56185D02*
D03*
Y50280D02*
D03*
X137425Y67997D02*
D03*
Y62091D02*
D03*
Y56185D02*
D03*
Y50280D02*
D03*
X131520Y56185D02*
D03*
X125615D02*
D03*
X119709Y67997D02*
D03*
Y62091D02*
D03*
Y56185D02*
D03*
Y50280D02*
D03*
X113804Y67997D02*
D03*
Y62091D02*
D03*
Y56185D02*
D03*
X107898D02*
D03*
X101992Y73902D02*
D03*
Y56185D02*
D03*
X96087Y79808D02*
D03*
Y73902D02*
D03*
Y67997D02*
D03*
Y62091D02*
D03*
X90181Y79808D02*
D03*
Y62091D02*
D03*
X84276Y79808D02*
D03*
Y62091D02*
D03*
X78370Y79808D02*
D03*
Y73902D02*
D03*
Y67997D02*
D03*
Y62091D02*
D03*
X72465Y79808D02*
D03*
Y73902D02*
D03*
Y67997D02*
D03*
Y62091D02*
D03*
X66559Y79808D02*
D03*
Y73902D02*
D03*
Y67997D02*
D03*
Y62091D02*
D03*
X60654Y79808D02*
D03*
Y73902D02*
D03*
Y67997D02*
D03*
Y62091D02*
D03*
X54748Y79808D02*
D03*
Y62091D02*
D03*
X48843Y79808D02*
D03*
Y73902D02*
D03*
Y62091D02*
D03*
X42937Y79808D02*
D03*
Y73902D02*
D03*
Y67997D02*
D03*
Y62091D02*
D03*
X37032Y79808D02*
D03*
Y73902D02*
D03*
Y67997D02*
D03*
Y62091D02*
D03*
X31126Y79808D02*
D03*
Y73902D02*
D03*
Y67997D02*
D03*
Y62091D02*
D03*
X137425Y38469D02*
D03*
Y32563D02*
D03*
Y26658D02*
D03*
Y20752D02*
D03*
X119709Y38469D02*
D03*
Y32563D02*
D03*
Y26658D02*
D03*
Y20752D02*
D03*
X113804Y32563D02*
D03*
Y26658D02*
D03*
Y20752D02*
D03*
X107898Y32563D02*
D03*
X101992D02*
D03*
X96087D02*
D03*
Y26658D02*
D03*
Y20752D02*
D03*
X90181D02*
D03*
X84276D02*
D03*
X78370Y32563D02*
D03*
Y26658D02*
D03*
Y20752D02*
D03*
X72465Y32563D02*
D03*
Y26658D02*
D03*
Y20752D02*
D03*
X66559Y32563D02*
D03*
Y26658D02*
D03*
Y20752D02*
D03*
X60654Y32563D02*
D03*
Y26658D02*
D03*
Y20752D02*
D03*
X54748D02*
D03*
X48843D02*
D03*
X42937Y32563D02*
D03*
Y26658D02*
D03*
Y20752D02*
D03*
X37032Y32563D02*
D03*
Y26658D02*
D03*
Y20752D02*
D03*
X31126Y32563D02*
D03*
Y26658D02*
D03*
Y20752D02*
D03*
X452387Y132957D02*
D03*
Y101461D02*
D03*
Y93587D02*
D03*
X444513Y132957D02*
D03*
Y125083D02*
D03*
Y117209D02*
D03*
Y109335D02*
D03*
Y101461D02*
D03*
Y93587D02*
D03*
X436638Y132957D02*
D03*
Y125083D02*
D03*
Y117209D02*
D03*
Y109335D02*
D03*
Y101461D02*
D03*
Y93587D02*
D03*
X428764Y132957D02*
D03*
Y93587D02*
D03*
X326402Y69965D02*
D03*
Y62091D02*
D03*
Y54217D02*
D03*
Y46343D02*
D03*
Y38469D02*
D03*
Y30595D02*
D03*
Y22721D02*
D03*
Y14847D02*
D03*
Y6973D02*
D03*
X318528Y54217D02*
D03*
Y46343D02*
D03*
Y14847D02*
D03*
Y6973D02*
D03*
X310654D02*
D03*
X302780Y69965D02*
D03*
Y62091D02*
D03*
Y54217D02*
D03*
Y46343D02*
D03*
Y38469D02*
D03*
Y30595D02*
D03*
Y22721D02*
D03*
Y14847D02*
D03*
Y6973D02*
D03*
X294906Y69965D02*
D03*
Y62091D02*
D03*
Y54217D02*
D03*
Y46343D02*
D03*
Y38469D02*
D03*
Y30595D02*
D03*
Y22721D02*
D03*
Y14847D02*
D03*
Y6973D02*
D03*
X287032Y69965D02*
D03*
Y62091D02*
D03*
Y54217D02*
D03*
Y46343D02*
D03*
Y38469D02*
D03*
Y30595D02*
D03*
Y22721D02*
D03*
Y14847D02*
D03*
Y6973D02*
D03*
X279158Y69965D02*
D03*
Y62091D02*
D03*
Y54217D02*
D03*
Y46343D02*
D03*
Y38469D02*
D03*
Y30595D02*
D03*
Y22721D02*
D03*
Y14847D02*
D03*
Y6973D02*
D03*
X271284Y69965D02*
D03*
Y62091D02*
D03*
Y54217D02*
D03*
Y46343D02*
D03*
Y38469D02*
D03*
Y30595D02*
D03*
Y22721D02*
D03*
Y14847D02*
D03*
Y6973D02*
D03*
X263410Y69965D02*
D03*
Y62091D02*
D03*
Y54217D02*
D03*
Y46343D02*
D03*
Y38469D02*
D03*
Y30595D02*
D03*
Y22721D02*
D03*
Y14847D02*
D03*
Y6973D02*
D03*
X255536Y69965D02*
D03*
Y62091D02*
D03*
Y54217D02*
D03*
Y46343D02*
D03*
Y38469D02*
D03*
Y30595D02*
D03*
Y22721D02*
D03*
Y14847D02*
D03*
Y6973D02*
D03*
X247662Y69965D02*
D03*
Y62091D02*
D03*
Y30595D02*
D03*
Y22721D02*
D03*
Y14847D02*
D03*
Y6973D02*
D03*
X239788Y62091D02*
D03*
Y30595D02*
D03*
Y22721D02*
D03*
Y14847D02*
D03*
Y6973D02*
D03*
X231914Y69965D02*
D03*
Y62091D02*
D03*
Y30595D02*
D03*
Y22721D02*
D03*
Y14847D02*
D03*
Y6973D02*
D03*
X224040Y69965D02*
D03*
Y62091D02*
D03*
Y54217D02*
D03*
Y46343D02*
D03*
Y38469D02*
D03*
Y30595D02*
D03*
Y22721D02*
D03*
Y14847D02*
D03*
Y6973D02*
D03*
X216166Y69965D02*
D03*
Y62091D02*
D03*
Y54217D02*
D03*
Y46343D02*
D03*
Y38469D02*
D03*
Y30595D02*
D03*
Y22721D02*
D03*
Y14847D02*
D03*
Y6973D02*
D03*
X208292Y69965D02*
D03*
Y62091D02*
D03*
Y54217D02*
D03*
Y46343D02*
D03*
Y38469D02*
D03*
Y30595D02*
D03*
Y22721D02*
D03*
Y14847D02*
D03*
Y6973D02*
D03*
X200418Y69965D02*
D03*
Y62091D02*
D03*
Y54217D02*
D03*
Y46343D02*
D03*
Y38469D02*
D03*
Y30595D02*
D03*
Y22721D02*
D03*
Y14847D02*
D03*
Y6973D02*
D03*
X192544Y69965D02*
D03*
Y62091D02*
D03*
Y54217D02*
D03*
Y46343D02*
D03*
Y38469D02*
D03*
Y30595D02*
D03*
Y22721D02*
D03*
Y14847D02*
D03*
Y6973D02*
D03*
X184670Y69965D02*
D03*
Y62091D02*
D03*
Y54217D02*
D03*
Y46343D02*
D03*
Y38469D02*
D03*
Y30595D02*
D03*
Y22721D02*
D03*
Y14847D02*
D03*
Y6973D02*
D03*
X176796Y69965D02*
D03*
Y62091D02*
D03*
Y54217D02*
D03*
Y46343D02*
D03*
Y38469D02*
D03*
Y30595D02*
D03*
Y22721D02*
D03*
Y14847D02*
D03*
Y6973D02*
D03*
X168922D02*
D03*
X161048Y69965D02*
D03*
Y38469D02*
D03*
Y30595D02*
D03*
Y14847D02*
D03*
Y6973D02*
D03*
X153174Y69965D02*
D03*
Y62091D02*
D03*
Y54217D02*
D03*
Y46343D02*
D03*
Y38469D02*
D03*
Y30595D02*
D03*
Y22721D02*
D03*
Y14847D02*
D03*
Y6973D02*
D03*
X145705Y176382D02*
D03*
Y171882D02*
D03*
X180205Y206882D02*
D03*
X193705Y205382D02*
D03*
X210205Y200382D02*
D03*
X209796Y189018D02*
D03*
X324705Y200382D02*
D03*
X429422Y184355D02*
D03*
X394422Y147355D02*
D03*
X398422Y170855D02*
D03*
X368205Y146882D02*
D03*
X386922Y163355D02*
D03*
X422922Y95355D02*
D03*
X429922Y107355D02*
D03*
Y113855D02*
D03*
Y110855D02*
D03*
Y103855D02*
D03*
X448422Y114855D02*
D03*
Y125355D02*
D03*
Y122355D02*
D03*
Y119355D02*
D03*
Y128355D02*
D03*
X429922Y118355D02*
D03*
X421693Y123855D02*
D03*
X444922Y160855D02*
D03*
X429922Y121355D02*
D03*
X426922Y161355D02*
D03*
X429922Y127355D02*
D03*
Y124355D02*
D03*
X448422Y108355D02*
D03*
Y111855D02*
D03*
Y104855D02*
D03*
X283705Y200882D02*
D03*
X162705Y200382D02*
D03*
X60205Y181382D02*
D03*
X50705Y111382D02*
D03*
X60205Y193382D02*
D03*
X26205Y197882D02*
D03*
X7705Y121882D02*
D03*
X89174Y120964D02*
D03*
X118674D02*
D03*
X53705Y102382D02*
D03*
X63205Y94822D02*
D03*
X60205Y186382D02*
D03*
X186955Y119132D02*
D03*
X287705Y119382D02*
D03*
X94705Y94882D02*
D03*
X128705D02*
D03*
X60205Y176382D02*
D03*
X55205Y111382D02*
D03*
X80205Y92063D02*
D03*
X110705Y91882D02*
D03*
X165955Y122632D02*
D03*
X212455D02*
D03*
X28205Y163882D02*
D03*
X269705Y122882D02*
D03*
X323705D02*
D03*
X129674Y120964D02*
D03*
X204205Y182382D02*
D03*
X185455Y143132D02*
D03*
X311205Y190882D02*
D03*
X266705Y193882D02*
D03*
X295705Y148882D02*
D03*
Y159382D02*
D03*
X255705Y188882D02*
D03*
X154205Y175882D02*
D03*
D103*
X12705Y219882D02*
D03*
X469205Y220382D02*
D03*
X468205Y12882D02*
D03*
X12705D02*
D03*
M02*
