G04*
G04 #@! TF.GenerationSoftware,Altium Limited,Altium Designer,25.8.1 (18)*
G04*
G04 Layer_Color=16711935*
%FSLAX44Y44*%
%MOMM*%
G71*
G04*
G04 #@! TF.SameCoordinates,0C62A506-4AB3-4D0B-B9C4-09F1DB62E7D0*
G04*
G04*
G04 #@! TF.FilePolarity,Positive*
G04*
G01*
G75*
%ADD104C,0.2540*%
%ADD137C,0.1000*%
D104*
X1224801Y580091D02*
G03*
X1210703Y594132I-13458J585D01*
G01*
X1215905Y-2842D02*
G03*
X1224801Y6054I0J8896D01*
G01*
X-2839Y6854D02*
G03*
X6854Y-2839I9692J0D01*
G01*
X7460Y594061D02*
G03*
X-3289Y583312I0J-10749D01*
G01*
X1224801Y6054D02*
X1224801Y580091D01*
X6865Y594061D02*
X1210703Y594061D01*
X6871Y-2839D02*
X1215905Y-2842D01*
X6854Y-2839D02*
X6871Y-2839D01*
X-3289Y583312D02*
X-2839Y6854D01*
D137*
X1731Y324621D02*
Y416271D01*
X731Y441271D02*
X3730D01*
Y439772D01*
X3230Y439272D01*
X2230D01*
X1731Y439772D01*
Y441271D01*
X3230Y436273D02*
X3730Y436773D01*
Y437772D01*
X3230Y438272D01*
X1231D01*
X731Y437772D01*
Y436773D01*
X1231Y436273D01*
X3730Y435273D02*
X731D01*
Y433774D01*
X1231Y433274D01*
X1731D01*
X2230Y433774D01*
Y435273D01*
Y433774D01*
X2730Y433274D01*
X3230D01*
X3730Y433774D01*
Y435273D01*
Y427276D02*
Y429275D01*
X731D01*
Y427276D01*
X2230Y429275D02*
Y428275D01*
X3730Y426276D02*
X731D01*
Y424776D01*
X1231Y424277D01*
X3230D01*
X3730Y424776D01*
Y426276D01*
X3230Y421278D02*
X3730Y421777D01*
Y422777D01*
X3230Y423277D01*
X1231D01*
X731Y422777D01*
Y421777D01*
X1231Y421278D01*
X2230D01*
Y422277D01*
X3730Y418279D02*
Y420278D01*
X731D01*
Y418279D01*
X2230Y420278D02*
Y419278D01*
M02*
