M48
;Layer_Color=9474304
;FILE_FORMAT=2:5
INCH
;TYPE=PLATED
T01F00S00C0.01181
T02F00S00C0.01500
T04F00S00C0.03346
T05F00S00C0.03898
T06F00S00C0.03937
T08F00S00C0.04213
T09F00S00C0.05512
T10F00S00C0.06299
T11F00S00C0.12000
T12F00S00C0.22441
%
T01
X0192787Y0434094
X0198299
X0195543Y0436850
X0201055
Y0442362
X0198299Y0445118
X0195543Y0442362
X0192787Y0445118
X0190032Y0442362
Y0436850
T02
X0472441Y0271654
X0478346
X0484252
X0490157
X0496063
X0501968
X0507874
X0513779
X0519685
X0525590
X0531496
X0537401
X0543307
X0549212
Y0277559
Y0283465
X0543307
Y0277559
X0537401
Y0283465
X0531496
Y0277559
Y0295275
Y0301181
Y0307086
X0525590
X0519685
X0513779
X0507874
X0501968
X0496063
X0490157
X0484252
X0478346
X0472441
X0484252Y0301181
Y0295275
Y0283465
Y0277559
X0501968
X0507874
X0513779
Y0283465
X0519685
X0507874
X0501968
X0496063
Y0301181
X0501968
Y0295275
X0507874
Y0301181
X0513779
Y0295275
X0519685Y0301181
X0537401
Y0295275
X0543307
Y0301181
Y0307086
X0537401
X0549212
Y0301181
Y0295275
X0460630
Y0301181
Y0307086
X0466535
X0460630Y0289370
Y0283465
Y0277559
Y0271654
X0466535
X0454724
Y0277559
Y0283465
Y0295275
X0442913
Y0301181
Y0307086
X0437008
Y0301181
Y0295275
Y0289370
X0442913
Y0283465
Y0277559
X0448819
Y0271654
X0442913
X0437008
Y0277559
Y0283465
X0427063Y0287000
Y0294873
Y0302748
Y0310622
X0419188
Y0302748
Y0294873
Y0287000
Y0279125
X0427063
Y0271251
X0419188
X0411314
Y0279125
X0403441
Y0287000
Y0294873
Y0302748
Y0310622
X0411314
X0395566
Y0302748
Y0294873
Y0287000
Y0279125
Y0271251
X0403441
X0387692
Y0279125
Y0287000
Y0294873
Y0302748
Y0310622
X0379818
Y0302748
Y0294873
Y0287000
Y0279125
Y0271251
X0371944
Y0279125
Y0287000
Y0294873
Y0302748
Y0310622
X0364070
Y0302748
Y0294873
Y0287000
Y0279125
Y0271251
X0356196
Y0279125
Y0287000
Y0294873
Y0302748
Y0310622
X0348322Y0294873
Y0287000
Y0279125
Y0271251
X0340448
Y0279125
Y0287000
Y0294873
X0332574
Y0287000
Y0279125
Y0271251
X0324700
Y0279125
Y0287000
Y0294873
X0316826
Y0302748
Y0310622
Y0287000
Y0279125
Y0271251
X0308952
Y0279125
Y0287000
Y0294873
Y0302748
Y0310622
X0301078
Y0302748
Y0294873
Y0287000
Y0279125
Y0271251
X0293204
Y0279125
Y0287000
Y0294873
Y0302748
Y0310622
X0285330
Y0302748
Y0294873
Y0287000
Y0279125
Y0271251
X0277456
Y0279125
Y0287000
Y0294873
Y0302748
Y0310622
X0236220Y0307086
Y0301181
Y0295275
Y0289370
X0236293Y0277930
X0230387
X0224482
X0218576
X0212670
Y0272025
X0218576
X0224482
X0230387
X0236293
X0242198
Y0277930
X0218504Y0289370
Y0295275
Y0301181
Y0307086
X0212598Y0301181
Y0295275
Y0289370
X0206765Y0283836
X0200859
X0194954
X0194882Y0289370
Y0295275
Y0301181
X0200787
X0206693
X0207200Y0308118
X0201295
X0188976Y0289370
X0183071
X0183143Y0283836
X0177237
X0177165Y0289370
Y0295275
Y0301181
X0171260
Y0295275
Y0289370
X0171332Y0283836
X0165426
X0165354Y0289370
Y0295275
Y0301181
X0159449
Y0295275
Y0289370
X0159521Y0283836
Y0277930
Y0272025
X0165426
Y0277930
X0171332
Y0272025
X0177237
Y0277930
X0183143Y0272025
X0189048
X0194954
Y0277930
X0153615Y0272025
X0147710
X0141804
X0135899
X0129993
Y0277930
Y0283836
X0129921Y0289370
X0135827
X0135899Y0283836
Y0277930
X0141804
Y0283836
X0141732Y0289370
X0147638
X0147710Y0283836
X0153543Y0289370
X0141732Y0295275
Y0301181
X0135827
Y0295275
X0129921
Y0301181
X0129993Y0313363
Y0319269
X0135899
Y0313363
X0141804
Y0319269
X0141732Y0330709
X0147638
X0153543
Y0348425
X0147638
Y0342520
X0141732
Y0348425
X0135827
Y0342520
Y0336614
X0141732
X0135827Y0330709
X0129921
Y0336614
Y0342520
Y0348425
X0152500Y0371000
X0154000Y0380000
X0149500
X0106500Y0390500
X0127000Y0432500
X0125000Y0466500
X0147710Y0313363
X0159521
Y0319269
X0165426
Y0313363
X0171332
Y0319269
X0177237
Y0313363
X0183143
X0194954
Y0319269
X0200787Y0324803
X0206693
X0212598
X0218504
X0224409
X0230315
X0236220
X0242126
Y0330709
Y0336614
X0236220
Y0330709
Y0318898
X0242126
X0218504
X0212670Y0313363
X0212598Y0330709
X0218504
Y0336614
X0212598
X0200787Y0342520
X0194882
Y0348425
X0188976
X0183071
X0177165
Y0342520
Y0336614
Y0330709
X0183071
X0188976
X0194882
Y0336614
X0171260
Y0342520
Y0348425
X0165354
Y0342520
Y0336614
Y0330709
X0171260
X0159449
Y0336614
Y0342520
Y0348425
X0162000Y0363440
X0179000Y0360681
X0193500Y0363500
X0209500Y0360500
X0227500Y0363500
X0228468Y0389581
X0217469
X0187969
X0264750Y0391250
X0285750Y0387750
X0283465Y0370079
X0291339
X0299213
X0307087
Y0362205
Y0354331
Y0346457
X0299213
Y0354331
Y0362205
X0291339
Y0354331
Y0346457
X0283465
Y0354331
Y0362205
X0275591
Y0370079
Y0354331
Y0346457
X0267717
Y0354331
Y0362205
X0259843Y0354331
Y0346457
X0251969
X0277456Y0334244
X0285330
X0293204
X0301078
X0308952
Y0326370
Y0318496
X0301078
Y0326370
X0293204
Y0318496
X0285330
Y0326370
X0277456
Y0318496
X0284250Y0411750
X0311250Y0391250
X0303000Y0451000
X0308591Y0457635
X0253000Y0444500
X0244500Y0445000
Y0440500
X0159000Y0445000
Y0450000
Y0455000
Y0462000
X0354500Y0457500
X0365500Y0462500
X0410000Y0459500
X0394500Y0428000
Y0417500
X0386500Y0388000
X0385827Y0370079
X0393701
X0401575
X0409449
X0417323
X0425197
Y0362205
Y0354331
Y0346457
X0417323
Y0354331
Y0362205
X0409449
Y0354331
Y0346457
X0401575
Y0354331
Y0362205
X0393701
Y0354331
Y0346457
X0385827
Y0354331
Y0362205
X0377953
Y0370079
X0370079
Y0362205
Y0354331
X0377953
Y0346457
X0370079
X0362205
Y0354331
Y0362205
Y0370079
X0354331
Y0362205
Y0354331
Y0346457
X0356196Y0334244
X0364070
X0371944
X0379818
X0387692
X0395566
X0403441
Y0326370
Y0318496
X0395566
Y0326370
X0387692
Y0318496
X0379818
Y0326370
X0371944
Y0318496
X0364070
Y0326370
X0356196
Y0318496
X0348322Y0334244
X0340448
X0332574
X0324700
X0316826
Y0326370
Y0318496
X0314961Y0346457
X0322835
Y0354331
Y0362205
Y0370079
X0314961
Y0362205
Y0354331
X0368500Y0391500
X0422500
X0437008Y0348425
Y0342520
X0442913
Y0348425
X0448819
Y0342520
X0454724
Y0348425
X0460630
Y0342520
Y0330709
Y0324803
Y0318898
X0466535
Y0312992
X0460630
X0454724
Y0324803
X0442913
Y0330709
X0437008
Y0324803
Y0318898
X0442913
Y0312992
X0437008
X0427063Y0318496
Y0326370
Y0334244
X0419188
Y0326370
Y0318496
X0467000Y0415500
X0493217Y0415972
X0504601Y0411286
X0510795Y0418618
X0510930Y0425259
X0520716Y0420972
X0525716Y0429972
X0534295Y0430118
X0528217Y0452972
X0520716Y0455472
X0520795Y0459118
Y0462118
Y0465118
Y0468118
X0513795Y0452618
X0497217Y0439472
X0485716Y0431972
X0520488Y0392472
X0528717Y0392972
Y0395972
Y0389972
Y0386972
Y0382472
Y0379472
Y0375972
Y0372472
X0521716Y0363972
X0519685Y0348425
X0513779
X0507874
X0501968
X0496063
X0490157
X0484252
X0478346
Y0342520
X0484252
Y0336614
Y0324803
X0490157
X0496063
X0501968
X0507874
X0513779
X0519685
X0525590
X0531496
X0537401
X0543307
X0549212
Y0318898
Y0312992
X0543307
Y0318898
X0537401
Y0312992
X0531496
Y0318898
Y0336614
Y0342520
Y0348425
X0525590
X0519685Y0342520
X0513779
X0507874
X0501968
X0496063
X0501968Y0336614
X0507874
X0513779
Y0318898
Y0312992
X0519685
X0507874
Y0318898
X0501968
Y0312992
X0496063
X0484252
Y0318898
X0478346
Y0324803
Y0330709
Y0312992
X0472441
Y0318898
X0537401Y0336614
Y0342520
Y0348425
X0543307
Y0342520
Y0336614
X0549212
Y0342520
Y0348425
X0558500Y0358000
X0569295Y0373118
X0569216Y0376472
Y0379972
Y0383472
Y0387972
Y0391472
Y0394972
Y0398472
X0547217Y0396972
Y0393972
Y0390972
Y0387972
Y0383472
Y0380472
Y0376972
Y0373472
X0520795Y0471118
Y0474118
Y0477118
Y0480118
Y0483118
Y0486118
Y0489118
Y0492118
Y0495118
X0423500Y0469000
X0382500Y0469500
X0309000Y0469000
X0292500Y0474000
X0279000Y0475500
X0261500Y0469000
T04
X0115815Y0404157
Y0423842
T05
X0247705Y0478642
Y0496358
X0273295
Y0478642
X0153795
Y0496358
X0128205
Y0478642
T06
X0315315Y0486500
X0325157
X0335000
X0356315
X0366158
X0376000
X0397158Y0486433
X0407000
X0416843
X0438457Y0489874
Y0480031
Y0470189
T08
X0284500Y0484500
Y0494500
X0298000
Y0484500
T09
X0490748Y0278000
Y0298000
X0525000
Y0278000
X0187000
Y0298000
X0152748
Y0278000
Y0318000
Y0338000
X0187000
Y0318000
X0490748
Y0338000
X0525000
Y0318000
T10
X0411472Y0289807
Y0303193
X0450528
Y0289807
X0266528
Y0303193
X0227472
Y0289807
X0227445Y0318500
Y0331886
X0266500
Y0318500
X0411472Y0318807
Y0332193
X0450528
Y0318807
T11
X0567000Y0281500
X0111500
X0568000Y0489000
X0111500Y0488500
T12
X0338795Y0314618
Y0358118
M30
