M48
;Layer_Color=9474304
;FILE_FORMAT=2:5
INCH
;TYPE=PLATED
T01F00S00C0.00787
T02F00S00C0.01500
T04F00S00C0.03346
T05F00S00C0.03898
T06F00S00C0.03937
T08F00S00C0.04213
T09F00S00C0.05512
T10F00S00C0.06299
T11F00S00C0.12000
T12F00S00C0.17717
%
T01
X0192787Y0434094
X0198299
X0195543Y0436850
X0201055
Y0442362
X0198299Y0445118
X0195543Y0442362
X0192787Y0445118
X0190032Y0442362
Y0436850
T02
X0472441Y0271654
X0478346
X0484252
X0490157
X0496063
X0501968
X0507874
X0513779
X0519685
X0525590
X0531496
X0537401
X0543307
X0549212
Y0277559
Y0283465
X0543307
Y0277559
X0537401
Y0283465
X0531496
Y0277559
Y0295275
X0537401
X0543307
X0549212
Y0301181
Y0307086
X0543307
Y0301181
X0537401
Y0307086
X0531496
Y0301181
X0525590Y0307086
X0519685
Y0301181
X0513779
Y0307086
X0507874
Y0301181
Y0295275
X0513779
X0501968
Y0301181
Y0307086
X0496063
Y0301181
X0490157Y0307086
X0484252
Y0301181
Y0295275
Y0283465
Y0277559
X0501968
X0507874
X0513779
Y0283465
X0519685
X0507874
X0501968
X0496063
X0478346Y0307086
X0472441
X0466535
X0460630
Y0301181
Y0295275
Y0289370
Y0283465
Y0277559
Y0271654
X0466535
X0454724
Y0277559
Y0283465
Y0295275
X0442913
Y0301181
Y0307086
X0437008
Y0301181
Y0295275
Y0289370
X0442913
Y0283465
Y0277559
X0448819
Y0271654
X0442913
X0437008
Y0277559
Y0283465
X0425197Y0283465
Y0291339
Y0299213
Y0307087
X0401575
Y0299213
Y0291339
Y0283465
Y0275591
X0409449
X0417323
X0425197
X0417323Y0283465
X0393701
Y0291339
Y0299213
Y0307087
X0385827
Y0299213
Y0291339
Y0283465
Y0275591
X0393701
X0377953
Y0283465
Y0291339
Y0299213
Y0307087
X0370079
Y0299213
Y0291339
Y0283465
Y0275591
X0362205
Y0283465
Y0291339
Y0299213
Y0307087
X0354331
Y0299213
Y0291339
Y0283465
Y0275591
X0346457
Y0283465
Y0291339
Y0299213
X0338583
Y0291339
Y0283465
Y0275591
X0330709
Y0283465
Y0291339
Y0299213
X0322835
Y0307087
X0314961
Y0299213
Y0291339
X0322835
Y0283465
Y0275591
X0314961
Y0283465
X0307087
Y0291339
Y0299213
Y0307087
X0299213
Y0299213
Y0291339
Y0283465
Y0275591
X0307087
X0291339
Y0283465
Y0291339
Y0299213
Y0307087
X0283465
Y0299213
Y0291339
Y0283465
Y0275591
X0275591
Y0283465
Y0291339
Y0299213
Y0307087
X0259843
Y0299213
X0251969
Y0307087
Y0291339
Y0283465
X0259843
Y0275591
X0267717
X0251969
X0242198Y0277930
Y0272025
X0236293
Y0277930
X0230387
Y0272025
X0224482
Y0277930
X0218576
Y0272025
X0212670
Y0277930
X0212598Y0289370
X0218504
Y0295275
Y0301181
Y0307086
X0212598Y0301181
Y0295275
X0206693Y0301181
X0200787
X0194882
Y0295275
Y0289370
X0194954Y0283836
X0200859
X0206765
X0194954Y0277930
Y0272025
X0189048
X0183143
X0177237
Y0277930
Y0283836
X0177165Y0289370
X0183071
X0183143Y0283836
X0188976Y0289370
X0177165Y0295275
Y0301181
X0171260
Y0295275
Y0289370
X0171332Y0283836
Y0277930
Y0272025
X0165426
Y0277930
Y0283836
X0165354Y0289370
Y0295275
Y0301181
X0159449
Y0295275
Y0289370
X0159521Y0283836
Y0277930
Y0272025
X0201295Y0308118
X0207200
X0236220Y0307086
Y0301181
Y0295275
Y0289370
X0153543
X0147638
X0147710Y0283836
X0141804
X0141732Y0289370
Y0295275
Y0301181
X0135827
Y0295275
Y0289370
X0135899Y0283836
Y0277930
X0141804
Y0272025
X0147710
X0153615
X0135899
X0129993
Y0277930
Y0283836
X0129921Y0289370
Y0295275
Y0301181
X0129993Y0313363
X0135899
X0141804
X0147710
X0141804Y0319269
X0135899
X0129993
X0129921Y0330709
X0135827
X0141732
X0147638
X0153543
Y0348425
X0147638
Y0342520
X0141732
Y0348425
X0135827
Y0342520
Y0336614
X0141732
X0129921
Y0342520
Y0348425
X0152500Y0371000
X0154000Y0380000
X0149500
X0106500Y0390500
X0127000Y0432500
X0125000Y0466500
X0159000Y0462000
Y0455000
Y0450000
Y0445000
X0187969Y0389581
X0217469
X0228468
X0227500Y0363500
X0209500Y0360500
X0193500Y0363500
X0194882Y0348425
Y0342520
X0200787
X0194882Y0336614
Y0330709
X0188976
X0183071
X0177165
Y0336614
Y0342520
Y0348425
X0183071
X0188976
X0171260
Y0342520
Y0336614
Y0330709
X0165354
Y0336614
Y0342520
Y0348425
X0159449
Y0342520
Y0336614
Y0330709
X0159521Y0319269
X0165426
X0171332
X0177237
Y0313363
X0183143
X0194954
Y0319269
X0200787Y0324803
X0206693
X0212598
X0218504
X0224409
X0230315
X0236220
X0242126
Y0330709
Y0336614
X0236220
Y0330709
Y0318898
X0242126
X0251969Y0314961
Y0322835
Y0330709
Y0338583
Y0346457
X0259843
X0267717
X0275591
X0283465
X0291339
X0299213
X0307087
Y0354331
Y0362205
Y0370079
X0299213
Y0362205
Y0354331
X0291339
Y0362205
Y0370079
X0283465
Y0362205
Y0354331
X0275591
Y0362205
Y0370079
X0267717Y0362205
Y0354331
X0259843
Y0338583
X0275591
X0283465
X0291339
X0299213
X0307087
Y0330709
Y0322835
Y0314961
X0299213
Y0322835
Y0330709
X0291339
Y0322835
Y0314961
X0283465
Y0322835
Y0330709
X0275591
Y0322835
Y0314961
X0218504Y0318898
X0212670Y0313363
X0212598Y0330709
X0218504
Y0336614
X0212598
X0179000Y0360681
X0162000Y0363440
X0159521Y0313363
X0165426
X0171332
X0264750Y0391250
X0285750Y0387750
X0284250Y0411750
X0311250Y0391250
X0303000Y0451000
X0308591Y0457635
X0253000Y0444500
X0244500Y0445000
Y0440500
X0354500Y0457500
X0365500Y0462500
X0410000Y0459500
X0394500Y0428000
Y0417500
X0386500Y0388000
X0385827Y0370079
X0393701
X0401575
X0409449
X0417323
X0425197
Y0362205
Y0354331
Y0346457
X0417323
Y0354331
Y0362205
X0409449
Y0354331
Y0346457
X0401575
Y0354331
Y0362205
X0393701
Y0354331
Y0346457
X0385827
Y0354331
Y0362205
X0377953
Y0370079
X0370079
Y0362205
Y0354331
X0377953
Y0346457
X0370079
X0362205
Y0354331
Y0362205
Y0370079
X0354331
Y0362205
Y0354331
Y0346457
Y0338583
X0362205
X0370079
X0377953
X0385827
X0393701
X0401575
Y0330709
Y0322835
Y0314961
X0393701
Y0322835
Y0330709
X0385827
Y0322835
Y0314961
X0377953
Y0322835
Y0330709
X0370079
Y0322835
Y0314961
X0362205
Y0322835
Y0330709
X0354331
Y0322835
Y0314961
X0346457Y0330709
Y0338583
X0338583Y0330709
X0330709
Y0338583
X0322835
Y0346457
Y0354331
Y0362205
Y0370079
X0330709
X0338583
X0346457
X0314961
Y0362205
Y0354331
Y0346457
Y0338583
Y0330709
X0322835
Y0322835
Y0314961
X0314961
Y0322835
X0417323
X0425197
Y0330709
Y0338583
X0437008Y0342520
X0442913
X0448819
X0454724
X0460630
Y0348425
X0454724
X0448819
X0442913
X0437008
Y0330709
X0442913
Y0324803
Y0318898
Y0312992
X0437008
Y0318898
Y0324803
X0454724
X0460630
Y0330709
Y0318898
X0466535
Y0312992
X0460630
X0454724
X0425197Y0314961
X0417323
X0422500Y0391500
X0368500
X0467000Y0415500
X0493217Y0415972
X0504601Y0411286
X0510795Y0418618
X0510930Y0425259
X0520716Y0420972
X0525716Y0429972
X0543716Y0429472
X0543307Y0401575
X0551181
X0547217Y0396972
Y0393972
Y0390972
Y0387972
Y0383472
Y0380472
Y0376972
Y0373472
X0543307Y0370079
X0551181
Y0362205
X0543307
X0535433
Y0370079
Y0377953
X0543307
Y0385827
Y0393701
X0535433
X0528717Y0392972
Y0389972
Y0386972
Y0382472
Y0379472
Y0375972
Y0372472
X0527559Y0362205
X0521716Y0363972
X0519685Y0348425
X0525590
X0531496
X0537401
X0543307
X0549212
Y0342520
Y0336614
X0543307
Y0342520
X0537401
Y0336614
X0531496
Y0342520
X0519685
X0513779
Y0348425
X0507874
Y0342520
Y0336614
X0513779
X0501968
Y0342520
Y0348425
X0496063
Y0342520
X0490157Y0348425
X0484252
Y0342520
Y0336614
X0478346Y0342520
Y0348425
Y0330709
Y0324803
X0484252
X0490157
X0496063
X0501968
X0507874
X0513779
X0519685
X0525590
X0531496
X0537401
X0543307
X0549212
Y0318898
Y0312992
X0543307
Y0318898
X0537401
Y0312992
X0531496
Y0318898
X0519685Y0312992
X0513779
Y0318898
X0507874
Y0312992
X0501968
Y0318898
X0496063Y0312992
X0484252
Y0318898
X0478346
Y0312992
X0472441
Y0318898
X0520488Y0392472
X0528717Y0395972
X0527559Y0401575
X0535433
Y0385827
X0569216Y0387972
Y0391472
Y0394972
Y0398472
Y0383472
Y0379972
Y0376472
Y0372972
X0558500Y0358000
X0528217Y0452972
X0520716Y0455472
X0517717Y0458972
Y0461972
Y0464972
Y0467972
X0514217Y0452472
X0497217Y0439472
X0485716Y0431972
X0517717Y0470972
Y0473972
Y0476972
Y0479972
Y0482972
Y0485972
Y0488972
Y0491972
Y0494972
X0423500Y0469000
X0382500Y0469500
X0309000Y0469000
X0292500Y0474000
X0279000Y0475500
X0261500Y0469000
T04
X0115815Y0404157
Y0423842
T05
X0247705Y0478642
Y0496358
X0273295
Y0478642
X0153795
Y0496358
X0128205
Y0478642
T06
X0315315Y0486500
X0325157
X0335000
X0356315
X0366158
X0376000
X0397158Y0486433
X0407000
X0416843
X0438457Y0489874
Y0480031
Y0470189
T08
X0284500Y0484500
Y0494500
X0298000
Y0484500
T09
X0490748Y0278000
Y0298000
X0525000
Y0278000
X0187000
Y0298000
X0152748
Y0278000
Y0318000
Y0338000
X0187000
Y0318000
X0490748
Y0338000
X0525000
Y0318000
T10
X0411472Y0289807
Y0303193
X0450528
Y0289807
X0266528
Y0303193
X0227472
Y0289807
X0227445Y0318500
Y0331886
X0266500
Y0318500
X0411472Y0318807
Y0332193
X0450528
Y0318807
T11
X0567000Y0281500
X0111500
X0568000Y0489000
X0111500Y0488500
T12
X0338500Y0318000
X0338000Y0353000
M30
