G04*
G04 #@! TF.GenerationSoftware,Altium Limited,Altium Designer,25.8.1 (18)*
G04*
G04 Layer_Physical_Order=4*
G04 Layer_Color=16711680*
%FSLAX25Y25*%
%MOIN*%
G70*
G04*
G04 #@! TF.SameCoordinates,5F6CD9CC-33C6-4A7B-A0D4-F81A13939800*
G04*
G04*
G04 #@! TF.FilePolarity,Positive*
G04*
G01*
G75*
%ADD15C,0.01000*%
%ADD96C,0.09646*%
%ADD97R,0.09646X0.09646*%
%ADD105R,0.26378X0.26378*%
%ADD106C,0.26378*%
%ADD107O,0.07874X0.15748*%
%ADD108O,0.15748X0.07874*%
%ADD109R,0.05937X0.05937*%
%ADD110C,0.08268*%
%ADD111R,0.05937X0.05937*%
%ADD112C,0.05898*%
%ADD113R,0.05898X0.05898*%
%ADD114R,0.06319X0.06319*%
%ADD115O,0.17717X0.07874*%
%ADD116C,0.06319*%
%ADD117C,0.05937*%
%ADD118C,0.01575*%
%ADD119C,0.01772*%
%ADD120C,0.05709*%
%ADD121C,0.03000*%
%ADD122C,0.15748*%
G36*
X410677Y229355D02*
X410975Y196761D01*
X410861Y187990D01*
X410900Y187891D01*
X410892Y187784D01*
X411062Y187264D01*
X411122Y180682D01*
X409295Y178855D01*
X396422D01*
Y173855D01*
X390922Y168355D01*
X364922D01*
Y229355D01*
X410677Y229355D01*
D02*
G37*
G36*
X425922Y166355D02*
X423422Y163855D01*
Y156355D01*
X421422D01*
X419567Y154500D01*
X409422D01*
Y160570D01*
X413422Y164570D01*
Y182078D01*
X411500Y187982D01*
X412025Y228382D01*
X425922D01*
Y166355D01*
D02*
G37*
G36*
X416922Y91855D02*
X378422D01*
Y146355D01*
X392573D01*
X392649Y146171D01*
X393237Y145582D01*
X394006Y145264D01*
X394837D01*
X395606Y145582D01*
X396194Y146171D01*
X396270Y146355D01*
X407922D01*
X407922Y151500D01*
X416922Y151500D01*
Y91855D01*
D02*
G37*
G36*
X476922D02*
X460922D01*
Y143855D01*
X476922D01*
Y91855D01*
D02*
G37*
G36*
X458422D02*
X426922D01*
Y131855D01*
X423922Y134855D01*
Y139855D01*
X458422D01*
Y91855D01*
D02*
G37*
G36*
X330705Y72522D02*
X229920D01*
X147639Y72717D01*
Y73882D01*
X147452Y74334D01*
X147000Y74522D01*
X142151D01*
X141768Y75445D01*
X175205Y108882D01*
X330705D01*
Y72522D01*
D02*
G37*
G36*
X453705Y63022D02*
X383705D01*
X375705Y71022D01*
X333500D01*
Y85382D01*
X453705D01*
Y63022D01*
D02*
G37*
G36*
X106205Y73882D02*
X147000Y73882D01*
Y43071D01*
X116426D01*
Y49397D01*
Y49662D01*
X112705Y53382D01*
X112253Y53570D01*
X99018D01*
X94392Y58195D01*
X94205Y58382D01*
X26205D01*
X26197Y58390D01*
Y82882D01*
X97205D01*
X106205Y73882D01*
D02*
G37*
G36*
X383253Y62570D02*
X383705Y62382D01*
X453705D01*
Y42382D01*
X333500D01*
Y70382D01*
X375440D01*
X383253Y62570D01*
D02*
G37*
G36*
X98753Y52930D02*
X112253D01*
X115786Y49397D01*
Y42120D01*
X115753Y42086D01*
X115566Y41634D01*
Y37022D01*
X26205D01*
Y57743D01*
X93940D01*
X98753Y52930D01*
D02*
G37*
G36*
X454205Y41243D02*
Y21382D01*
X364403D01*
X364351Y21508D01*
Y41743D01*
X453705D01*
X454205Y41243D01*
D02*
G37*
G36*
X147000Y13985D02*
X116059D01*
X111162Y18882D01*
X26205D01*
Y36382D01*
X116205D01*
Y41634D01*
X116453Y41882D01*
X147000D01*
Y13985D01*
D02*
G37*
G36*
X363586Y41547D02*
Y21118D01*
X363961Y20743D01*
X454205D01*
Y1000D01*
X333500D01*
Y41743D01*
X334704D01*
X363586Y41547D01*
D02*
G37*
G36*
X330705Y1000D02*
X149705D01*
Y71882D01*
X330705D01*
Y1000D01*
D02*
G37*
G36*
X115897Y13243D02*
X147000D01*
Y999D01*
X26000D01*
Y18243D01*
X110897D01*
X115897Y13243D01*
D02*
G37*
%LPC*%
G36*
X381827Y202760D02*
X373953D01*
X372771Y202604D01*
X371670Y202148D01*
X370724Y201423D01*
X369998Y200477D01*
X369542Y199375D01*
X369387Y198193D01*
X369542Y197011D01*
X369998Y195910D01*
X370724Y194964D01*
X371670Y194239D01*
X372771Y193782D01*
X373953Y193627D01*
X381827D01*
X383009Y193782D01*
X384110Y194239D01*
X385056Y194964D01*
X385782Y195910D01*
X386238Y197011D01*
X386394Y198193D01*
X386238Y199375D01*
X385782Y200477D01*
X385056Y201423D01*
X384110Y202148D01*
X383009Y202604D01*
X381827Y202760D01*
D02*
G37*
%LPD*%
D15*
X459705Y89382D02*
X464677Y94355D01*
X465422D01*
X426914Y230500D02*
X427500Y229914D01*
X397000Y228500D02*
X399000Y230500D01*
X427500Y193000D02*
Y229914D01*
X399000Y230500D02*
X426914D01*
X396351Y228500D02*
X397000D01*
X422000Y130500D02*
Y143988D01*
Y130500D02*
X425500Y127000D01*
Y97933D02*
Y127000D01*
X422000Y143988D02*
X439500Y161488D01*
X419500Y126048D02*
Y144500D01*
X426000Y151000D01*
X419500Y126048D02*
X421693Y123855D01*
X422922Y95355D02*
X425500Y97933D01*
X439500Y161488D02*
Y164000D01*
X435000Y168500D02*
X439500Y164000D01*
X435000Y168500D02*
Y185500D01*
X427500Y193000D02*
X435000Y185500D01*
X431000Y168500D02*
Y182769D01*
X426922Y164422D02*
X431000Y168500D01*
X429422Y184347D02*
Y184355D01*
Y184347D02*
X431000Y182769D01*
X426000Y154846D02*
X432654Y161500D01*
X426000Y151000D02*
Y154846D01*
X432654Y161500D02*
X435500D01*
X426922Y161355D02*
Y164422D01*
X390922Y163355D02*
X398422Y170855D01*
X145705Y171882D02*
X146246D01*
X147661Y173297D01*
X149119D01*
X149705Y173882D01*
Y196882D01*
X156205Y203382D01*
X191463D01*
X193463Y205382D01*
X193705D01*
X162705Y200382D02*
X259705D01*
X145705Y176382D02*
Y196382D01*
X155205Y205882D01*
X176071D01*
X177071Y206882D01*
X180205D01*
X209863Y188950D02*
X255637D01*
X193705Y181882D02*
X200841Y189018D01*
X209796D01*
X255637Y188950D02*
X255705Y188882D01*
X209796Y189018D02*
X209863Y188950D01*
X235205Y122632D02*
X269705D01*
X269955Y122882D01*
X134705Y91882D02*
X165705Y122882D01*
X80205Y91882D02*
X110705D01*
X283955Y200632D02*
X324455D01*
X267205Y200882D02*
X283705D01*
X324455Y200632D02*
X324705Y200382D01*
X283705Y200882D02*
X283955Y200632D01*
X368205Y158638D02*
X372922Y163355D01*
X386922D01*
X368205Y146882D02*
Y158638D01*
X390922Y150855D02*
Y163355D01*
Y150855D02*
X394422Y147355D01*
X263205Y196882D02*
X267205Y200882D01*
X50705Y171882D02*
X60205Y181382D01*
X50705Y111382D02*
Y171882D01*
X60205Y193382D02*
Y208882D01*
X59063Y210024D02*
X60205Y208882D01*
X55000Y210024D02*
X59063D01*
X23205Y194882D02*
X26205Y197882D01*
X18205Y121882D02*
X23205Y126882D01*
X7705Y121882D02*
X18205D01*
X23205Y126882D02*
Y194882D01*
X89174Y120964D02*
X118674D01*
X53705Y102382D02*
X59705Y108382D01*
X84619D01*
X86705Y110468D01*
Y118495D01*
X89174Y120964D01*
X50766Y94822D02*
X63205D01*
X46205Y99382D02*
X50766Y94822D01*
X46205Y99382D02*
Y172382D01*
X60205Y186382D01*
X186955Y119132D02*
X288455D01*
X63205Y94822D02*
X63235Y94852D01*
X94675D01*
X94705Y94882D01*
X128705D01*
X55205Y171382D02*
X60205Y176382D01*
X55205Y111382D02*
Y171382D01*
X60669Y89822D02*
X62910Y92063D01*
X42734Y89822D02*
X60669D01*
X62910Y92063D02*
X80205D01*
X28205Y104351D02*
Y163882D01*
Y104351D02*
X42734Y89822D01*
X110705Y91882D02*
X134705D01*
X165955Y122632D02*
X212455D01*
X165705Y122882D02*
X165955Y122632D01*
X212455D02*
X235205D01*
X263205Y150632D01*
Y196882D01*
X269955Y122882D02*
X323705D01*
X259705Y200382D02*
X263205Y196882D01*
X144705Y137382D02*
X154205Y146882D01*
Y175882D01*
X144705Y126882D02*
Y137382D01*
X138786Y120964D02*
X144705Y126882D01*
X129674Y120964D02*
X138786D01*
X204205Y179382D02*
Y182382D01*
X190705Y165882D02*
X204205Y179382D01*
X190705Y148382D02*
Y165882D01*
X185455Y143132D02*
X190705Y148382D01*
X308205Y193882D02*
X311205Y190882D01*
X266705Y193882D02*
X308205D01*
X295705Y148882D02*
Y159382D01*
X160205Y181882D02*
X193705D01*
X154205Y175882D02*
X160205Y181882D01*
D96*
X312678Y21190D02*
D03*
X167705Y63268D02*
D03*
X312678Y50190D02*
D03*
X167733Y34575D02*
D03*
X351733Y63575D02*
D03*
Y50190D02*
D03*
X128650Y49882D02*
D03*
Y63268D02*
D03*
X128677Y34575D02*
D03*
Y21190D02*
D03*
X351733D02*
D03*
Y34575D02*
D03*
D97*
X312678D02*
D03*
X167705Y49882D02*
D03*
X312678Y63575D02*
D03*
X167733Y21190D02*
D03*
D105*
X240000Y46000D02*
D03*
D106*
Y89500D02*
D03*
D107*
X358205Y186382D02*
D03*
D108*
X377890Y198193D02*
D03*
D109*
X339662Y201571D02*
D03*
D110*
X53953Y9382D02*
D03*
Y49382D02*
D03*
X88205D02*
D03*
Y9382D02*
D03*
X391953Y69382D02*
D03*
X426205D02*
D03*
Y29382D02*
D03*
X391953D02*
D03*
X426205Y49382D02*
D03*
X391953D02*
D03*
X426205Y9382D02*
D03*
X391953D02*
D03*
X88205Y29382D02*
D03*
X53953D02*
D03*
X88205Y69382D02*
D03*
X53953D02*
D03*
D111*
X318048Y217815D02*
D03*
X236205Y217882D02*
D03*
X277205D02*
D03*
D112*
X174500Y227741D02*
D03*
X55000D02*
D03*
X29410D02*
D03*
Y210024D02*
D03*
X174500D02*
D03*
X148910D02*
D03*
D113*
Y227741D02*
D03*
X55000Y210024D02*
D03*
D114*
X185705Y215882D02*
D03*
X199205D02*
D03*
D115*
X377890Y173784D02*
D03*
D116*
X199205Y225882D02*
D03*
X185705D02*
D03*
D117*
X257520Y217882D02*
D03*
X267363D02*
D03*
X339662Y221256D02*
D03*
Y211414D02*
D03*
X216520Y217882D02*
D03*
X226363D02*
D03*
X308205Y217815D02*
D03*
X298363D02*
D03*
D118*
X99504Y165477D02*
D03*
D119*
X93993D02*
D03*
X99504Y176500D02*
D03*
X93993D02*
D03*
X102260Y168233D02*
D03*
X96748D02*
D03*
X91237D02*
D03*
X102260Y173745D02*
D03*
X91237D02*
D03*
X96748D02*
D03*
D120*
X17020Y135540D02*
D03*
Y155225D02*
D03*
D121*
X328268Y65626D02*
D03*
Y57752D02*
D03*
Y49878D02*
D03*
Y42004D02*
D03*
Y34130D02*
D03*
Y26256D02*
D03*
Y18382D02*
D03*
Y10508D02*
D03*
Y2634D02*
D03*
X320394Y65626D02*
D03*
Y57752D02*
D03*
Y49878D02*
D03*
Y42004D02*
D03*
Y34130D02*
D03*
Y26256D02*
D03*
Y18382D02*
D03*
Y10508D02*
D03*
Y2634D02*
D03*
X312520Y42004D02*
D03*
Y10508D02*
D03*
Y2634D02*
D03*
X304646Y65626D02*
D03*
Y57752D02*
D03*
Y49878D02*
D03*
Y42004D02*
D03*
Y34130D02*
D03*
Y26256D02*
D03*
Y18382D02*
D03*
Y10508D02*
D03*
Y2634D02*
D03*
X296772Y65626D02*
D03*
Y57752D02*
D03*
Y49878D02*
D03*
Y42004D02*
D03*
Y34130D02*
D03*
Y26256D02*
D03*
Y18382D02*
D03*
Y10508D02*
D03*
Y2634D02*
D03*
X288897Y65626D02*
D03*
Y57752D02*
D03*
Y49878D02*
D03*
Y42004D02*
D03*
Y34130D02*
D03*
Y26256D02*
D03*
Y18382D02*
D03*
Y10508D02*
D03*
Y2634D02*
D03*
X281024Y65626D02*
D03*
Y57752D02*
D03*
Y49878D02*
D03*
Y42004D02*
D03*
Y34130D02*
D03*
Y26256D02*
D03*
Y18382D02*
D03*
Y10508D02*
D03*
Y2634D02*
D03*
X273149Y65626D02*
D03*
Y57752D02*
D03*
Y49878D02*
D03*
Y42004D02*
D03*
Y34130D02*
D03*
Y26256D02*
D03*
Y18382D02*
D03*
Y10508D02*
D03*
Y2634D02*
D03*
X265276Y65626D02*
D03*
Y57752D02*
D03*
Y49878D02*
D03*
Y42004D02*
D03*
Y34130D02*
D03*
Y26256D02*
D03*
Y18382D02*
D03*
Y10508D02*
D03*
Y2634D02*
D03*
X257401Y65626D02*
D03*
Y57752D02*
D03*
Y49878D02*
D03*
Y42004D02*
D03*
Y34130D02*
D03*
Y26256D02*
D03*
Y18382D02*
D03*
Y10508D02*
D03*
Y2634D02*
D03*
X249527Y65626D02*
D03*
Y26256D02*
D03*
Y18382D02*
D03*
Y10508D02*
D03*
Y2634D02*
D03*
X241653Y65626D02*
D03*
Y26256D02*
D03*
Y18382D02*
D03*
Y10508D02*
D03*
Y2634D02*
D03*
X233779Y65626D02*
D03*
Y26256D02*
D03*
Y18382D02*
D03*
Y10508D02*
D03*
Y2634D02*
D03*
X225905Y65626D02*
D03*
Y26256D02*
D03*
Y18382D02*
D03*
Y10508D02*
D03*
Y2634D02*
D03*
X218031Y65626D02*
D03*
Y57752D02*
D03*
Y49878D02*
D03*
Y42004D02*
D03*
Y34130D02*
D03*
Y26256D02*
D03*
Y18382D02*
D03*
Y10508D02*
D03*
Y2634D02*
D03*
X210157Y65626D02*
D03*
Y57752D02*
D03*
Y49878D02*
D03*
Y42004D02*
D03*
Y34130D02*
D03*
Y26256D02*
D03*
Y18382D02*
D03*
Y10508D02*
D03*
Y2634D02*
D03*
X202283Y65626D02*
D03*
Y57752D02*
D03*
Y49878D02*
D03*
Y42004D02*
D03*
Y34130D02*
D03*
Y26256D02*
D03*
Y18382D02*
D03*
Y10508D02*
D03*
Y2634D02*
D03*
X194409Y65626D02*
D03*
Y57752D02*
D03*
Y49878D02*
D03*
Y42004D02*
D03*
Y34130D02*
D03*
Y26256D02*
D03*
Y18382D02*
D03*
Y10508D02*
D03*
Y2634D02*
D03*
X186535Y65626D02*
D03*
Y57752D02*
D03*
Y49878D02*
D03*
Y42004D02*
D03*
Y34130D02*
D03*
Y26256D02*
D03*
Y18382D02*
D03*
Y10508D02*
D03*
Y2634D02*
D03*
X178661Y65626D02*
D03*
Y57752D02*
D03*
Y49878D02*
D03*
Y42004D02*
D03*
Y34130D02*
D03*
Y26256D02*
D03*
Y18382D02*
D03*
Y10508D02*
D03*
Y2634D02*
D03*
X326402Y101461D02*
D03*
Y93587D02*
D03*
Y85713D02*
D03*
Y77839D02*
D03*
X318528Y101461D02*
D03*
Y93587D02*
D03*
Y85713D02*
D03*
Y77839D02*
D03*
X310654Y101461D02*
D03*
Y93587D02*
D03*
Y85713D02*
D03*
Y77839D02*
D03*
X302780Y101461D02*
D03*
Y93587D02*
D03*
Y85713D02*
D03*
Y77839D02*
D03*
X294906Y101461D02*
D03*
Y93587D02*
D03*
Y85713D02*
D03*
Y77839D02*
D03*
X287032Y101461D02*
D03*
Y93587D02*
D03*
Y85713D02*
D03*
Y77839D02*
D03*
X279158Y101461D02*
D03*
Y93587D02*
D03*
Y85713D02*
D03*
Y77839D02*
D03*
X271284Y101461D02*
D03*
Y93587D02*
D03*
Y85713D02*
D03*
Y77839D02*
D03*
X263410Y101461D02*
D03*
Y93587D02*
D03*
Y85713D02*
D03*
Y77839D02*
D03*
X255536Y101461D02*
D03*
Y93587D02*
D03*
Y85713D02*
D03*
Y77839D02*
D03*
X224040Y101461D02*
D03*
Y93587D02*
D03*
Y85713D02*
D03*
Y77839D02*
D03*
X216166Y101461D02*
D03*
Y93587D02*
D03*
Y85713D02*
D03*
Y77839D02*
D03*
X208292Y101461D02*
D03*
Y93587D02*
D03*
Y85713D02*
D03*
Y77839D02*
D03*
X200418Y101461D02*
D03*
Y93587D02*
D03*
Y85713D02*
D03*
Y77839D02*
D03*
X192544Y101461D02*
D03*
Y93587D02*
D03*
Y85713D02*
D03*
Y77839D02*
D03*
X184670Y101461D02*
D03*
Y93587D02*
D03*
Y85713D02*
D03*
Y77839D02*
D03*
X176796Y101461D02*
D03*
Y93587D02*
D03*
Y85713D02*
D03*
Y77839D02*
D03*
X168922Y93587D02*
D03*
Y85713D02*
D03*
Y77839D02*
D03*
X161048Y85713D02*
D03*
Y77839D02*
D03*
X153174D02*
D03*
X459705Y89382D02*
D03*
X405806Y142669D02*
D03*
X412135Y156641D02*
D03*
X415000Y184000D02*
D03*
X421922Y186855D02*
D03*
X470422Y126355D02*
D03*
Y122855D02*
D03*
Y129855D02*
D03*
Y119355D02*
D03*
Y111355D02*
D03*
Y114855D02*
D03*
X470500Y104500D02*
D03*
X470422Y107855D02*
D03*
X31198Y3407D02*
D03*
Y9313D02*
D03*
Y15218D02*
D03*
Y44745D02*
D03*
Y50651D02*
D03*
X37104Y3407D02*
D03*
Y9313D02*
D03*
Y15218D02*
D03*
Y44745D02*
D03*
Y50651D02*
D03*
X43009Y3407D02*
D03*
Y9313D02*
D03*
Y15218D02*
D03*
Y44745D02*
D03*
Y50651D02*
D03*
X48915Y3407D02*
D03*
Y15218D02*
D03*
Y44745D02*
D03*
X54821Y3407D02*
D03*
X60726D02*
D03*
Y9313D02*
D03*
Y15218D02*
D03*
Y44745D02*
D03*
Y50651D02*
D03*
X66632Y3407D02*
D03*
Y9313D02*
D03*
Y15218D02*
D03*
Y44745D02*
D03*
Y50651D02*
D03*
X72537Y3407D02*
D03*
Y9313D02*
D03*
Y15218D02*
D03*
Y44745D02*
D03*
Y50651D02*
D03*
X78443Y3407D02*
D03*
Y9313D02*
D03*
Y15218D02*
D03*
Y44745D02*
D03*
Y50651D02*
D03*
X84348Y3407D02*
D03*
Y15218D02*
D03*
Y44745D02*
D03*
X90254Y3407D02*
D03*
X96159D02*
D03*
Y9313D02*
D03*
Y15218D02*
D03*
Y44745D02*
D03*
Y50651D02*
D03*
X113876Y3407D02*
D03*
Y9313D02*
D03*
Y44745D02*
D03*
X119781Y3407D02*
D03*
Y9313D02*
D03*
X125687Y3407D02*
D03*
Y9313D02*
D03*
X131592Y3407D02*
D03*
Y9313D02*
D03*
X137498Y3407D02*
D03*
Y9313D02*
D03*
X143403Y3407D02*
D03*
Y9313D02*
D03*
X102065Y15218D02*
D03*
X107970D02*
D03*
X102500Y39500D02*
D03*
X108405D02*
D03*
X338213Y73902D02*
D03*
Y79808D02*
D03*
X344118Y73902D02*
D03*
Y79808D02*
D03*
X350024Y73902D02*
D03*
Y79808D02*
D03*
X355929Y73902D02*
D03*
Y79808D02*
D03*
X361835Y73902D02*
D03*
Y79808D02*
D03*
X367740Y38469D02*
D03*
X373646D02*
D03*
X379551D02*
D03*
Y73902D02*
D03*
Y79808D02*
D03*
X385457Y26658D02*
D03*
Y32563D02*
D03*
Y38469D02*
D03*
Y67997D02*
D03*
Y73902D02*
D03*
Y79808D02*
D03*
X391362Y38469D02*
D03*
Y79808D02*
D03*
X397268Y32563D02*
D03*
Y38469D02*
D03*
Y73902D02*
D03*
Y79808D02*
D03*
X403173Y26658D02*
D03*
Y32563D02*
D03*
Y38469D02*
D03*
Y67997D02*
D03*
Y73902D02*
D03*
Y79808D02*
D03*
X409079Y26658D02*
D03*
Y32563D02*
D03*
Y38469D02*
D03*
Y67997D02*
D03*
Y73902D02*
D03*
Y79808D02*
D03*
X414985Y26658D02*
D03*
Y32563D02*
D03*
Y38469D02*
D03*
Y67997D02*
D03*
Y73902D02*
D03*
Y79808D02*
D03*
X420890Y32563D02*
D03*
Y38469D02*
D03*
Y73902D02*
D03*
Y79808D02*
D03*
X426795Y38469D02*
D03*
Y79808D02*
D03*
X432701Y26658D02*
D03*
Y32563D02*
D03*
Y38469D02*
D03*
Y67997D02*
D03*
Y73902D02*
D03*
Y79808D02*
D03*
X438607Y26658D02*
D03*
Y32563D02*
D03*
Y38469D02*
D03*
Y67997D02*
D03*
Y73902D02*
D03*
Y79808D02*
D03*
X444512Y26658D02*
D03*
Y32563D02*
D03*
Y38469D02*
D03*
Y67997D02*
D03*
Y73902D02*
D03*
Y79808D02*
D03*
X450418Y26658D02*
D03*
Y32563D02*
D03*
Y38469D02*
D03*
Y67997D02*
D03*
Y73902D02*
D03*
Y79808D02*
D03*
X422000Y205500D02*
D03*
Y196500D02*
D03*
Y217500D02*
D03*
Y193500D02*
D03*
Y223500D02*
D03*
Y220500D02*
D03*
Y199500D02*
D03*
Y208500D02*
D03*
Y211500D02*
D03*
Y214500D02*
D03*
Y202500D02*
D03*
Y190500D02*
D03*
X412000Y150000D02*
D03*
X421922Y152355D02*
D03*
X422000Y226500D02*
D03*
X448422Y104855D02*
D03*
Y111855D02*
D03*
Y108355D02*
D03*
X429922Y124355D02*
D03*
Y127355D02*
D03*
Y121355D02*
D03*
Y118355D02*
D03*
X448422Y128355D02*
D03*
Y119355D02*
D03*
Y122355D02*
D03*
Y125355D02*
D03*
Y114855D02*
D03*
X429922Y110855D02*
D03*
Y103855D02*
D03*
Y107355D02*
D03*
Y113855D02*
D03*
X435500Y161500D02*
D03*
X398422Y170855D02*
D03*
X450418Y56185D02*
D03*
Y50280D02*
D03*
Y44374D02*
D03*
X444512Y56185D02*
D03*
Y50280D02*
D03*
Y44374D02*
D03*
X438607Y56185D02*
D03*
Y50280D02*
D03*
Y44374D02*
D03*
X432701Y56185D02*
D03*
Y50280D02*
D03*
Y44374D02*
D03*
X426795Y56185D02*
D03*
X420890D02*
D03*
Y44374D02*
D03*
X414985Y56185D02*
D03*
Y50280D02*
D03*
Y44374D02*
D03*
X409079Y56185D02*
D03*
Y50280D02*
D03*
Y44374D02*
D03*
X403173Y56185D02*
D03*
Y50280D02*
D03*
Y44374D02*
D03*
X397268Y56185D02*
D03*
Y44374D02*
D03*
X391362Y56185D02*
D03*
X385457D02*
D03*
Y50280D02*
D03*
Y44374D02*
D03*
X379551Y62091D02*
D03*
Y56185D02*
D03*
Y50280D02*
D03*
Y44374D02*
D03*
X373646Y50280D02*
D03*
Y44374D02*
D03*
X367740Y50280D02*
D03*
Y44374D02*
D03*
X361835Y62091D02*
D03*
Y56185D02*
D03*
Y50280D02*
D03*
Y44374D02*
D03*
X355929Y56185D02*
D03*
Y44374D02*
D03*
X344118Y62091D02*
D03*
Y56185D02*
D03*
Y50280D02*
D03*
Y44374D02*
D03*
X338213Y62091D02*
D03*
Y56185D02*
D03*
Y50280D02*
D03*
Y44374D02*
D03*
X450418Y14847D02*
D03*
Y8941D02*
D03*
Y3036D02*
D03*
X444512Y14847D02*
D03*
Y8941D02*
D03*
Y3036D02*
D03*
X438607Y14847D02*
D03*
Y8941D02*
D03*
Y3036D02*
D03*
X432701Y14847D02*
D03*
Y8941D02*
D03*
Y3036D02*
D03*
X426795D02*
D03*
X420890Y14847D02*
D03*
Y3036D02*
D03*
X414985Y14847D02*
D03*
Y8941D02*
D03*
Y3036D02*
D03*
X409079Y14847D02*
D03*
Y8941D02*
D03*
Y3036D02*
D03*
X403173Y14847D02*
D03*
Y8941D02*
D03*
Y3036D02*
D03*
X397268Y14847D02*
D03*
Y3036D02*
D03*
X391362D02*
D03*
X385457Y14847D02*
D03*
Y8941D02*
D03*
Y3036D02*
D03*
X379551D02*
D03*
X373646D02*
D03*
X367740D02*
D03*
X361835Y38469D02*
D03*
Y32563D02*
D03*
Y26658D02*
D03*
Y20752D02*
D03*
Y14847D02*
D03*
Y8941D02*
D03*
Y3036D02*
D03*
X355929Y26658D02*
D03*
Y14847D02*
D03*
Y8941D02*
D03*
Y3036D02*
D03*
X350024Y8941D02*
D03*
Y3036D02*
D03*
X344118Y38469D02*
D03*
Y32563D02*
D03*
Y26658D02*
D03*
Y20752D02*
D03*
Y14847D02*
D03*
Y8941D02*
D03*
Y3036D02*
D03*
X338213Y38469D02*
D03*
Y32563D02*
D03*
Y26658D02*
D03*
Y20752D02*
D03*
Y14847D02*
D03*
Y8941D02*
D03*
Y3036D02*
D03*
X143331Y67997D02*
D03*
Y62091D02*
D03*
Y56185D02*
D03*
Y50280D02*
D03*
X137425Y67997D02*
D03*
Y62091D02*
D03*
Y56185D02*
D03*
Y50280D02*
D03*
X131520Y56185D02*
D03*
X125615D02*
D03*
X119709Y67997D02*
D03*
Y62091D02*
D03*
Y56185D02*
D03*
Y50280D02*
D03*
X113804Y67997D02*
D03*
Y62091D02*
D03*
Y56185D02*
D03*
X107898D02*
D03*
X101992Y73902D02*
D03*
Y56185D02*
D03*
X96087Y79808D02*
D03*
Y73902D02*
D03*
Y67997D02*
D03*
Y62091D02*
D03*
X90181Y79808D02*
D03*
Y62091D02*
D03*
X84276Y79808D02*
D03*
Y62091D02*
D03*
X78370Y79808D02*
D03*
Y73902D02*
D03*
Y67997D02*
D03*
Y62091D02*
D03*
X72465Y79808D02*
D03*
Y73902D02*
D03*
Y67997D02*
D03*
Y62091D02*
D03*
X66559Y79808D02*
D03*
Y73902D02*
D03*
Y67997D02*
D03*
Y62091D02*
D03*
X60654Y79808D02*
D03*
Y73902D02*
D03*
Y67997D02*
D03*
Y62091D02*
D03*
X54748Y79808D02*
D03*
Y62091D02*
D03*
X48843Y79808D02*
D03*
Y73902D02*
D03*
Y62091D02*
D03*
X42937Y79808D02*
D03*
Y73902D02*
D03*
Y67997D02*
D03*
Y62091D02*
D03*
X37032Y79808D02*
D03*
Y73902D02*
D03*
Y67997D02*
D03*
Y62091D02*
D03*
X31126Y79808D02*
D03*
Y73902D02*
D03*
Y67997D02*
D03*
Y62091D02*
D03*
X137425Y38469D02*
D03*
Y32563D02*
D03*
Y26658D02*
D03*
Y20752D02*
D03*
X119709Y38469D02*
D03*
Y32563D02*
D03*
Y26658D02*
D03*
Y20752D02*
D03*
X113804Y32563D02*
D03*
Y26658D02*
D03*
Y20752D02*
D03*
X107898Y32563D02*
D03*
X101992D02*
D03*
X96087D02*
D03*
Y26658D02*
D03*
Y20752D02*
D03*
X90181D02*
D03*
X84276D02*
D03*
X78370Y32563D02*
D03*
Y26658D02*
D03*
Y20752D02*
D03*
X72465Y32563D02*
D03*
Y26658D02*
D03*
Y20752D02*
D03*
X66559Y32563D02*
D03*
Y26658D02*
D03*
Y20752D02*
D03*
X60654Y32563D02*
D03*
Y26658D02*
D03*
Y20752D02*
D03*
X54748D02*
D03*
X48843D02*
D03*
X42937Y32563D02*
D03*
Y26658D02*
D03*
Y20752D02*
D03*
X37032Y32563D02*
D03*
Y26658D02*
D03*
Y20752D02*
D03*
X31126Y32563D02*
D03*
Y26658D02*
D03*
Y20752D02*
D03*
X145705Y176382D02*
D03*
Y171882D02*
D03*
X180205Y206882D02*
D03*
X193705Y205382D02*
D03*
X210205Y200382D02*
D03*
X209796Y189018D02*
D03*
X324705Y200382D02*
D03*
X429422Y184355D02*
D03*
X394422Y147355D02*
D03*
X368205Y146882D02*
D03*
X386922Y163355D02*
D03*
X422922Y95355D02*
D03*
X421693Y123855D02*
D03*
X426922Y161355D02*
D03*
X283705Y200882D02*
D03*
X162705Y200382D02*
D03*
X60205Y181382D02*
D03*
X50705Y111382D02*
D03*
X60205Y193382D02*
D03*
X26205Y197882D02*
D03*
X7705Y121882D02*
D03*
X89174Y120964D02*
D03*
X118674D02*
D03*
X53705Y102382D02*
D03*
X63205Y94822D02*
D03*
X60205Y186382D02*
D03*
X186955Y119132D02*
D03*
X287705Y119382D02*
D03*
X94705Y94882D02*
D03*
X128705D02*
D03*
X60205Y176382D02*
D03*
X55205Y111382D02*
D03*
X80205Y92063D02*
D03*
X110705Y91882D02*
D03*
X165955Y122632D02*
D03*
X212455D02*
D03*
X28205Y163882D02*
D03*
X269705Y122882D02*
D03*
X323705D02*
D03*
X129674Y120964D02*
D03*
X204205Y182382D02*
D03*
X185455Y143132D02*
D03*
X311205Y190882D02*
D03*
X266705Y193882D02*
D03*
X295705Y148882D02*
D03*
Y159382D02*
D03*
X255705Y188882D02*
D03*
X154205Y175882D02*
D03*
D122*
X12705Y219882D02*
D03*
X469205Y220382D02*
D03*
X468205Y12882D02*
D03*
X12705D02*
D03*
M02*
