G04*
G04 #@! TF.GenerationSoftware,Altium Limited,Altium Designer,25.8.1 (18)*
G04*
G04 Layer_Color=16711935*
%FSLAX44Y44*%
%MOMM*%
G71*
G04*
G04 #@! TF.SameCoordinates,0C62A506-4AB3-4D0B-B9C4-09F1DB62E7D0*
G04*
G04*
G04 #@! TF.FilePolarity,Positive*
G04*
G01*
G75*
%ADD10C,0.2000*%
%ADD12C,0.1270*%
%ADD104C,0.2540*%
%ADD137C,0.1000*%
%ADD140C,0.0254*%
%ADD141C,0.0762*%
D10*
X968061Y23831D02*
G03*
X968061Y23831I-1000J0D01*
G01*
X253541Y176231D02*
G03*
X253541Y176231I-1000J0D01*
G01*
X1018071Y427841D02*
G03*
X1018071Y427841I-1000J0D01*
G01*
X1131101Y372491D02*
G03*
X1131101Y372491I-1000J0D01*
G01*
X506981Y530041D02*
G03*
X506981Y530041I-1000J0D01*
G01*
X472691D02*
G03*
X472691Y530041I-1000J0D01*
G01*
X737601Y553421D02*
G03*
X737601Y553421I-1000J0D01*
G01*
X159741Y511511D02*
G03*
X159741Y511511I-1000J0D01*
G01*
X863741Y479491D02*
G03*
X863741Y479491I-1000J0D01*
G01*
X633461Y553421D02*
G03*
X633461Y553421I-1000J0D01*
G01*
X841341Y553251D02*
G03*
X841341Y553251I-1000J0D01*
G01*
X950211Y10041D02*
G03*
X950211Y10041I-1000J0D01*
G01*
X272031Y186211D02*
G03*
X272031Y186211I-1000J0D01*
G01*
X270761Y82071D02*
G03*
X270761Y82071I-1000J0D01*
G01*
X948941Y128151D02*
G03*
X948941Y128151I-1000J0D01*
G01*
X801651Y469941D02*
G03*
X801651Y469941I-1000J0D01*
G01*
X681001D02*
G03*
X681001Y469941I-1000J0D01*
G01*
X531141Y471401D02*
G03*
X531141Y471401I-1000J0D01*
G01*
X412881Y472671D02*
G03*
X412881Y472671I-1000J0D01*
G01*
X861661Y353231D02*
G03*
X861661Y353231I-1000J0D01*
G01*
X730851Y351961D02*
G03*
X730851Y351961I-1000J0D01*
G01*
X580991D02*
G03*
X580991Y351961I-1000J0D01*
G01*
X461611Y353231D02*
G03*
X461611Y353231I-1000J0D01*
G01*
D12*
X124751Y555961D02*
G03*
X124751Y555961I-17550J0D01*
G01*
X428281D02*
G03*
X428281Y555961I-17550J0D01*
G01*
X1153061Y-5569D02*
Y205631D01*
X973061D02*
X1153061D01*
X973061Y-5569D02*
Y205631D01*
Y-5569D02*
X1153061D01*
X66541Y205631D02*
X246541D01*
Y-5569D02*
Y205631D01*
X66541Y-5569D02*
X246541D01*
X66541D02*
Y205631D01*
X944681Y341601D02*
X947881D01*
X944681Y348001D02*
X947881D01*
X944681Y341601D02*
Y348001D01*
X947881Y341601D02*
Y348001D01*
X954841Y348271D02*
X958041D01*
X954841Y341871D02*
X958041D01*
Y348271D01*
X954841Y341871D02*
Y348271D01*
X1012331Y328231D02*
Y331431D01*
X1018731Y328231D02*
Y331431D01*
X1012331D02*
X1018731D01*
X1012331Y328231D02*
X1018731D01*
X1057021Y328951D02*
Y345951D01*
X1066021Y328951D02*
Y345951D01*
X1057021Y328951D02*
X1066021D01*
X1057021Y345951D02*
X1066021D01*
X1021321Y403341D02*
Y416341D01*
X1012821Y403341D02*
X1021321D01*
X1012821D02*
Y416341D01*
X1021321D01*
X1097301Y379191D02*
Y442791D01*
X1162901D01*
Y379191D02*
Y442791D01*
X1097301Y379191D02*
X1162901D01*
X1058721Y367711D02*
Y378311D01*
X1064321Y367711D02*
Y378311D01*
X1058721Y367711D02*
X1064321D01*
X1058721Y378311D02*
X1064321D01*
X579291Y69691D02*
X650761D01*
Y277691D01*
X579291D02*
X650761D01*
X579291Y69691D02*
Y277691D01*
X493281Y535641D02*
Y586441D01*
X518681D01*
Y535641D02*
Y586441D01*
X493281Y535641D02*
X518681D01*
X458991D02*
Y586441D01*
X484391D01*
Y535641D02*
Y586441D01*
X458991Y535641D02*
X484391D01*
X629601Y587421D02*
X728601D01*
Y529921D02*
Y587421D01*
X629601Y529921D02*
X728601D01*
X629601D02*
Y587421D01*
X170741Y526411D02*
X350741D01*
X170741D02*
Y586411D01*
Y331411D02*
Y526411D01*
Y331411D02*
X350741D01*
Y526411D01*
Y586411D01*
X170741D02*
X350741D01*
X896741Y487491D02*
Y586491D01*
X839241Y487491D02*
X896741D01*
X839241D02*
Y586491D01*
X896741D01*
X137151Y526011D02*
Y585911D01*
X77251D02*
X137151D01*
X77251Y526011D02*
Y585911D01*
Y526011D02*
X137151D01*
X380781D02*
Y585911D01*
Y526011D02*
X440681D01*
Y585911D01*
X380781D02*
X440681D01*
X525461Y587421D02*
X624461D01*
Y529921D02*
Y587421D01*
X525461Y529921D02*
X624461D01*
X525461D02*
Y587421D01*
X733341Y529751D02*
Y587251D01*
Y529751D02*
X832341D01*
Y587251D01*
X733341D02*
X832341D01*
X934711Y26541D02*
Y79541D01*
Y26541D02*
X963711D01*
X934711Y79541D02*
X963711D01*
Y26541D02*
Y79541D01*
X285531Y116711D02*
Y169711D01*
X256531D02*
X285531D01*
X256531Y116711D02*
X285531D01*
X256531D02*
Y169711D01*
X284261Y12571D02*
Y65571D01*
X255261D02*
X284261D01*
X255261Y12571D02*
X284261D01*
X255261D02*
Y65571D01*
X933441Y144651D02*
Y197651D01*
Y144651D02*
X962441D01*
X933441Y197651D02*
X962441D01*
Y144651D02*
Y197651D01*
X816751Y444941D02*
X832751D01*
X816751Y473941D02*
X832751D01*
Y444941D02*
Y473941D01*
X816751Y444941D02*
Y473941D01*
X696101Y444941D02*
X712101D01*
X696101Y473941D02*
X712101D01*
Y444941D02*
Y473941D01*
X696101Y444941D02*
Y473941D01*
X546241Y446401D02*
X562241D01*
X546241Y475401D02*
X562241D01*
Y446401D02*
Y475401D01*
X546241Y446401D02*
Y475401D01*
X427981Y447671D02*
X443981D01*
X427981Y476671D02*
X443981D01*
Y447671D02*
Y476671D01*
X427981Y447671D02*
Y476671D01*
X828561Y378231D02*
X844561D01*
X828561Y349231D02*
X844561D01*
X828561D02*
Y378231D01*
X844561Y349231D02*
Y378231D01*
X697751Y376961D02*
X713751D01*
X697751Y347961D02*
X713751D01*
X697751D02*
Y376961D01*
X713751Y347961D02*
Y376961D01*
X547891D02*
X563891D01*
X547891Y347961D02*
X563891D01*
X547891D02*
Y376961D01*
X563891Y347961D02*
Y376961D01*
X428511Y378231D02*
X444511D01*
X428511Y349231D02*
X444511D01*
X428511D02*
Y378231D01*
X444511Y349231D02*
Y378231D01*
D104*
X215741Y553911D02*
Y562375D01*
X219973Y566607D01*
X224205Y562375D01*
Y553911D01*
Y560259D01*
X215741D01*
X228437Y553911D02*
Y566607D01*
X236901Y553911D01*
Y566607D01*
X241133D02*
X249597D01*
X245365D01*
Y553911D01*
X262293Y566607D02*
X253829D01*
Y553911D01*
X262293D01*
X253829Y560259D02*
X258061D01*
X266525Y553911D02*
Y566607D01*
X274988Y553911D01*
Y566607D01*
X279220Y553911D02*
Y566607D01*
X287684Y553911D01*
Y566607D01*
X291916Y553911D02*
Y562375D01*
X296148Y566607D01*
X300380Y562375D01*
Y553911D01*
Y560259D01*
X291916D01*
D137*
X1049921Y311841D02*
Y317341D01*
X1060421Y311841D02*
Y317341D01*
X1049921D02*
X1060421D01*
X1049921Y311841D02*
X1060421D01*
X1069311Y355021D02*
Y360521D01*
X1058811Y355021D02*
Y360521D01*
Y355021D02*
X1069311D01*
X1058811Y360521D02*
X1069311D01*
X1060581Y255291D02*
Y272291D01*
X1070081Y255291D02*
Y272291D01*
X1060581Y255291D02*
X1070081D01*
X1060581Y272291D02*
X1070081D01*
X1027021Y393161D02*
X1032521D01*
X1027021Y403661D02*
X1032521D01*
X1027021Y393161D02*
Y403661D01*
X1032521Y393161D02*
Y403661D01*
X-5269Y331818D02*
Y406724D01*
X41684D01*
X41731Y331818D02*
Y406771D01*
X-5269Y331818D02*
X41731D01*
X119861Y378281D02*
Y393281D01*
X87861Y378281D02*
Y393281D01*
Y378281D02*
X119861D01*
X87861Y393281D02*
X119861D01*
X20841Y425521D02*
Y440021D01*
X42841Y425521D02*
Y440021D01*
X20841D02*
X42841D01*
X20841Y425521D02*
X42841D01*
X42951Y508071D02*
Y522571D01*
X20951Y508071D02*
Y522571D01*
Y508071D02*
X42951D01*
X20951Y522571D02*
X42951D01*
X88751Y443941D02*
X120751D01*
X88751Y458941D02*
X120751D01*
Y443941D02*
Y458941D01*
X88751Y443941D02*
Y458941D01*
D140*
X80023Y286467D02*
X103899D01*
Y256495D02*
Y286467D01*
X80023Y256495D02*
X103899D01*
X80023D02*
Y286467D01*
X100731Y256495D02*
Y257511D01*
X98191D02*
X100731D01*
X98191Y256495D02*
Y257511D01*
Y256495D02*
X100731D01*
X95731D02*
Y257511D01*
X93191D02*
X95731D01*
X93191Y256495D02*
Y257511D01*
Y256495D02*
X95731D01*
X90731D02*
Y257511D01*
X88191D02*
X90731D01*
X88191Y256495D02*
Y257511D01*
Y256495D02*
X90731D01*
X85731D02*
Y257511D01*
X83191D02*
X85731D01*
X83191Y256495D02*
Y257511D01*
Y256495D02*
X85731D01*
X80023Y265211D02*
X80404D01*
Y267751D01*
X80023D02*
X80404D01*
X80023Y265211D02*
Y267751D01*
Y270211D02*
X80404D01*
Y272751D01*
X80023D02*
X80404D01*
X80023Y270211D02*
Y272751D01*
Y275211D02*
X80404D01*
Y277751D01*
X80023D02*
X80404D01*
X80023Y275211D02*
Y277751D01*
X83191Y285451D02*
Y286467D01*
Y285451D02*
X85731D01*
Y286467D01*
X83191D02*
X85731D01*
X88191Y285451D02*
Y286467D01*
Y285451D02*
X90731D01*
Y286467D01*
X88191D02*
X90731D01*
X93191Y285451D02*
Y286467D01*
Y285451D02*
X95731D01*
Y286467D01*
X93191D02*
X95731D01*
X98191Y285451D02*
Y286467D01*
Y285451D02*
X100731D01*
Y286467D01*
X98191D02*
X100731D01*
X103518Y277751D02*
X103899D01*
X103518Y275211D02*
Y277751D01*
Y275211D02*
X103899D01*
Y277751D01*
X103518Y272751D02*
X103899D01*
X103518Y270211D02*
Y272751D01*
Y270211D02*
X103899D01*
Y272751D01*
X103518Y267751D02*
X103899D01*
X103518Y265211D02*
Y267751D01*
Y265211D02*
X103899D01*
Y267751D01*
X91199Y286467D02*
X103899Y273767D01*
D141*
X106191Y283800D02*
X97727Y275336D01*
Y283800D02*
X106191Y275336D01*
X101959Y283800D02*
Y275336D01*
X97727Y279568D02*
X106191D01*
M02*
