G04*
G04 #@! TF.GenerationSoftware,Altium Limited,Altium Designer,25.8.1 (18)*
G04*
G04 Layer_Color=32768*
%FSLAX44Y44*%
%MOMM*%
G71*
G04*
G04 #@! TF.SameCoordinates,0C62A506-4AB3-4D0B-B9C4-09F1DB62E7D0*
G04*
G04*
G04 #@! TF.FilePolarity,Positive*
G04*
G01*
G75*
%ADD10C,0.2000*%
D10*
X294791Y35521D02*
X458091D01*
X294791D02*
Y106121D01*
X458091D01*
Y35521D02*
Y106121D01*
X482711Y488241D02*
Y532241D01*
X463211Y488241D02*
X482711D01*
X463211D02*
Y532241D01*
X482711D01*
X943669Y359101D02*
Y366601D01*
Y359101D02*
X958393D01*
Y366601D01*
X943669D02*
X958393D01*
X943071Y373521D02*
X964071D01*
Y405521D01*
X943071D02*
X964071D01*
X943071Y373521D02*
Y405521D01*
X1015028Y283829D02*
Y294554D01*
X994303D02*
X1015028D01*
X994303Y283829D02*
Y294554D01*
Y283829D02*
X1015028D01*
X1038602Y251010D02*
Y276572D01*
X995540D02*
X1038602D01*
X995540Y251010D02*
Y276572D01*
Y251010D02*
X1038602D01*
X994415Y300721D02*
Y320842D01*
Y300721D02*
X1032536D01*
Y320842D01*
X994415D02*
X1032536D01*
X1009457Y341088D02*
X1052039D01*
Y383670D01*
X1009457D02*
X1052039D01*
X1009457Y341088D02*
Y383670D01*
X1043459Y277964D02*
X1054183D01*
X1043459Y257239D02*
Y277964D01*
Y257239D02*
X1054183D01*
Y277964D01*
X1019080Y284829D02*
Y293554D01*
Y284829D02*
X1036805D01*
Y293554D01*
X1019080D02*
X1036805D01*
X1081820Y343640D02*
X1117820D01*
Y372640D01*
X1081820D02*
X1117820D01*
X1081820Y343640D02*
Y372640D01*
X1142915Y262511D02*
Y295552D01*
Y262511D02*
X1190947D01*
Y295552D01*
X1142915D02*
X1190947D01*
X1125000Y343640D02*
X1161000D01*
Y372640D01*
X1125000D02*
X1161000D01*
X1125000Y343640D02*
Y372640D01*
X1142915Y299340D02*
Y332382D01*
Y299340D02*
X1190947D01*
Y332382D01*
X1142915D02*
X1190947D01*
X967201Y373521D02*
X988201D01*
Y405521D01*
X967201D02*
X988201D01*
X967201Y373521D02*
Y405521D01*
X1025094Y412010D02*
Y433072D01*
Y412010D02*
X1064156D01*
Y433072D01*
X1025094D02*
X1064156D01*
X1011691Y446601D02*
Y469601D01*
Y446601D02*
X1037691D01*
Y469601D01*
X1011691D02*
X1037691D01*
X1012105Y477141D02*
Y510182D01*
Y477141D02*
X1060137D01*
Y510182D01*
X1012105D02*
X1060137D01*
X1012105Y545742D02*
X1060137D01*
Y512701D02*
Y545742D01*
X1012105Y512701D02*
X1060137D01*
X1012105D02*
Y545742D01*
Y581302D02*
X1060137D01*
Y548260D02*
Y581302D01*
X1012105Y548260D02*
X1060137D01*
X1012105D02*
Y581302D01*
X1084681Y446601D02*
Y469601D01*
X1058681D02*
X1084681D01*
X1058681Y446601D02*
Y469601D01*
Y446601D02*
X1084681D01*
X500041Y532751D02*
X519541D01*
X500041Y488751D02*
Y532751D01*
Y488751D02*
X519541D01*
Y532751D01*
X762151Y106121D02*
X925451D01*
Y35521D02*
Y106121D01*
X762151Y35521D02*
X925451D01*
X762151D02*
Y106121D01*
X294721Y108401D02*
X458021D01*
X294721D02*
Y179001D01*
X458021D01*
Y108401D02*
Y179001D01*
X762151Y109181D02*
Y179781D01*
Y109181D02*
X925451D01*
Y179781D01*
X762151D02*
X925451D01*
X441220Y435632D02*
X479302D01*
Y415050D02*
Y435632D01*
X441220Y415050D02*
X479302D01*
X441220D02*
Y435632D01*
X267171Y253897D02*
Y301447D01*
X235671Y253897D02*
X267171D01*
X235671D02*
Y301447D01*
X267171D01*
X190261Y253903D02*
Y301453D01*
X158761Y253903D02*
X190261D01*
X158761D02*
Y301453D01*
X190261D01*
X194491Y240088D02*
Y272088D01*
X215491D01*
Y240088D02*
Y272088D01*
X194491Y240088D02*
X215491D01*
X74920Y311502D02*
X109002D01*
Y292420D02*
Y311502D01*
X74920Y292420D02*
X109002D01*
X74920D02*
Y311502D01*
Y335632D02*
X109002D01*
Y316550D02*
Y335632D01*
X74920Y316550D02*
X109002D01*
X74920D02*
Y335632D01*
X75961Y229231D02*
X107961D01*
X75961D02*
Y250231D01*
X107961D01*
Y229231D02*
Y250231D01*
X61821Y257111D02*
Y289111D01*
X40821Y257111D02*
X61821D01*
X40821D02*
Y289111D01*
X61821D01*
X87001Y397830D02*
X121083D01*
X87001D02*
Y416912D01*
X121083D01*
Y397830D02*
Y416912D01*
X51951Y448565D02*
Y499647D01*
X11951Y448565D02*
X51951D01*
X11951D02*
Y499647D01*
X51951D01*
X827300Y413590D02*
Y434172D01*
Y413590D02*
X865382D01*
Y434172D01*
X827300D02*
X865382D01*
X707529Y413590D02*
Y434172D01*
Y413590D02*
X745611D01*
Y434172D01*
X707529D02*
X745611D01*
X194411Y311818D02*
X215411D01*
X194411Y279818D02*
Y311818D01*
Y279818D02*
X215411D01*
Y311818D01*
X855641Y440741D02*
X875141D01*
Y484741D01*
X855641D02*
X875141D01*
X855641Y440741D02*
Y484741D01*
X736261Y440741D02*
X755761D01*
Y484741D01*
X736261D02*
X755761D01*
X736261Y440741D02*
Y484741D01*
X829681Y481961D02*
Y502961D01*
X797681D02*
X829681D01*
X797681Y481961D02*
Y502961D01*
Y481961D02*
X829681D01*
X720101Y480691D02*
Y501691D01*
X688101D02*
X720101D01*
X688101Y480691D02*
Y501691D01*
Y480691D02*
X720101D01*
X555129Y415050D02*
Y435632D01*
Y415050D02*
X593211D01*
Y435632D01*
X555129D02*
X593211D01*
X270691Y240088D02*
X291691D01*
Y272088D01*
X270691D02*
X291691D01*
X270691Y240088D02*
Y272088D01*
X270611Y311818D02*
X291611D01*
X270611Y279818D02*
Y311818D01*
Y279818D02*
X291611D01*
Y311818D01*
X585131Y443471D02*
X604631D01*
Y487471D01*
X585131D02*
X604631D01*
X585131Y443471D02*
Y487471D01*
X470831Y440171D02*
X490331D01*
Y484171D01*
X470831D02*
X490331D01*
X470831Y440171D02*
Y484171D01*
X538241Y482151D02*
Y503151D01*
Y482151D02*
X570241D01*
Y503151D01*
X538241D02*
X570241D01*
X421401Y483421D02*
Y504421D01*
Y483421D02*
X453401D01*
Y504421D01*
X421401D02*
X453401D01*
X321781Y255998D02*
X357281D01*
Y294998D01*
X321781D02*
X357281D01*
X321781Y255998D02*
Y294998D01*
X360781Y295308D02*
X381781D01*
X360781Y263308D02*
Y295308D01*
Y263308D02*
X381781D01*
Y295308D01*
X821471Y322751D02*
Y343751D01*
Y322751D02*
X853471D01*
Y343751D01*
X821471D02*
X853471D01*
X690661Y321481D02*
Y342481D01*
Y321481D02*
X722661D01*
Y342481D01*
X690661D02*
X722661D01*
X541161Y321481D02*
Y342481D01*
Y321481D02*
X573161D01*
Y342481D01*
X541161D02*
X573161D01*
X420511Y322751D02*
Y343751D01*
Y322751D02*
X452511D01*
Y343751D01*
X420511D02*
X452511D01*
X125600Y508851D02*
X144682D01*
X125600Y474769D02*
Y508851D01*
Y474769D02*
X144682D01*
Y508851D01*
X87001Y420690D02*
Y439772D01*
Y420690D02*
X121083D01*
Y439772D01*
X87001D02*
X121083D01*
X101781Y508461D02*
X122781D01*
X101781Y476461D02*
Y508461D01*
Y476461D02*
X122781D01*
Y508461D01*
X77651D02*
X98651D01*
X77651Y476461D02*
Y508461D01*
Y476461D02*
X98651D01*
Y508461D01*
M02*
