M48
;Layer_Color=9474304
;FILE_FORMAT=4:4
METRIC,LZ
;TYPE=PLATED
T01F00S00C0.2000
T02F00S00C0.3810
T04F00S00C0.8500
T05F00S00C0.9900
T06F00S00C1.0000
T08F00S00C1.0700
T09F00S00C1.4000
T10F00S00C1.6000
T11F00S00C3.0480
T12F00S00C4.5000
%
T01
X00238741Y00420311
X00252741
X00245741Y00427311
X00259741
Y00441311
X00252741Y00448311
X00245741Y00441311
X00238741Y00448311
X00231741Y00441311
Y00427311
T02
X00949061Y00007711
X00964061
X00979061
X00994061
X01009061
X01024061
X01039061
X01054061
X01069061
X01084061
X01099061
X01114061
X01129061
X01144061
Y00022711
Y00037711
X01129061
Y00022711
X01114061
Y00037711
X01099061
Y00022711
Y00067711
X01114061
X01129061
X01144061
Y00082711
Y00097711
X01129061
Y00082711
X01114061
Y00097711
X01099061
Y00082711
X01084061Y00097711
X01069061
Y00082711
X01054061
Y00097711
X01039061
Y00082711
Y00067711
X01054061
X01024061
Y00082711
Y00097711
X01009061
Y00082711
X00994061Y00097711
X00979061
Y00082711
Y00067711
Y00037711
Y00022711
X01024061
X01039061
X01054061
Y00037711
X01069061
X01039061
X01024061
X01009061
X00964061Y00097711
X00949061
X00934061
X00919061
Y00082711
Y00067711
Y00052711
Y00037711
Y00022711
Y00007711
X00934061
X00904061
Y00022711
Y00037711
Y00067711
X00874061
Y00082711
Y00097711
X00859061
Y00082711
Y00067711
Y00052711
X00874061
Y00037711
Y00022711
X00889061
Y00007711
X00874061
X00859061
Y00022711
Y00037711
X00829062Y00037712
Y00057712
Y00077712
Y00097712
X00769062
Y00077712
Y00057712
Y00037712
Y00017712
X00789062
X00809062
X00829062
X00809062Y00037712
X00749062
Y00057712
Y00077712
Y00097712
X00729062
Y00077712
Y00057712
Y00037712
Y00017712
X00749062
X00709062
Y00037712
Y00057712
Y00077712
Y00097712
X00689062
Y00077712
Y00057712
Y00037712
Y00017712
X00669062
Y00037712
Y00057712
Y00077712
Y00097712
X00649062
Y00077712
Y00057712
Y00037712
Y00017712
X00629062
Y00037712
Y00057712
Y00077712
X00609061
Y00057712
Y00037712
Y00017712
X00589061
Y00037712
Y00057712
Y00077712
X00569061
Y00097712
X00549061
Y00077712
Y00057712
X00569061
Y00037712
Y00017712
X00549061
Y00037712
X00529061
Y00057712
Y00077712
Y00097712
X00509061
Y00077712
Y00057712
Y00037712
Y00017712
X00529061
X00489061
Y00037712
Y00057712
Y00077712
Y00097712
X00469061
Y00077712
Y00057712
Y00037712
Y00017712
X00449061
Y00037712
Y00057712
Y00077712
Y00097712
X00409061
Y00077712
X00389061
Y00097712
Y00057712
Y00037712
X00409061
Y00017712
X00429061
X00389061
X00364244Y00023654
Y00008654
X00349244
Y00023654
X00334244
Y00008654
X00319244
Y00023654
X00304244
Y00008654
X00289244
Y00023654
X00289061Y00052711
X00304061
Y00067711
Y00082711
Y00097711
X00289061Y00082711
Y00067711
X00274061Y00082711
X00259061
X00244061
Y00067711
Y00052711
X00244244Y00038654
X00259244
X00274244
X00244244Y00023654
Y00008654
X00229244
X00214244
X00199244
Y00023654
Y00038654
X00199061Y00052711
X00214061
X00214244Y00038654
X00229061Y00052711
X00199061Y00067711
Y00082711
X00184061
Y00067711
Y00052711
X00184244Y00038654
Y00023654
Y00008654
X00169244
Y00023654
Y00038654
X00169061Y00052711
Y00067711
Y00082711
X00154061
Y00067711
Y00052711
X00154244Y00038654
Y00023654
Y00008654
X0026035Y0010033
X0027535
X00349061Y00097711
Y00082711
Y00067711
Y00052711
X00139061
X00124061
X00124244Y00038654
X00109244
X00109061Y00052711
Y00067711
Y00082711
X00094061
Y00067711
Y00052711
X00094244Y00038654
Y00023654
X00109244
Y00008654
X00124244
X00139244
X00094244
X00079244
Y00023654
Y00038654
X00079061Y00052711
Y00067711
Y00082711
X00079244Y00113654
X00094244
X00109244
X00124244
X00109244Y00128654
X00094244
X00079244
X00079061Y00157711
X00094061
X00109061
X00124061
X00139061
Y00202711
X00124061
Y00187711
X00109061
Y00202711
X00094061
Y00187711
Y00172711
X00109061
X00079061
Y00187711
Y00202711
X00136411Y00260051
X00140221Y00282911
X00128791
X00019571Y00309581
X00071641Y00416261
X00066561Y00502621
X00152921Y00491191
Y00473411
Y00460711
Y00448011
X00226501Y00307248
X00301431
X00329371
X00326911Y00241001
X00281191Y00233381
X00240551Y00241001
X00244061Y00202711
Y00187711
X00259061
X00244061Y00172711
Y00157711
X00229061
X00214061
X00199061
Y00172711
Y00187711
Y00202711
X00214061
X00229061
X00184061
Y00187711
Y00172711
Y00157711
X00169061
Y00172711
Y00187711
Y00202711
X00154061
Y00187711
Y00172711
Y00157711
X00154244Y00128654
X00169244
X00184244
X00199244
Y00113654
X00214244
X00244244
Y00128654
X00259061Y00142711
X00274061
X00289061
X00304061
X00319061
X00334061
X00349061
X00364061
Y00157711
Y00172711
X00349061
Y00157711
Y00127711
X00364061
X00389061Y00117712
Y00137712
Y00157712
Y00177712
Y00197712
X00409061
X00429061
X00449061
X00469061
X00489061
X00509061
X00529061
Y00217712
Y00237712
Y00257712
X00509061
Y00237712
Y00217712
X00489061
Y00237712
Y00257712
X00469061
Y00237712
Y00217712
X00449061
Y00237712
Y00257712
X00429061Y00237712
Y00217712
X00409061
Y00177712
X00449061
X00469061
X00489061
X00509061
X00529061
Y00157712
Y00137712
Y00117712
X00509061
Y00137712
Y00157712
X00489061
Y00137712
Y00117712
X00469061
Y00137712
Y00157712
X00449061
Y00137712
Y00117712
X00304061Y00127711
X00289244Y00113654
X00289061Y00157711
X00304061
Y00172711
X00289061
X00203721Y00233841
X00160541Y00240848
X00154244Y00113654
X00169244
X00184244
X00421526Y00311486
X00474866Y00302596
X00471056Y00363556
X00539636Y00311486
X00518681Y00463251
X00532881Y00480105
X00391681Y00446741
X00370091Y00448011
Y00436581
X00649491Y00479761
X00677431Y00492461
X00790461Y00484841
X00751091Y00404831
Y00378161
X00730771Y00303231
X00729062Y00257712
X00749062
X00769062
X00789062
X00809062
X00829062
Y00237712
Y00217712
Y00197712
X00809062
Y00217712
Y00237712
X00789062
Y00217712
Y00197712
X00769062
Y00217712
Y00237712
X00749062
Y00217712
Y00197712
X00729062
Y00217712
Y00237712
X00709062
Y00257712
X00689062
Y00237712
Y00217712
X00709062
Y00197712
X00689062
X00669062
Y00217712
Y00237712
Y00257712
X00649062
Y00237712
Y00217712
Y00197712
Y00177712
X00669062
X00689062
X00709062
X00729062
X00749062
X00769062
Y00157712
Y00137712
Y00117712
X00749062
Y00137712
Y00157712
X00729062
Y00137712
Y00117712
X00709062
Y00137712
Y00157712
X00689062
Y00137712
Y00117712
X00669062
Y00137712
Y00157712
X00649062
Y00137712
Y00117712
X00629062Y00157712
Y00177712
X00609061Y00157712
X00589061
Y00177712
X00569061
Y00197712
Y00217712
Y00237712
Y00257712
X00589061
X00609061
X00629062
X00549061
Y00237712
Y00217712
Y00197712
Y00177712
Y00157712
X00569061
Y00137712
Y00117712
X00549061
Y00137712
X00809062
X00829062
Y00157712
Y00177712
X00859061Y00187711
X00874061
X00889061
X00904061
X00919061
Y00202711
X00904061
X00889061
X00874061
X00859061
Y00157711
X00874061
Y00142711
Y00127711
Y00112711
X00859061
Y00127711
Y00142711
X00904061
X00919061
Y00157711
Y00127711
X00934061
Y00112711
X00919061
X00904061
X00829062Y00117712
X00809062
X00822211Y00312121
X00685051
X00935241Y00373081
X01001831Y00374281
X01030748Y00362379
X0104648Y00381
X01046824Y00397868
X01071681Y00386981
X01084381Y00409841
X01130101Y00408571
X01129062Y00337712
X01149062
X01138991Y00326021
Y00318401
Y00310781
Y00303161
Y00291731
Y00284111
Y00275221
Y00266331
X01129062Y00257712
X01149062
Y00237712
X01129062
X01109062
Y00257712
Y00277712
X01129062
Y00297712
Y00317712
X01109062
X01092001Y00315861
Y00308241
Y00300621
Y00289191
Y00281571
Y00272681
Y00263791
X01089062Y00237712
X01074221Y00242201
X01069061Y00202711
X01084061
X01099061
X01114061
X01129061
X01144061
Y00187711
Y00172711
X01129061
Y00187711
X01114061
Y00172711
X01099061
Y00187711
X01069061
X01054061
Y00202711
X01039061
Y00187711
Y00172711
X01054061
X01024061
Y00187711
Y00202711
X01009061
Y00187711
X00994061Y00202711
X00979061
Y00187711
Y00172711
X00964061Y00187711
Y00202711
Y00157711
Y00142711
X00979061
X00994061
X01009061
X01024061
X01039061
X01054061
X01069061
X01084061
X01099061
X01114061
X01129061
X01144061
Y00127711
Y00112711
X01129061
Y00127711
X01114061
Y00112711
X01099061
Y00127711
X01069061Y00112711
X01054061
Y00127711
X01039061
Y00112711
X01024061
Y00127711
X01009061Y00112711
X00979061
Y00127711
X00964061
Y00112711
X00949061
Y00127711
X01071101Y00314591
X01092001Y00323481
X01089062Y00337712
X01109062
Y00297712
X01194871Y00303161
Y00312051
Y00320941
Y00329831
Y00291731
Y00282841
Y00273951
Y00265061
X01167651Y00227031
X01090731Y00468261
X01071681Y00474611
X01064061Y00483501
Y00491121
Y00498741
Y00506361
X01055171Y00466991
X01011991Y00433971
X00982781Y00414921
X01064061Y00513981
Y00521601
Y00529221
Y00536841
Y00544461
Y00552081
Y00559701
Y00567321
Y00574941
X00824751Y00508971
X00720611Y00510241
X00533921Y00508971
X00492011Y00521671
X00457721Y00525481
X00413271Y00508971
T04
X00043231Y00344271
Y00394271
T05
X00378231Y00533461
Y00578461
X00443231
Y00533461
X00139701
Y00578461
X00074701
Y00533461
T06
X00549961Y00553421
X00574961
X00599961
X00654101
X00679101
X00704101
X00757841Y00553251
X00782841
X00807841
X00862741Y00561991
Y00536991
Y00511991
T08
X00471691Y00548341
Y00573741
X00505981
Y00548341
T09
X00995561Y00023831
Y00074631
X01082561
Y00023831
X00224041
Y00074631
X00137041
Y00023831
Y00125431
Y00176231
X00224041
Y00125431
X00995561
Y00176231
X01082561
Y00125431
T10
X00794201Y00053821
Y00087821
X00893401
Y00053821
X00426041
Y00087821
X00326841
Y00053821
X00326771Y00126701
Y00160701
X00425971
Y00126701
X00794201Y00127481
Y00161481
X00893401
Y00127481
T11
X01189241Y00032721
X00032271
X01191781Y00559771
X00032271Y00558501
T12
X00608851Y00125431
X00607581Y00214331
M30
