G04*
G04 #@! TF.GenerationSoftware,Altium Limited,Altium Designer,25.8.1 (18)*
G04*
G04 Layer_Color=32768*
%FSLAX44Y44*%
%MOMM*%
G71*
G04*
G04 #@! TF.SameCoordinates,0C62A506-4AB3-4D0B-B9C4-09F1DB62E7D0*
G04*
G04*
G04 #@! TF.FilePolarity,Positive*
G04*
G01*
G75*
%ADD13C,0.1524*%
%ADD137C,0.1000*%
%ADD142C,0.0500*%
G36*
X77483Y280291D02*
Y289007D01*
X80651D01*
D01*
X103271D01*
D01*
X106439D01*
Y280291D01*
D01*
Y262671D01*
D01*
Y253955D01*
X103271D01*
D01*
X80651D01*
D01*
X77483D01*
Y262671D01*
D01*
Y280291D01*
D01*
D02*
G37*
D13*
X106439D02*
Y289007D01*
X77483Y280291D02*
Y289007D01*
Y262671D02*
Y280291D01*
Y253955D02*
Y262671D01*
Y253955D02*
X80651D01*
X103271D01*
X106439D01*
Y262671D01*
Y280291D01*
D137*
X1052421Y314591D02*
X1057921D01*
X1055171Y311841D02*
Y317341D01*
X1061311Y357771D02*
X1066811D01*
X1064061Y355021D02*
Y360521D01*
X1029771Y395661D02*
Y401161D01*
X1027021Y398411D02*
X1032521D01*
X29731Y364271D02*
Y374271D01*
X24731Y369271D02*
X34731D01*
X98861Y385781D02*
X108861D01*
X103861Y380781D02*
Y390781D01*
X26841Y432771D02*
X36841D01*
X31841Y427771D02*
Y437771D01*
X26951Y515321D02*
X36951D01*
X31951Y510321D02*
Y520321D01*
X104751Y446441D02*
Y456441D01*
X99751Y451441D02*
X109751D01*
D142*
X970561Y-8069D02*
Y208131D01*
X1155561D01*
Y-8069D02*
Y208131D01*
X970561Y-8069D02*
X1155561D01*
X64041Y208131D02*
X249041D01*
X64041Y-8069D02*
Y208131D01*
Y-8069D02*
X249041D01*
Y208131D01*
X941801Y351981D02*
X950761D01*
X941801Y337621D02*
X950761D01*
X941801D02*
Y351981D01*
X950761Y337621D02*
Y351981D01*
X951961Y337891D02*
X960921D01*
X951961Y352251D02*
X960921D01*
Y337891D02*
Y352251D01*
X951961Y337891D02*
Y352251D01*
X1022711Y325351D02*
Y334311D01*
X1008351Y325351D02*
Y334311D01*
X1022711D01*
X1008351Y325351D02*
X1022711D01*
X1046171Y310091D02*
Y319091D01*
X1064171Y310091D02*
Y319091D01*
X1046171D02*
X1064171D01*
X1046171Y310091D02*
X1064171D01*
X1054371Y322801D02*
Y352101D01*
X1068671Y322801D02*
Y352101D01*
X1054371D02*
X1068671D01*
X1054371Y322801D02*
X1068671D01*
X1073061Y353271D02*
Y362271D01*
X1055061Y353271D02*
Y362271D01*
Y353271D02*
X1073061D01*
X1055061Y362271D02*
X1073061D01*
X1060581Y263791D02*
X1070081D01*
X1065331Y259041D02*
Y268541D01*
X1057831Y248791D02*
Y278791D01*
X1072831Y248791D02*
Y278791D01*
X1057831Y248791D02*
X1072831D01*
X1057831Y278791D02*
X1072831D01*
X1023821Y395841D02*
Y423841D01*
X1010321Y395841D02*
X1023821D01*
X1010321D02*
Y423841D01*
X1023821D01*
X1024271Y387911D02*
X1035271D01*
X1024271Y408911D02*
X1035271D01*
X1024271Y387911D02*
Y408911D01*
X1035271Y387911D02*
Y408911D01*
X1094801Y376691D02*
X1165401D01*
Y445291D01*
X1094801D02*
X1165401D01*
X1094801Y376691D02*
Y445291D01*
X1056021Y363511D02*
Y382511D01*
X1067021Y363511D02*
Y382511D01*
X1056021D02*
X1067021D01*
X1056021Y363511D02*
X1067021D01*
X576791Y67191D02*
X653301D01*
Y280191D01*
X576791D02*
X653301D01*
X576791Y67191D02*
Y280191D01*
X490781Y533141D02*
Y588941D01*
X521181D01*
Y533141D02*
Y588941D01*
X490781Y533141D02*
X521181D01*
X456491D02*
Y588941D01*
X486891D01*
Y533141D02*
Y588941D01*
X456491Y533141D02*
X486891D01*
X627101Y589921D02*
X731101D01*
Y527421D02*
Y589921D01*
X627101Y527421D02*
X731101D01*
X627101D02*
Y589921D01*
X163241Y323911D02*
X358241D01*
Y588911D01*
X163241D02*
X358241D01*
X163241Y323911D02*
Y588911D01*
X899241Y484991D02*
Y588991D01*
X836741Y484991D02*
X899241D01*
X836741D02*
Y588991D01*
X899241D01*
X149701Y523461D02*
Y588461D01*
X64701D02*
X149701D01*
X64701Y523461D02*
Y588461D01*
Y523461D02*
X149701D01*
X368231D02*
Y588461D01*
Y523461D02*
X453231D01*
Y588461D01*
X368231D02*
X453231D01*
X522961Y589921D02*
X626961D01*
Y527421D02*
Y589921D01*
X522961Y527421D02*
X626961D01*
X522961D02*
Y589921D01*
X730841Y527251D02*
Y589751D01*
Y527251D02*
X834841D01*
Y589751D01*
X730841D02*
X834841D01*
X51481Y327271D02*
Y411271D01*
X-10269Y327271D02*
X51481D01*
X-10269D02*
Y411271D01*
X51481D01*
X932211Y17541D02*
X966211D01*
Y88541D01*
X932211D02*
X966211D01*
X932211Y17541D02*
Y88541D01*
X254031Y178711D02*
X288031D01*
X254031Y107711D02*
Y178711D01*
Y107711D02*
X288031D01*
Y178711D01*
X252761Y74571D02*
X286761D01*
X252761Y3571D02*
Y74571D01*
Y3571D02*
X286761D01*
Y74571D01*
X930941Y135651D02*
X964941D01*
Y206651D01*
X930941D02*
X964941D01*
X930941Y135651D02*
Y206651D01*
X83361Y394281D02*
X124361D01*
X83361Y377281D02*
Y394281D01*
Y377281D02*
X124361D01*
Y394281D01*
X10341Y419771D02*
Y445771D01*
X53341Y419771D02*
Y445771D01*
X10341D02*
X53341D01*
X10341Y419771D02*
X53341D01*
X53451Y502321D02*
Y528321D01*
X10451Y502321D02*
Y528321D01*
Y502321D02*
X53451D01*
X10451Y528321D02*
X53451D01*
X803651Y442441D02*
Y476441D01*
Y442441D02*
X845851D01*
Y476441D01*
X803651D02*
X845851D01*
X683001Y442441D02*
Y476441D01*
Y442441D02*
X725201D01*
Y476441D01*
X683001D02*
X725201D01*
X533141Y443901D02*
Y477901D01*
Y443901D02*
X575341D01*
Y477901D01*
X533141D02*
X575341D01*
X414881Y445171D02*
Y479171D01*
Y445171D02*
X457081D01*
Y479171D01*
X414881D02*
X457081D01*
X857661Y346731D02*
Y380731D01*
X815461D02*
X857661D01*
X815461Y346731D02*
Y380731D01*
Y346731D02*
X857661D01*
X726851Y345461D02*
Y379461D01*
X684651D02*
X726851D01*
X684651Y345461D02*
Y379461D01*
Y345461D02*
X726851D01*
X576991D02*
Y379461D01*
X534791D02*
X576991D01*
X534791Y345461D02*
Y379461D01*
Y345461D02*
X576991D01*
X457611Y346731D02*
Y380731D01*
X415411D02*
X457611D01*
X415411Y346731D02*
Y380731D01*
Y346731D02*
X457611D01*
X84251Y442941D02*
Y459941D01*
X125251D01*
Y442941D02*
Y459941D01*
X84251Y442941D02*
X125251D01*
M02*
