G04*
G04 #@! TF.GenerationSoftware,Altium Limited,Altium Designer,25.8.1 (18)*
G04*
G04 Layer_Color=128*
%FSLAX44Y44*%
%MOMM*%
G71*
G04*
G04 #@! TF.SameCoordinates,0C62A506-4AB3-4D0B-B9C4-09F1DB62E7D0*
G04*
G04*
G04 #@! TF.FilePolarity,Positive*
G04*
G01*
G75*
%ADD12C,0.1270*%
D12*
X1075561Y125431D02*
X1089561D01*
X1082561Y118431D02*
Y132431D01*
X988561Y125431D02*
X1002561D01*
X995561Y118431D02*
Y132431D01*
X1075561Y23831D02*
X1089561D01*
X1082561Y16831D02*
Y30831D01*
X988561Y23831D02*
X1002561D01*
X995561Y16831D02*
Y30831D01*
X988561Y74631D02*
X1002561D01*
X995561Y67631D02*
Y81631D01*
X1075561Y74631D02*
X1089561D01*
X1082561Y67631D02*
Y81631D01*
X1075561Y176231D02*
X1089561D01*
X1082561Y169231D02*
Y183231D01*
X988561Y176231D02*
X1002561D01*
X995561Y169231D02*
Y183231D01*
X699101Y553421D02*
X709101D01*
X704101Y548421D02*
Y558421D01*
X69751Y578461D02*
X79651D01*
X74701Y573511D02*
Y583411D01*
X134751Y578461D02*
X144651D01*
X139701Y573511D02*
Y583411D01*
X373281Y578461D02*
X383181D01*
X378231Y573511D02*
Y583411D01*
X438281Y578461D02*
X448181D01*
X443231Y573511D02*
Y583411D01*
X594961Y553421D02*
X604961D01*
X599961Y548421D02*
Y558421D01*
X802841Y553251D02*
X812841D01*
X807841Y548251D02*
Y558251D01*
X585081Y214331D02*
X630081D01*
X607581Y191831D02*
Y236831D01*
X217041Y23831D02*
X231041D01*
X224041Y16831D02*
Y30831D01*
X217041Y125431D02*
X231041D01*
X224041Y118431D02*
Y132431D01*
X130041Y125431D02*
X144041D01*
X137041Y118431D02*
Y132431D01*
X130041Y23831D02*
X144041D01*
X137041Y16831D02*
Y30831D01*
X857741Y511991D02*
X867741D01*
X862741Y506991D02*
Y516991D01*
X954841Y503411D02*
X964841D01*
X959841Y498411D02*
Y508411D01*
X904841Y473411D02*
X914841D01*
X909841Y468411D02*
Y478411D01*
X885401Y161481D02*
X901401D01*
X893401Y153481D02*
Y169481D01*
X885401Y127481D02*
X901401D01*
X893401Y119481D02*
Y135481D01*
X217041Y74631D02*
X231041D01*
X224041Y67631D02*
Y81631D01*
X130041Y74631D02*
X144041D01*
X137041Y67631D02*
Y81631D01*
X217041Y176231D02*
X231041D01*
X224041Y169231D02*
Y183231D01*
X130041Y176231D02*
X144041D01*
X137041Y169231D02*
Y183231D01*
X318771Y126701D02*
X334771D01*
X326771Y118701D02*
Y134701D01*
X318771Y160701D02*
X334771D01*
X326771Y152701D02*
Y168701D01*
X318841Y87821D02*
X334841D01*
X326841Y79821D02*
Y95821D01*
X318841Y53821D02*
X334841D01*
X326841Y45821D02*
Y61821D01*
X418041Y87821D02*
X434041D01*
X426041Y79821D02*
Y95821D01*
X418041Y53821D02*
X434041D01*
X426041Y45821D02*
Y61821D01*
X466341Y548341D02*
X477041D01*
X471691Y542991D02*
Y553691D01*
X954841Y441411D02*
X964841D01*
X959841Y436411D02*
Y446411D01*
X586351Y125431D02*
X631351D01*
X608851Y102931D02*
Y147931D01*
X786201Y161481D02*
X802201D01*
X794201Y153481D02*
Y169481D01*
X786201Y127481D02*
X802201D01*
X794201Y119481D02*
Y135481D01*
X417971Y160701D02*
X433971D01*
X425971Y152701D02*
Y168701D01*
X417971Y126701D02*
X433971D01*
X425971Y118701D02*
Y134701D01*
X786201Y87821D02*
X802201D01*
X794201Y79821D02*
Y95821D01*
X786201Y53821D02*
X802201D01*
X794201Y45821D02*
Y61821D01*
X500631Y548341D02*
X511331D01*
X505981Y542991D02*
Y553691D01*
X500631Y573741D02*
X511331D01*
X505981Y568391D02*
Y579091D01*
X466341Y573741D02*
X477041D01*
X471691Y568391D02*
Y579091D01*
X649101Y553421D02*
X659101D01*
X654101Y548421D02*
Y558421D01*
X674101Y553421D02*
X684101D01*
X679101Y548421D02*
Y558421D01*
X251741Y420311D02*
X253741D01*
X252741Y419311D02*
Y421311D01*
X237741Y420311D02*
X239741D01*
X238741Y419311D02*
Y421311D01*
X251741Y448311D02*
X253741D01*
X252741Y447311D02*
Y449311D01*
X237741Y448311D02*
X239741D01*
X238741Y447311D02*
Y449311D01*
X258741Y427311D02*
X260741D01*
X259741Y426311D02*
Y428311D01*
X244741Y427311D02*
X246741D01*
X245741Y426311D02*
Y428311D01*
X230741Y427311D02*
X232741D01*
X231741Y426311D02*
Y428311D01*
X258741Y441311D02*
X260741D01*
X259741Y440311D02*
Y442311D01*
X230741Y441311D02*
X232741D01*
X231741Y440311D02*
Y442311D01*
X244741Y441311D02*
X246741D01*
X245741Y440311D02*
Y442311D01*
X69751Y533461D02*
X79651D01*
X74701Y528511D02*
Y538411D01*
X134751Y533461D02*
X144651D01*
X139701Y528511D02*
Y538411D01*
X438281Y533461D02*
X448181D01*
X443231Y528511D02*
Y538411D01*
X373281Y533461D02*
X383181D01*
X378231Y528511D02*
Y538411D01*
X857741Y561991D02*
X867741D01*
X862741Y556991D02*
Y566991D01*
X857741Y536991D02*
X867741D01*
X862741Y531991D02*
Y541991D01*
X885401Y53821D02*
X901401D01*
X893401Y45821D02*
Y61821D01*
X885401Y87821D02*
X901401D01*
X893401Y79821D02*
Y95821D01*
X544961Y553421D02*
X554961D01*
X549961Y548421D02*
Y558421D01*
X569961Y553421D02*
X579961D01*
X574961Y548421D02*
Y558421D01*
X777841Y553251D02*
X787841D01*
X782841Y548251D02*
Y558251D01*
X752841Y553251D02*
X762841D01*
X757841Y548251D02*
Y558251D01*
X38981Y344271D02*
X47481D01*
X43231Y340021D02*
Y348521D01*
X38981Y394271D02*
X47481D01*
X43231Y390021D02*
Y398521D01*
X13231Y334271D02*
X19231D01*
X16231Y331271D02*
Y337271D01*
X13231Y404271D02*
X19231D01*
X16231Y401271D02*
Y407271D01*
X1142156Y202711D02*
X1145966D01*
X1144061Y200806D02*
Y204616D01*
X1142156Y187711D02*
X1145966D01*
X1144061Y185806D02*
Y189616D01*
X1142156Y172711D02*
X1145966D01*
X1144061Y170806D02*
Y174616D01*
X1142156Y97711D02*
X1145966D01*
X1144061Y95806D02*
Y99616D01*
X1142156Y82711D02*
X1145966D01*
X1144061Y80806D02*
Y84616D01*
X1142156Y67711D02*
X1145966D01*
X1144061Y65806D02*
Y69616D01*
X1127156Y202711D02*
X1130966D01*
X1129061Y200806D02*
Y204616D01*
X1127156Y187711D02*
X1130966D01*
X1129061Y185806D02*
Y189616D01*
X1127156Y172711D02*
X1130966D01*
X1129061Y170806D02*
Y174616D01*
X1127156Y97711D02*
X1130966D01*
X1129061Y95806D02*
Y99616D01*
X1127156Y82711D02*
X1130966D01*
X1129061Y80806D02*
Y84616D01*
X1127156Y67711D02*
X1130966D01*
X1129061Y65806D02*
Y69616D01*
X1112156Y202711D02*
X1115966D01*
X1114061Y200806D02*
Y204616D01*
X1112156Y187711D02*
X1115966D01*
X1114061Y185806D02*
Y189616D01*
X1112156Y172711D02*
X1115966D01*
X1114061Y170806D02*
Y174616D01*
X1112156Y97711D02*
X1115966D01*
X1114061Y95806D02*
Y99616D01*
X1112156Y82711D02*
X1115966D01*
X1114061Y80806D02*
Y84616D01*
X1112156Y67711D02*
X1115966D01*
X1114061Y65806D02*
Y69616D01*
X1097156Y202711D02*
X1100966D01*
X1099061Y200806D02*
Y204616D01*
X1097156Y187711D02*
X1100966D01*
X1099061Y185806D02*
Y189616D01*
X1097156Y172711D02*
X1100966D01*
X1099061Y170806D02*
Y174616D01*
X1097156Y97711D02*
X1100966D01*
X1099061Y95806D02*
Y99616D01*
X1097156Y82711D02*
X1100966D01*
X1099061Y80806D02*
Y84616D01*
X1097156Y67711D02*
X1100966D01*
X1099061Y65806D02*
Y69616D01*
X1082156Y202711D02*
X1085966D01*
X1084061Y200806D02*
Y204616D01*
X1082156Y97711D02*
X1085966D01*
X1084061Y95806D02*
Y99616D01*
X1067156Y202711D02*
X1070966D01*
X1069061Y200806D02*
Y204616D01*
X1067156Y187711D02*
X1070966D01*
X1069061Y185806D02*
Y189616D01*
X1067156Y97711D02*
X1070966D01*
X1069061Y95806D02*
Y99616D01*
X1067156Y82711D02*
X1070966D01*
X1069061Y80806D02*
Y84616D01*
X1052156Y202711D02*
X1055966D01*
X1054061Y200806D02*
Y204616D01*
X1052156Y187711D02*
X1055966D01*
X1054061Y185806D02*
Y189616D01*
X1052156Y172711D02*
X1055966D01*
X1054061Y170806D02*
Y174616D01*
X1052156Y97711D02*
X1055966D01*
X1054061Y95806D02*
Y99616D01*
X1052156Y82711D02*
X1055966D01*
X1054061Y80806D02*
Y84616D01*
X1052156Y67711D02*
X1055966D01*
X1054061Y65806D02*
Y69616D01*
X1037156Y202711D02*
X1040966D01*
X1039061Y200806D02*
Y204616D01*
X1037156Y187711D02*
X1040966D01*
X1039061Y185806D02*
Y189616D01*
X1037156Y172711D02*
X1040966D01*
X1039061Y170806D02*
Y174616D01*
X1037156Y97711D02*
X1040966D01*
X1039061Y95806D02*
Y99616D01*
X1037156Y82711D02*
X1040966D01*
X1039061Y80806D02*
Y84616D01*
X1037156Y67711D02*
X1040966D01*
X1039061Y65806D02*
Y69616D01*
X1022156Y202711D02*
X1025966D01*
X1024061Y200806D02*
Y204616D01*
X1022156Y187711D02*
X1025966D01*
X1024061Y185806D02*
Y189616D01*
X1022156Y172711D02*
X1025966D01*
X1024061Y170806D02*
Y174616D01*
X1022156Y97711D02*
X1025966D01*
X1024061Y95806D02*
Y99616D01*
X1022156Y82711D02*
X1025966D01*
X1024061Y80806D02*
Y84616D01*
X1022156Y67711D02*
X1025966D01*
X1024061Y65806D02*
Y69616D01*
X1007156Y202711D02*
X1010966D01*
X1009061Y200806D02*
Y204616D01*
X1007156Y187711D02*
X1010966D01*
X1009061Y185806D02*
Y189616D01*
X1007156Y97711D02*
X1010966D01*
X1009061Y95806D02*
Y99616D01*
X1007156Y82711D02*
X1010966D01*
X1009061Y80806D02*
Y84616D01*
X992156Y202711D02*
X995966D01*
X994061Y200806D02*
Y204616D01*
X992156Y97711D02*
X995966D01*
X994061Y95806D02*
Y99616D01*
X977156Y202711D02*
X980966D01*
X979061Y200806D02*
Y204616D01*
X977156Y187711D02*
X980966D01*
X979061Y185806D02*
Y189616D01*
X977156Y172711D02*
X980966D01*
X979061Y170806D02*
Y174616D01*
X977156Y97711D02*
X980966D01*
X979061Y95806D02*
Y99616D01*
X977156Y82711D02*
X980966D01*
X979061Y80806D02*
Y84616D01*
X977156Y67711D02*
X980966D01*
X979061Y65806D02*
Y69616D01*
X962156Y202711D02*
X965966D01*
X964061Y200806D02*
Y204616D01*
X962156Y187711D02*
X965966D01*
X964061Y185806D02*
Y189616D01*
X962156Y97711D02*
X965966D01*
X964061Y95806D02*
Y99616D01*
X947156Y97711D02*
X950966D01*
X949061Y95806D02*
Y99616D01*
X932156Y97711D02*
X935966D01*
X934061Y95806D02*
Y99616D01*
X917156Y202711D02*
X920966D01*
X919061Y200806D02*
Y204616D01*
X917156Y187711D02*
X920966D01*
X919061Y185806D02*
Y189616D01*
X902156Y202711D02*
X905966D01*
X904061Y200806D02*
Y204616D01*
X902156Y187711D02*
X905966D01*
X904061Y185806D02*
Y189616D01*
X887156Y202711D02*
X890966D01*
X889061Y200806D02*
Y204616D01*
X887156Y187711D02*
X890966D01*
X889061Y185806D02*
Y189616D01*
X872156Y202711D02*
X875966D01*
X874061Y200806D02*
Y204616D01*
X872156Y187711D02*
X875966D01*
X874061Y185806D02*
Y189616D01*
X857156Y202711D02*
X860966D01*
X859061Y200806D02*
Y204616D01*
X857156Y187711D02*
X860966D01*
X859061Y185806D02*
Y189616D01*
X1142156Y142711D02*
X1145966D01*
X1144061Y140806D02*
Y144616D01*
X1142156Y127711D02*
X1145966D01*
X1144061Y125806D02*
Y129616D01*
X1142156Y112711D02*
X1145966D01*
X1144061Y110806D02*
Y114616D01*
X1127156Y142711D02*
X1130966D01*
X1129061Y140806D02*
Y144616D01*
X1127156Y127711D02*
X1130966D01*
X1129061Y125806D02*
Y129616D01*
X1127156Y112711D02*
X1130966D01*
X1129061Y110806D02*
Y114616D01*
X1112156Y142711D02*
X1115966D01*
X1114061Y140806D02*
Y144616D01*
X1112156Y127711D02*
X1115966D01*
X1114061Y125806D02*
Y129616D01*
X1112156Y112711D02*
X1115966D01*
X1114061Y110806D02*
Y114616D01*
X1097156Y142711D02*
X1100966D01*
X1099061Y140806D02*
Y144616D01*
X1097156Y127711D02*
X1100966D01*
X1099061Y125806D02*
Y129616D01*
X1097156Y112711D02*
X1100966D01*
X1099061Y110806D02*
Y114616D01*
X1082156Y142711D02*
X1085966D01*
X1084061Y140806D02*
Y144616D01*
X1067156Y142711D02*
X1070966D01*
X1069061Y140806D02*
Y144616D01*
X1067156Y112711D02*
X1070966D01*
X1069061Y110806D02*
Y114616D01*
X1052156Y142711D02*
X1055966D01*
X1054061Y140806D02*
Y144616D01*
X1052156Y127711D02*
X1055966D01*
X1054061Y125806D02*
Y129616D01*
X1052156Y112711D02*
X1055966D01*
X1054061Y110806D02*
Y114616D01*
X1037156Y142711D02*
X1040966D01*
X1039061Y140806D02*
Y144616D01*
X1037156Y127711D02*
X1040966D01*
X1039061Y125806D02*
Y129616D01*
X1037156Y112711D02*
X1040966D01*
X1039061Y110806D02*
Y114616D01*
X1022156Y142711D02*
X1025966D01*
X1024061Y140806D02*
Y144616D01*
X1022156Y127711D02*
X1025966D01*
X1024061Y125806D02*
Y129616D01*
X1022156Y112711D02*
X1025966D01*
X1024061Y110806D02*
Y114616D01*
X1007156Y142711D02*
X1010966D01*
X1009061Y140806D02*
Y144616D01*
X1007156Y112711D02*
X1010966D01*
X1009061Y110806D02*
Y114616D01*
X992156Y142711D02*
X995966D01*
X994061Y140806D02*
Y144616D01*
X977156Y142711D02*
X980966D01*
X979061Y140806D02*
Y144616D01*
X977156Y127711D02*
X980966D01*
X979061Y125806D02*
Y129616D01*
X977156Y112711D02*
X980966D01*
X979061Y110806D02*
Y114616D01*
X962156Y157711D02*
X965966D01*
X964061Y155806D02*
Y159616D01*
X962156Y142711D02*
X965966D01*
X964061Y140806D02*
Y144616D01*
X962156Y127711D02*
X965966D01*
X964061Y125806D02*
Y129616D01*
X962156Y112711D02*
X965966D01*
X964061Y110806D02*
Y114616D01*
X947156Y127711D02*
X950966D01*
X949061Y125806D02*
Y129616D01*
X947156Y112711D02*
X950966D01*
X949061Y110806D02*
Y114616D01*
X932156Y127711D02*
X935966D01*
X934061Y125806D02*
Y129616D01*
X932156Y112711D02*
X935966D01*
X934061Y110806D02*
Y114616D01*
X917156Y157711D02*
X920966D01*
X919061Y155806D02*
Y159616D01*
X917156Y142711D02*
X920966D01*
X919061Y140806D02*
Y144616D01*
X917156Y127711D02*
X920966D01*
X919061Y125806D02*
Y129616D01*
X917156Y112711D02*
X920966D01*
X919061Y110806D02*
Y114616D01*
X902156Y142711D02*
X905966D01*
X904061Y140806D02*
Y144616D01*
X902156Y112711D02*
X905966D01*
X904061Y110806D02*
Y114616D01*
X872156Y157711D02*
X875966D01*
X874061Y155806D02*
Y159616D01*
X872156Y142711D02*
X875966D01*
X874061Y140806D02*
Y144616D01*
X872156Y127711D02*
X875966D01*
X874061Y125806D02*
Y129616D01*
X872156Y112711D02*
X875966D01*
X874061Y110806D02*
Y114616D01*
X857156Y157711D02*
X860966D01*
X859061Y155806D02*
Y159616D01*
X857156Y142711D02*
X860966D01*
X859061Y140806D02*
Y144616D01*
X857156Y127711D02*
X860966D01*
X859061Y125806D02*
Y129616D01*
X857156Y112711D02*
X860966D01*
X859061Y110806D02*
Y114616D01*
X273445Y100330D02*
X277255D01*
X275350Y98425D02*
Y102235D01*
X258445Y100330D02*
X262255D01*
X260350Y98425D02*
Y102235D01*
X272339Y38654D02*
X276149D01*
X274244Y36749D02*
Y40559D01*
X257339Y38654D02*
X261149D01*
X259244Y36749D02*
Y40559D01*
X362339Y23654D02*
X366149D01*
X364244Y21749D02*
Y25559D01*
X362339Y8654D02*
X366149D01*
X364244Y6749D02*
Y10559D01*
X347339Y23654D02*
X351149D01*
X349244Y21749D02*
Y25559D01*
X347339Y8654D02*
X351149D01*
X349244Y6749D02*
Y10559D01*
X332339Y23654D02*
X336149D01*
X334244Y21749D02*
Y25559D01*
X332339Y8654D02*
X336149D01*
X334244Y6749D02*
Y10559D01*
X317339Y23654D02*
X321149D01*
X319244Y21749D02*
Y25559D01*
X317339Y8654D02*
X321149D01*
X319244Y6749D02*
Y10559D01*
X302339Y23654D02*
X306149D01*
X304244Y21749D02*
Y25559D01*
X302339Y8654D02*
X306149D01*
X304244Y6749D02*
Y10559D01*
X287339Y113654D02*
X291149D01*
X289244Y111749D02*
Y115559D01*
X287339Y23654D02*
X291149D01*
X289244Y21749D02*
Y25559D01*
X287339Y8654D02*
X291149D01*
X289244Y6749D02*
Y10559D01*
X242339Y128654D02*
X246149D01*
X244244Y126749D02*
Y130559D01*
X242339Y113654D02*
X246149D01*
X244244Y111749D02*
Y115559D01*
X242339Y38654D02*
X246149D01*
X244244Y36749D02*
Y40559D01*
X242339Y23654D02*
X246149D01*
X244244Y21749D02*
Y25559D01*
X242339Y8654D02*
X246149D01*
X244244Y6749D02*
Y10559D01*
X227339Y8654D02*
X231149D01*
X229244Y6749D02*
Y10559D01*
X212339Y113654D02*
X216149D01*
X214244Y111749D02*
Y115559D01*
X212339Y38654D02*
X216149D01*
X214244Y36749D02*
Y40559D01*
X212339Y8654D02*
X216149D01*
X214244Y6749D02*
Y10559D01*
X197339Y128654D02*
X201149D01*
X199244Y126749D02*
Y130559D01*
X197339Y113654D02*
X201149D01*
X199244Y111749D02*
Y115559D01*
X197339Y38654D02*
X201149D01*
X199244Y36749D02*
Y40559D01*
X197339Y23654D02*
X201149D01*
X199244Y21749D02*
Y25559D01*
X197339Y8654D02*
X201149D01*
X199244Y6749D02*
Y10559D01*
X182339Y128654D02*
X186149D01*
X184244Y126749D02*
Y130559D01*
X182339Y113654D02*
X186149D01*
X184244Y111749D02*
Y115559D01*
X182339Y38654D02*
X186149D01*
X184244Y36749D02*
Y40559D01*
X182339Y23654D02*
X186149D01*
X184244Y21749D02*
Y25559D01*
X182339Y8654D02*
X186149D01*
X184244Y6749D02*
Y10559D01*
X167339Y128654D02*
X171149D01*
X169244Y126749D02*
Y130559D01*
X167339Y113654D02*
X171149D01*
X169244Y111749D02*
Y115559D01*
X167339Y38654D02*
X171149D01*
X169244Y36749D02*
Y40559D01*
X167339Y23654D02*
X171149D01*
X169244Y21749D02*
Y25559D01*
X167339Y8654D02*
X171149D01*
X169244Y6749D02*
Y10559D01*
X152339Y128654D02*
X156149D01*
X154244Y126749D02*
Y130559D01*
X152339Y113654D02*
X156149D01*
X154244Y111749D02*
Y115559D01*
X152339Y38654D02*
X156149D01*
X154244Y36749D02*
Y40559D01*
X152339Y23654D02*
X156149D01*
X154244Y21749D02*
Y25559D01*
X152339Y8654D02*
X156149D01*
X154244Y6749D02*
Y10559D01*
X137339Y8654D02*
X141149D01*
X139244Y6749D02*
Y10559D01*
X122339Y113654D02*
X126149D01*
X124244Y111749D02*
Y115559D01*
X122339Y38654D02*
X126149D01*
X124244Y36749D02*
Y40559D01*
X122339Y8654D02*
X126149D01*
X124244Y6749D02*
Y10559D01*
X107339Y128654D02*
X111149D01*
X109244Y126749D02*
Y130559D01*
X107339Y113654D02*
X111149D01*
X109244Y111749D02*
Y115559D01*
X107339Y38654D02*
X111149D01*
X109244Y36749D02*
Y40559D01*
X107339Y23654D02*
X111149D01*
X109244Y21749D02*
Y25559D01*
X107339Y8654D02*
X111149D01*
X109244Y6749D02*
Y10559D01*
X92339Y128654D02*
X96149D01*
X94244Y126749D02*
Y130559D01*
X92339Y113654D02*
X96149D01*
X94244Y111749D02*
Y115559D01*
X92339Y38654D02*
X96149D01*
X94244Y36749D02*
Y40559D01*
X92339Y23654D02*
X96149D01*
X94244Y21749D02*
Y25559D01*
X92339Y8654D02*
X96149D01*
X94244Y6749D02*
Y10559D01*
X77339Y128654D02*
X81149D01*
X79244Y126749D02*
Y130559D01*
X77339Y113654D02*
X81149D01*
X79244Y111749D02*
Y115559D01*
X77339Y38654D02*
X81149D01*
X79244Y36749D02*
Y40559D01*
X77339Y23654D02*
X81149D01*
X79244Y21749D02*
Y25559D01*
X77339Y8654D02*
X81149D01*
X79244Y6749D02*
Y10559D01*
X827157Y257712D02*
X830967D01*
X829062Y255807D02*
Y259617D01*
X827157Y237712D02*
X830967D01*
X829062Y235807D02*
Y239617D01*
X827157Y217712D02*
X830967D01*
X829062Y215807D02*
Y219617D01*
X827157Y197712D02*
X830967D01*
X829062Y195807D02*
Y199617D01*
X807157Y257712D02*
X810967D01*
X809062Y255807D02*
Y259617D01*
X807157Y237712D02*
X810967D01*
X809062Y235807D02*
Y239617D01*
X807157Y217712D02*
X810967D01*
X809062Y215807D02*
Y219617D01*
X807157Y197712D02*
X810967D01*
X809062Y195807D02*
Y199617D01*
X787157Y257712D02*
X790966D01*
X789062Y255807D02*
Y259617D01*
X787157Y237712D02*
X790966D01*
X789062Y235807D02*
Y239617D01*
X787157Y217712D02*
X790966D01*
X789062Y215807D02*
Y219617D01*
X787157Y197712D02*
X790966D01*
X789062Y195807D02*
Y199617D01*
X767157Y257712D02*
X770966D01*
X769062Y255807D02*
Y259617D01*
X767157Y237712D02*
X770966D01*
X769062Y235807D02*
Y239617D01*
X767157Y217712D02*
X770966D01*
X769062Y215807D02*
Y219617D01*
X767157Y197712D02*
X770966D01*
X769062Y195807D02*
Y199617D01*
X747157Y257712D02*
X750966D01*
X749062Y255807D02*
Y259617D01*
X747157Y237712D02*
X750966D01*
X749062Y235807D02*
Y239617D01*
X747157Y217712D02*
X750966D01*
X749062Y215807D02*
Y219617D01*
X747157Y197712D02*
X750966D01*
X749062Y195807D02*
Y199617D01*
X727157Y257712D02*
X730966D01*
X729062Y255807D02*
Y259617D01*
X727157Y237712D02*
X730966D01*
X729062Y235807D02*
Y239617D01*
X727157Y217712D02*
X730966D01*
X729062Y215807D02*
Y219617D01*
X727157Y197712D02*
X730966D01*
X729062Y195807D02*
Y199617D01*
X707157Y257712D02*
X710966D01*
X709062Y255807D02*
Y259617D01*
X707157Y237712D02*
X710966D01*
X709062Y235807D02*
Y239617D01*
X707157Y217712D02*
X710966D01*
X709062Y215807D02*
Y219617D01*
X707157Y197712D02*
X710966D01*
X709062Y195807D02*
Y199617D01*
X687157Y257712D02*
X690966D01*
X689062Y255807D02*
Y259617D01*
X687157Y237712D02*
X690966D01*
X689062Y235807D02*
Y239617D01*
X687157Y217712D02*
X690966D01*
X689062Y215807D02*
Y219617D01*
X687157Y197712D02*
X690966D01*
X689062Y195807D02*
Y199617D01*
X667157Y257712D02*
X670966D01*
X669062Y255807D02*
Y259617D01*
X667157Y237712D02*
X670966D01*
X669062Y235807D02*
Y239617D01*
X667157Y217712D02*
X670966D01*
X669062Y215807D02*
Y219617D01*
X667157Y197712D02*
X670966D01*
X669062Y195807D02*
Y199617D01*
X647157Y257712D02*
X650966D01*
X649062Y255807D02*
Y259617D01*
X647157Y237712D02*
X650966D01*
X649062Y235807D02*
Y239617D01*
X647157Y217712D02*
X650966D01*
X649062Y215807D02*
Y219617D01*
X647157Y197712D02*
X650966D01*
X649062Y195807D02*
Y199617D01*
X627156Y257712D02*
X630966D01*
X629062Y255807D02*
Y259617D01*
X607156Y257712D02*
X610966D01*
X609061Y255807D02*
Y259617D01*
X587156Y257712D02*
X590966D01*
X589061Y255807D02*
Y259617D01*
X567156Y257712D02*
X570966D01*
X569061Y255807D02*
Y259617D01*
X567156Y237712D02*
X570966D01*
X569061Y235807D02*
Y239617D01*
X567156Y217712D02*
X570966D01*
X569061Y215807D02*
Y219617D01*
X567156Y197712D02*
X570966D01*
X569061Y195807D02*
Y199617D01*
X547156Y257712D02*
X550966D01*
X549061Y255807D02*
Y259617D01*
X547156Y237712D02*
X550966D01*
X549061Y235807D02*
Y239617D01*
X547156Y217712D02*
X550966D01*
X549061Y215807D02*
Y219617D01*
X547156Y197712D02*
X550966D01*
X549061Y195807D02*
Y199617D01*
X527156Y257712D02*
X530966D01*
X529061Y255807D02*
Y259617D01*
X527156Y237712D02*
X530966D01*
X529061Y235807D02*
Y239617D01*
X527156Y217712D02*
X530966D01*
X529061Y215807D02*
Y219617D01*
X527156Y197712D02*
X530966D01*
X529061Y195807D02*
Y199617D01*
X507156Y257712D02*
X510966D01*
X509061Y255807D02*
Y259617D01*
X507156Y237712D02*
X510966D01*
X509061Y235807D02*
Y239617D01*
X507156Y217712D02*
X510966D01*
X509061Y215807D02*
Y219617D01*
X507156Y197712D02*
X510966D01*
X509061Y195807D02*
Y199617D01*
X487156Y257712D02*
X490966D01*
X489061Y255807D02*
Y259617D01*
X487156Y237712D02*
X490966D01*
X489061Y235807D02*
Y239617D01*
X487156Y217712D02*
X490966D01*
X489061Y215807D02*
Y219617D01*
X487156Y197712D02*
X490966D01*
X489061Y195807D02*
Y199617D01*
X467156Y257712D02*
X470966D01*
X469061Y255807D02*
Y259617D01*
X467156Y237712D02*
X470966D01*
X469061Y235807D02*
Y239617D01*
X467156Y217712D02*
X470966D01*
X469061Y215807D02*
Y219617D01*
X467156Y197712D02*
X470966D01*
X469061Y195807D02*
Y199617D01*
X447156Y257712D02*
X450966D01*
X449061Y255807D02*
Y259617D01*
X447156Y237712D02*
X450966D01*
X449061Y235807D02*
Y239617D01*
X447156Y217712D02*
X450966D01*
X449061Y215807D02*
Y219617D01*
X447156Y197712D02*
X450966D01*
X449061Y195807D02*
Y199617D01*
X427156Y237712D02*
X430966D01*
X429061Y235807D02*
Y239617D01*
X427156Y217712D02*
X430966D01*
X429061Y215807D02*
Y219617D01*
X427156Y197712D02*
X430966D01*
X429061Y195807D02*
Y199617D01*
X407156Y217712D02*
X410966D01*
X409061Y215807D02*
Y219617D01*
X407156Y197712D02*
X410966D01*
X409061Y195807D02*
Y199617D01*
X387156Y197712D02*
X390966D01*
X389061Y195807D02*
Y199617D01*
X17031Y558501D02*
X47511D01*
X32271Y543261D02*
Y573741D01*
X1192966Y273951D02*
X1196776D01*
X1194871Y272046D02*
Y275856D01*
X1192966Y265061D02*
X1196776D01*
X1194871Y263156D02*
Y266966D01*
X1192966Y291731D02*
X1196776D01*
X1194871Y289826D02*
Y293636D01*
X1192966Y282841D02*
X1196776D01*
X1194871Y280936D02*
Y284746D01*
X1192966Y303161D02*
X1196776D01*
X1194871Y301256D02*
Y305066D01*
X1192966Y329831D02*
X1196776D01*
X1194871Y327926D02*
Y331736D01*
X1192966Y312051D02*
X1196776D01*
X1194871Y310146D02*
Y313956D01*
X1192966Y320941D02*
X1196776D01*
X1194871Y319036D02*
Y322846D01*
X1069776Y474611D02*
X1073586D01*
X1071681Y472706D02*
Y476516D01*
X1062156Y491121D02*
X1065966D01*
X1064061Y489216D02*
Y493026D01*
X1062156Y483501D02*
X1065966D01*
X1064061Y481596D02*
Y485406D01*
X1062156Y574941D02*
X1065966D01*
X1064061Y573036D02*
Y576846D01*
X1062156Y567321D02*
X1065966D01*
X1064061Y565416D02*
Y569226D01*
X1053266Y466991D02*
X1057076D01*
X1055171Y465086D02*
Y468896D01*
X1044919Y397868D02*
X1048729D01*
X1046824Y395963D02*
Y399773D01*
X1069776Y386981D02*
X1073586D01*
X1071681Y385076D02*
Y388886D01*
X1028843Y362379D02*
X1032653D01*
X1030748Y360474D02*
Y364284D01*
X1044575Y381000D02*
X1048385D01*
X1046480Y379095D02*
Y382905D01*
X1062156Y544461D02*
X1065966D01*
X1064061Y542556D02*
Y546366D01*
X1062156Y536841D02*
X1065966D01*
X1064061Y534936D02*
Y538746D01*
X1062156Y552081D02*
X1065966D01*
X1064061Y550176D02*
Y553986D01*
X1062156Y529221D02*
X1065966D01*
X1064061Y527316D02*
Y531126D01*
X1062156Y521601D02*
X1065966D01*
X1064061Y519696D02*
Y523506D01*
X1062156Y513981D02*
X1065966D01*
X1064061Y512076D02*
Y515886D01*
X1062156Y506361D02*
X1065966D01*
X1064061Y504456D02*
Y508266D01*
X1062156Y498741D02*
X1065966D01*
X1064061Y496836D02*
Y500646D01*
X1062156Y559701D02*
X1065966D01*
X1064061Y557796D02*
Y561606D01*
X1165746Y227031D02*
X1169556D01*
X1167651Y225126D02*
Y228936D01*
X1142156Y37711D02*
X1145966D01*
X1144061Y35806D02*
Y39616D01*
X1142156Y22711D02*
X1145966D01*
X1144061Y20806D02*
Y24616D01*
X1142156Y7711D02*
X1145966D01*
X1144061Y5806D02*
Y9616D01*
X1127156Y37711D02*
X1130966D01*
X1129061Y35806D02*
Y39616D01*
X1127156Y22711D02*
X1130966D01*
X1129061Y20806D02*
Y24616D01*
X1127156Y7711D02*
X1130966D01*
X1129061Y5806D02*
Y9616D01*
X1112156Y37711D02*
X1115966D01*
X1114061Y35806D02*
Y39616D01*
X1112156Y22711D02*
X1115966D01*
X1114061Y20806D02*
Y24616D01*
X1112156Y7711D02*
X1115966D01*
X1114061Y5806D02*
Y9616D01*
X1097156Y37711D02*
X1100966D01*
X1099061Y35806D02*
Y39616D01*
X1097156Y22711D02*
X1100966D01*
X1099061Y20806D02*
Y24616D01*
X1097156Y7711D02*
X1100966D01*
X1099061Y5806D02*
Y9616D01*
X1082156Y7711D02*
X1085966D01*
X1084061Y5806D02*
Y9616D01*
X1067156Y37711D02*
X1070966D01*
X1069061Y35806D02*
Y39616D01*
X1067156Y7711D02*
X1070966D01*
X1069061Y5806D02*
Y9616D01*
X1052156Y37711D02*
X1055966D01*
X1054061Y35806D02*
Y39616D01*
X1052156Y22711D02*
X1055966D01*
X1054061Y20806D02*
Y24616D01*
X1052156Y7711D02*
X1055966D01*
X1054061Y5806D02*
Y9616D01*
X1037156Y37711D02*
X1040966D01*
X1039061Y35806D02*
Y39616D01*
X1037156Y22711D02*
X1040966D01*
X1039061Y20806D02*
Y24616D01*
X1037156Y7711D02*
X1040966D01*
X1039061Y5806D02*
Y9616D01*
X1022156Y37711D02*
X1025966D01*
X1024061Y35806D02*
Y39616D01*
X1022156Y22711D02*
X1025966D01*
X1024061Y20806D02*
Y24616D01*
X1022156Y7711D02*
X1025966D01*
X1024061Y5806D02*
Y9616D01*
X1007156Y37711D02*
X1010966D01*
X1009061Y35806D02*
Y39616D01*
X1007156Y7711D02*
X1010966D01*
X1009061Y5806D02*
Y9616D01*
X992156Y7711D02*
X995966D01*
X994061Y5806D02*
Y9616D01*
X977156Y37711D02*
X980966D01*
X979061Y35806D02*
Y39616D01*
X977156Y22711D02*
X980966D01*
X979061Y20806D02*
Y24616D01*
X977156Y7711D02*
X980966D01*
X979061Y5806D02*
Y9616D01*
X962156Y7711D02*
X965966D01*
X964061Y5806D02*
Y9616D01*
X947156Y7711D02*
X950966D01*
X949061Y5806D02*
Y9616D01*
X932156Y7711D02*
X935966D01*
X934061Y5806D02*
Y9616D01*
X917156Y97711D02*
X920966D01*
X919061Y95806D02*
Y99616D01*
X917156Y82711D02*
X920966D01*
X919061Y80806D02*
Y84616D01*
X917156Y67711D02*
X920966D01*
X919061Y65806D02*
Y69616D01*
X917156Y52711D02*
X920966D01*
X919061Y50806D02*
Y54616D01*
X917156Y37711D02*
X920966D01*
X919061Y35806D02*
Y39616D01*
X917156Y22711D02*
X920966D01*
X919061Y20806D02*
Y24616D01*
X917156Y7711D02*
X920966D01*
X919061Y5806D02*
Y9616D01*
X902156Y67711D02*
X905966D01*
X904061Y65806D02*
Y69616D01*
X902156Y37711D02*
X905966D01*
X904061Y35806D02*
Y39616D01*
X902156Y22711D02*
X905966D01*
X904061Y20806D02*
Y24616D01*
X902156Y7711D02*
X905966D01*
X904061Y5806D02*
Y9616D01*
X887156Y22711D02*
X890966D01*
X889061Y20806D02*
Y24616D01*
X887156Y7711D02*
X890966D01*
X889061Y5806D02*
Y9616D01*
X872156Y97711D02*
X875966D01*
X874061Y95806D02*
Y99616D01*
X872156Y82711D02*
X875966D01*
X874061Y80806D02*
Y84616D01*
X872156Y67711D02*
X875966D01*
X874061Y65806D02*
Y69616D01*
X872156Y52711D02*
X875966D01*
X874061Y50806D02*
Y54616D01*
X872156Y37711D02*
X875966D01*
X874061Y35806D02*
Y39616D01*
X872156Y22711D02*
X875966D01*
X874061Y20806D02*
Y24616D01*
X872156Y7711D02*
X875966D01*
X874061Y5806D02*
Y9616D01*
X857156Y97711D02*
X860966D01*
X859061Y95806D02*
Y99616D01*
X857156Y82711D02*
X860966D01*
X859061Y80806D02*
Y84616D01*
X857156Y67711D02*
X860966D01*
X859061Y65806D02*
Y69616D01*
X857156Y52711D02*
X860966D01*
X859061Y50806D02*
Y54616D01*
X857156Y37711D02*
X860966D01*
X859061Y35806D02*
Y39616D01*
X857156Y22711D02*
X860966D01*
X859061Y20806D02*
Y24616D01*
X857156Y7711D02*
X860966D01*
X859061Y5806D02*
Y9616D01*
X362156Y172711D02*
X365966D01*
X364061Y170806D02*
Y174616D01*
X362156Y157711D02*
X365966D01*
X364061Y155806D02*
Y159616D01*
X362156Y142711D02*
X365966D01*
X364061Y140806D02*
Y144616D01*
X362156Y127711D02*
X365966D01*
X364061Y125806D02*
Y129616D01*
X347156Y172711D02*
X350966D01*
X349061Y170806D02*
Y174616D01*
X347156Y157711D02*
X350966D01*
X349061Y155806D02*
Y159616D01*
X347156Y142711D02*
X350966D01*
X349061Y140806D02*
Y144616D01*
X347156Y127711D02*
X350966D01*
X349061Y125806D02*
Y129616D01*
X332156Y142711D02*
X335966D01*
X334061Y140806D02*
Y144616D01*
X317156Y142711D02*
X320966D01*
X319061Y140806D02*
Y144616D01*
X302156Y172711D02*
X305966D01*
X304061Y170806D02*
Y174616D01*
X302156Y157711D02*
X305966D01*
X304061Y155806D02*
Y159616D01*
X302156Y142711D02*
X305966D01*
X304061Y140806D02*
Y144616D01*
X302156Y127711D02*
X305966D01*
X304061Y125806D02*
Y129616D01*
X287156Y172711D02*
X290966D01*
X289061Y170806D02*
Y174616D01*
X287156Y157711D02*
X290966D01*
X289061Y155806D02*
Y159616D01*
X287156Y142711D02*
X290966D01*
X289061Y140806D02*
Y144616D01*
X272156Y142711D02*
X275966D01*
X274061Y140806D02*
Y144616D01*
X257156Y187711D02*
X260966D01*
X259061Y185806D02*
Y189616D01*
X257156Y142711D02*
X260966D01*
X259061Y140806D02*
Y144616D01*
X242156Y202711D02*
X245966D01*
X244061Y200806D02*
Y204616D01*
X242156Y187711D02*
X245966D01*
X244061Y185806D02*
Y189616D01*
X242156Y172711D02*
X245966D01*
X244061Y170806D02*
Y174616D01*
X242156Y157711D02*
X245966D01*
X244061Y155806D02*
Y159616D01*
X227156Y202711D02*
X230966D01*
X229061Y200806D02*
Y204616D01*
X227156Y157711D02*
X230966D01*
X229061Y155806D02*
Y159616D01*
X212156Y202711D02*
X215966D01*
X214061Y200806D02*
Y204616D01*
X212156Y157711D02*
X215966D01*
X214061Y155806D02*
Y159616D01*
X197156Y202711D02*
X200966D01*
X199061Y200806D02*
Y204616D01*
X197156Y187711D02*
X200966D01*
X199061Y185806D02*
Y189616D01*
X197156Y172711D02*
X200966D01*
X199061Y170806D02*
Y174616D01*
X197156Y157711D02*
X200966D01*
X199061Y155806D02*
Y159616D01*
X182156Y202711D02*
X185966D01*
X184061Y200806D02*
Y204616D01*
X182156Y187711D02*
X185966D01*
X184061Y185806D02*
Y189616D01*
X182156Y172711D02*
X185966D01*
X184061Y170806D02*
Y174616D01*
X182156Y157711D02*
X185966D01*
X184061Y155806D02*
Y159616D01*
X167156Y202711D02*
X170966D01*
X169061Y200806D02*
Y204616D01*
X167156Y187711D02*
X170966D01*
X169061Y185806D02*
Y189616D01*
X167156Y172711D02*
X170966D01*
X169061Y170806D02*
Y174616D01*
X167156Y157711D02*
X170966D01*
X169061Y155806D02*
Y159616D01*
X152156Y202711D02*
X155966D01*
X154061Y200806D02*
Y204616D01*
X152156Y187711D02*
X155966D01*
X154061Y185806D02*
Y189616D01*
X152156Y172711D02*
X155966D01*
X154061Y170806D02*
Y174616D01*
X152156Y157711D02*
X155966D01*
X154061Y155806D02*
Y159616D01*
X137156Y202711D02*
X140966D01*
X139061Y200806D02*
Y204616D01*
X137156Y157711D02*
X140966D01*
X139061Y155806D02*
Y159616D01*
X122156Y202711D02*
X125966D01*
X124061Y200806D02*
Y204616D01*
X122156Y187711D02*
X125966D01*
X124061Y185806D02*
Y189616D01*
X122156Y157711D02*
X125966D01*
X124061Y155806D02*
Y159616D01*
X107156Y202711D02*
X110966D01*
X109061Y200806D02*
Y204616D01*
X107156Y187711D02*
X110966D01*
X109061Y185806D02*
Y189616D01*
X107156Y172711D02*
X110966D01*
X109061Y170806D02*
Y174616D01*
X107156Y157711D02*
X110966D01*
X109061Y155806D02*
Y159616D01*
X92156Y202711D02*
X95966D01*
X94061Y200806D02*
Y204616D01*
X92156Y187711D02*
X95966D01*
X94061Y185806D02*
Y189616D01*
X92156Y172711D02*
X95966D01*
X94061Y170806D02*
Y174616D01*
X92156Y157711D02*
X95966D01*
X94061Y155806D02*
Y159616D01*
X77156Y202711D02*
X80966D01*
X79061Y200806D02*
Y204616D01*
X77156Y187711D02*
X80966D01*
X79061Y185806D02*
Y189616D01*
X77156Y172711D02*
X80966D01*
X79061Y170806D02*
Y174616D01*
X77156Y157711D02*
X80966D01*
X79061Y155806D02*
Y159616D01*
X347156Y97711D02*
X350966D01*
X349061Y95806D02*
Y99616D01*
X347156Y82711D02*
X350966D01*
X349061Y80806D02*
Y84616D01*
X347156Y67711D02*
X350966D01*
X349061Y65806D02*
Y69616D01*
X347156Y52711D02*
X350966D01*
X349061Y50806D02*
Y54616D01*
X302156Y97711D02*
X305966D01*
X304061Y95806D02*
Y99616D01*
X302156Y82711D02*
X305966D01*
X304061Y80806D02*
Y84616D01*
X302156Y67711D02*
X305966D01*
X304061Y65806D02*
Y69616D01*
X302156Y52711D02*
X305966D01*
X304061Y50806D02*
Y54616D01*
X287156Y82711D02*
X290966D01*
X289061Y80806D02*
Y84616D01*
X287156Y67711D02*
X290966D01*
X289061Y65806D02*
Y69616D01*
X287156Y52711D02*
X290966D01*
X289061Y50806D02*
Y54616D01*
X272156Y82711D02*
X275966D01*
X274061Y80806D02*
Y84616D01*
X257156Y82711D02*
X260966D01*
X259061Y80806D02*
Y84616D01*
X242156Y82711D02*
X245966D01*
X244061Y80806D02*
Y84616D01*
X242156Y67711D02*
X245966D01*
X244061Y65806D02*
Y69616D01*
X242156Y52711D02*
X245966D01*
X244061Y50806D02*
Y54616D01*
X227156Y52711D02*
X230966D01*
X229061Y50806D02*
Y54616D01*
X212156Y52711D02*
X215966D01*
X214061Y50806D02*
Y54616D01*
X197156Y82711D02*
X200966D01*
X199061Y80806D02*
Y84616D01*
X197156Y67711D02*
X200966D01*
X199061Y65806D02*
Y69616D01*
X197156Y52711D02*
X200966D01*
X199061Y50806D02*
Y54616D01*
X182156Y82711D02*
X185966D01*
X184061Y80806D02*
Y84616D01*
X182156Y67711D02*
X185966D01*
X184061Y65806D02*
Y69616D01*
X182156Y52711D02*
X185966D01*
X184061Y50806D02*
Y54616D01*
X167156Y82711D02*
X170966D01*
X169061Y80806D02*
Y84616D01*
X167156Y67711D02*
X170966D01*
X169061Y65806D02*
Y69616D01*
X167156Y52711D02*
X170966D01*
X169061Y50806D02*
Y54616D01*
X152156Y82711D02*
X155966D01*
X154061Y80806D02*
Y84616D01*
X152156Y67711D02*
X155966D01*
X154061Y65806D02*
Y69616D01*
X152156Y52711D02*
X155966D01*
X154061Y50806D02*
Y54616D01*
X137156Y52711D02*
X140966D01*
X139061Y50806D02*
Y54616D01*
X122156Y52711D02*
X125966D01*
X124061Y50806D02*
Y54616D01*
X107156Y82711D02*
X110966D01*
X109061Y80806D02*
Y84616D01*
X107156Y67711D02*
X110966D01*
X109061Y65806D02*
Y69616D01*
X107156Y52711D02*
X110966D01*
X109061Y50806D02*
Y54616D01*
X92156Y82711D02*
X95966D01*
X94061Y80806D02*
Y84616D01*
X92156Y67711D02*
X95966D01*
X94061Y65806D02*
Y69616D01*
X92156Y52711D02*
X95966D01*
X94061Y50806D02*
Y54616D01*
X77156Y82711D02*
X80966D01*
X79061Y80806D02*
Y84616D01*
X77156Y67711D02*
X80966D01*
X79061Y65806D02*
Y69616D01*
X77156Y52711D02*
X80966D01*
X79061Y50806D02*
Y54616D01*
X1147157Y337712D02*
X1150967D01*
X1149062Y335807D02*
Y339617D01*
X1147157Y257712D02*
X1150967D01*
X1149062Y255807D02*
Y259617D01*
X1147157Y237712D02*
X1150967D01*
X1149062Y235807D02*
Y239617D01*
X1127157Y337712D02*
X1130967D01*
X1129062Y335807D02*
Y339617D01*
X1127157Y317712D02*
X1130967D01*
X1129062Y315807D02*
Y319617D01*
X1127157Y297712D02*
X1130967D01*
X1129062Y295807D02*
Y299617D01*
X1127157Y277712D02*
X1130967D01*
X1129062Y275807D02*
Y279617D01*
X1127157Y257712D02*
X1130967D01*
X1129062Y255807D02*
Y259617D01*
X1127157Y237712D02*
X1130967D01*
X1129062Y235807D02*
Y239617D01*
X1107157Y337712D02*
X1110967D01*
X1109062Y335807D02*
Y339617D01*
X1107157Y317712D02*
X1110967D01*
X1109062Y315807D02*
Y319617D01*
X1107157Y297712D02*
X1110967D01*
X1109062Y295807D02*
Y299617D01*
X1107157Y277712D02*
X1110967D01*
X1109062Y275807D02*
Y279617D01*
X1107157Y257712D02*
X1110967D01*
X1109062Y255807D02*
Y259617D01*
X1107157Y237712D02*
X1110967D01*
X1109062Y235807D02*
Y239617D01*
X1087157Y337712D02*
X1090967D01*
X1089062Y335807D02*
Y339617D01*
X1087157Y237712D02*
X1090967D01*
X1089062Y235807D02*
Y239617D01*
X827157Y177712D02*
X830967D01*
X829062Y175807D02*
Y179617D01*
X827157Y157712D02*
X830967D01*
X829062Y155807D02*
Y159617D01*
X827157Y137712D02*
X830967D01*
X829062Y135807D02*
Y139617D01*
X827157Y117712D02*
X830967D01*
X829062Y115807D02*
Y119617D01*
X827157Y97712D02*
X830967D01*
X829062Y95807D02*
Y99617D01*
X827157Y77712D02*
X830967D01*
X829062Y75807D02*
Y79617D01*
X827157Y57712D02*
X830967D01*
X829062Y55807D02*
Y59617D01*
X827157Y37712D02*
X830967D01*
X829062Y35807D02*
Y39617D01*
X827157Y17712D02*
X830967D01*
X829062Y15807D02*
Y19617D01*
X807157Y137712D02*
X810967D01*
X809062Y135807D02*
Y139617D01*
X807157Y117712D02*
X810967D01*
X809062Y115807D02*
Y119617D01*
X807157Y37712D02*
X810967D01*
X809062Y35807D02*
Y39617D01*
X807157Y17712D02*
X810967D01*
X809062Y15807D02*
Y19617D01*
X787157Y17712D02*
X790966D01*
X789062Y15807D02*
Y19617D01*
X767157Y177712D02*
X770966D01*
X769062Y175807D02*
Y179617D01*
X767157Y157712D02*
X770966D01*
X769062Y155807D02*
Y159617D01*
X767157Y137712D02*
X770966D01*
X769062Y135807D02*
Y139617D01*
X767157Y117712D02*
X770966D01*
X769062Y115807D02*
Y119617D01*
X767157Y97712D02*
X770966D01*
X769062Y95807D02*
Y99617D01*
X767157Y77712D02*
X770966D01*
X769062Y75807D02*
Y79617D01*
X767157Y57712D02*
X770966D01*
X769062Y55807D02*
Y59617D01*
X767157Y37712D02*
X770966D01*
X769062Y35807D02*
Y39617D01*
X767157Y17712D02*
X770966D01*
X769062Y15807D02*
Y19617D01*
X747157Y177712D02*
X750966D01*
X749062Y175807D02*
Y179617D01*
X747157Y157712D02*
X750966D01*
X749062Y155807D02*
Y159617D01*
X747157Y137712D02*
X750966D01*
X749062Y135807D02*
Y139617D01*
X747157Y117712D02*
X750966D01*
X749062Y115807D02*
Y119617D01*
X747157Y97712D02*
X750966D01*
X749062Y95807D02*
Y99617D01*
X747157Y77712D02*
X750966D01*
X749062Y75807D02*
Y79617D01*
X747157Y57712D02*
X750966D01*
X749062Y55807D02*
Y59617D01*
X747157Y37712D02*
X750966D01*
X749062Y35807D02*
Y39617D01*
X747157Y17712D02*
X750966D01*
X749062Y15807D02*
Y19617D01*
X727157Y177712D02*
X730966D01*
X729062Y175807D02*
Y179617D01*
X727157Y157712D02*
X730966D01*
X729062Y155807D02*
Y159617D01*
X727157Y137712D02*
X730966D01*
X729062Y135807D02*
Y139617D01*
X727157Y117712D02*
X730966D01*
X729062Y115807D02*
Y119617D01*
X727157Y97712D02*
X730966D01*
X729062Y95807D02*
Y99617D01*
X727157Y77712D02*
X730966D01*
X729062Y75807D02*
Y79617D01*
X727157Y57712D02*
X730966D01*
X729062Y55807D02*
Y59617D01*
X727157Y37712D02*
X730966D01*
X729062Y35807D02*
Y39617D01*
X727157Y17712D02*
X730966D01*
X729062Y15807D02*
Y19617D01*
X707157Y177712D02*
X710966D01*
X709062Y175807D02*
Y179617D01*
X707157Y157712D02*
X710966D01*
X709062Y155807D02*
Y159617D01*
X707157Y137712D02*
X710966D01*
X709062Y135807D02*
Y139617D01*
X707157Y117712D02*
X710966D01*
X709062Y115807D02*
Y119617D01*
X707157Y97712D02*
X710966D01*
X709062Y95807D02*
Y99617D01*
X707157Y77712D02*
X710966D01*
X709062Y75807D02*
Y79617D01*
X707157Y57712D02*
X710966D01*
X709062Y55807D02*
Y59617D01*
X707157Y37712D02*
X710966D01*
X709062Y35807D02*
Y39617D01*
X707157Y17712D02*
X710966D01*
X709062Y15807D02*
Y19617D01*
X687157Y177712D02*
X690966D01*
X689062Y175807D02*
Y179617D01*
X687157Y157712D02*
X690966D01*
X689062Y155807D02*
Y159617D01*
X687157Y137712D02*
X690966D01*
X689062Y135807D02*
Y139617D01*
X687157Y117712D02*
X690966D01*
X689062Y115807D02*
Y119617D01*
X687157Y97712D02*
X690966D01*
X689062Y95807D02*
Y99617D01*
X687157Y77712D02*
X690966D01*
X689062Y75807D02*
Y79617D01*
X687157Y57712D02*
X690966D01*
X689062Y55807D02*
Y59617D01*
X687157Y37712D02*
X690966D01*
X689062Y35807D02*
Y39617D01*
X687157Y17712D02*
X690966D01*
X689062Y15807D02*
Y19617D01*
X667157Y177712D02*
X670966D01*
X669062Y175807D02*
Y179617D01*
X667157Y157712D02*
X670966D01*
X669062Y155807D02*
Y159617D01*
X667157Y137712D02*
X670966D01*
X669062Y135807D02*
Y139617D01*
X667157Y117712D02*
X670966D01*
X669062Y115807D02*
Y119617D01*
X667157Y97712D02*
X670966D01*
X669062Y95807D02*
Y99617D01*
X667157Y77712D02*
X670966D01*
X669062Y75807D02*
Y79617D01*
X667157Y57712D02*
X670966D01*
X669062Y55807D02*
Y59617D01*
X667157Y37712D02*
X670966D01*
X669062Y35807D02*
Y39617D01*
X667157Y17712D02*
X670966D01*
X669062Y15807D02*
Y19617D01*
X647157Y177712D02*
X650966D01*
X649062Y175807D02*
Y179617D01*
X647157Y157712D02*
X650966D01*
X649062Y155807D02*
Y159617D01*
X647157Y137712D02*
X650966D01*
X649062Y135807D02*
Y139617D01*
X647157Y117712D02*
X650966D01*
X649062Y115807D02*
Y119617D01*
X647157Y97712D02*
X650966D01*
X649062Y95807D02*
Y99617D01*
X647157Y77712D02*
X650966D01*
X649062Y75807D02*
Y79617D01*
X647157Y57712D02*
X650966D01*
X649062Y55807D02*
Y59617D01*
X647157Y37712D02*
X650966D01*
X649062Y35807D02*
Y39617D01*
X647157Y17712D02*
X650966D01*
X649062Y15807D02*
Y19617D01*
X627156Y177712D02*
X630966D01*
X629062Y175807D02*
Y179617D01*
X627156Y157712D02*
X630966D01*
X629062Y155807D02*
Y159617D01*
X627156Y77712D02*
X630966D01*
X629062Y75807D02*
Y79617D01*
X627156Y57712D02*
X630966D01*
X629062Y55807D02*
Y59617D01*
X627156Y37712D02*
X630966D01*
X629062Y35807D02*
Y39617D01*
X627156Y17712D02*
X630966D01*
X629062Y15807D02*
Y19617D01*
X607156Y157712D02*
X610966D01*
X609061Y155807D02*
Y159617D01*
X607156Y77712D02*
X610966D01*
X609061Y75807D02*
Y79617D01*
X607156Y57712D02*
X610966D01*
X609061Y55807D02*
Y59617D01*
X607156Y37712D02*
X610966D01*
X609061Y35807D02*
Y39617D01*
X607156Y17712D02*
X610966D01*
X609061Y15807D02*
Y19617D01*
X587156Y177712D02*
X590966D01*
X589061Y175807D02*
Y179617D01*
X587156Y157712D02*
X590966D01*
X589061Y155807D02*
Y159617D01*
X587156Y77712D02*
X590966D01*
X589061Y75807D02*
Y79617D01*
X587156Y57712D02*
X590966D01*
X589061Y55807D02*
Y59617D01*
X587156Y37712D02*
X590966D01*
X589061Y35807D02*
Y39617D01*
X587156Y17712D02*
X590966D01*
X589061Y15807D02*
Y19617D01*
X567156Y177712D02*
X570966D01*
X569061Y175807D02*
Y179617D01*
X567156Y157712D02*
X570966D01*
X569061Y155807D02*
Y159617D01*
X567156Y137712D02*
X570966D01*
X569061Y135807D02*
Y139617D01*
X567156Y117712D02*
X570966D01*
X569061Y115807D02*
Y119617D01*
X567156Y97712D02*
X570966D01*
X569061Y95807D02*
Y99617D01*
X567156Y77712D02*
X570966D01*
X569061Y75807D02*
Y79617D01*
X567156Y57712D02*
X570966D01*
X569061Y55807D02*
Y59617D01*
X567156Y37712D02*
X570966D01*
X569061Y35807D02*
Y39617D01*
X567156Y17712D02*
X570966D01*
X569061Y15807D02*
Y19617D01*
X547156Y177712D02*
X550966D01*
X549061Y175807D02*
Y179617D01*
X547156Y157712D02*
X550966D01*
X549061Y155807D02*
Y159617D01*
X547156Y137712D02*
X550966D01*
X549061Y135807D02*
Y139617D01*
X547156Y117712D02*
X550966D01*
X549061Y115807D02*
Y119617D01*
X547156Y97712D02*
X550966D01*
X549061Y95807D02*
Y99617D01*
X547156Y77712D02*
X550966D01*
X549061Y75807D02*
Y79617D01*
X547156Y57712D02*
X550966D01*
X549061Y55807D02*
Y59617D01*
X547156Y37712D02*
X550966D01*
X549061Y35807D02*
Y39617D01*
X547156Y17712D02*
X550966D01*
X549061Y15807D02*
Y19617D01*
X527156Y177712D02*
X530966D01*
X529061Y175807D02*
Y179617D01*
X527156Y157712D02*
X530966D01*
X529061Y155807D02*
Y159617D01*
X527156Y137712D02*
X530966D01*
X529061Y135807D02*
Y139617D01*
X527156Y117712D02*
X530966D01*
X529061Y115807D02*
Y119617D01*
X527156Y97712D02*
X530966D01*
X529061Y95807D02*
Y99617D01*
X527156Y77712D02*
X530966D01*
X529061Y75807D02*
Y79617D01*
X527156Y57712D02*
X530966D01*
X529061Y55807D02*
Y59617D01*
X527156Y37712D02*
X530966D01*
X529061Y35807D02*
Y39617D01*
X527156Y17712D02*
X530966D01*
X529061Y15807D02*
Y19617D01*
X507156Y177712D02*
X510966D01*
X509061Y175807D02*
Y179617D01*
X507156Y157712D02*
X510966D01*
X509061Y155807D02*
Y159617D01*
X507156Y137712D02*
X510966D01*
X509061Y135807D02*
Y139617D01*
X507156Y117712D02*
X510966D01*
X509061Y115807D02*
Y119617D01*
X507156Y97712D02*
X510966D01*
X509061Y95807D02*
Y99617D01*
X507156Y77712D02*
X510966D01*
X509061Y75807D02*
Y79617D01*
X507156Y57712D02*
X510966D01*
X509061Y55807D02*
Y59617D01*
X507156Y37712D02*
X510966D01*
X509061Y35807D02*
Y39617D01*
X507156Y17712D02*
X510966D01*
X509061Y15807D02*
Y19617D01*
X487156Y177712D02*
X490966D01*
X489061Y175807D02*
Y179617D01*
X487156Y157712D02*
X490966D01*
X489061Y155807D02*
Y159617D01*
X487156Y137712D02*
X490966D01*
X489061Y135807D02*
Y139617D01*
X487156Y117712D02*
X490966D01*
X489061Y115807D02*
Y119617D01*
X487156Y97712D02*
X490966D01*
X489061Y95807D02*
Y99617D01*
X487156Y77712D02*
X490966D01*
X489061Y75807D02*
Y79617D01*
X487156Y57712D02*
X490966D01*
X489061Y55807D02*
Y59617D01*
X487156Y37712D02*
X490966D01*
X489061Y35807D02*
Y39617D01*
X487156Y17712D02*
X490966D01*
X489061Y15807D02*
Y19617D01*
X467156Y177712D02*
X470966D01*
X469061Y175807D02*
Y179617D01*
X467156Y157712D02*
X470966D01*
X469061Y155807D02*
Y159617D01*
X467156Y137712D02*
X470966D01*
X469061Y135807D02*
Y139617D01*
X467156Y117712D02*
X470966D01*
X469061Y115807D02*
Y119617D01*
X467156Y97712D02*
X470966D01*
X469061Y95807D02*
Y99617D01*
X467156Y77712D02*
X470966D01*
X469061Y75807D02*
Y79617D01*
X467156Y57712D02*
X470966D01*
X469061Y55807D02*
Y59617D01*
X467156Y37712D02*
X470966D01*
X469061Y35807D02*
Y39617D01*
X467156Y17712D02*
X470966D01*
X469061Y15807D02*
Y19617D01*
X447156Y177712D02*
X450966D01*
X449061Y175807D02*
Y179617D01*
X447156Y157712D02*
X450966D01*
X449061Y155807D02*
Y159617D01*
X447156Y137712D02*
X450966D01*
X449061Y135807D02*
Y139617D01*
X447156Y117712D02*
X450966D01*
X449061Y115807D02*
Y119617D01*
X447156Y97712D02*
X450966D01*
X449061Y95807D02*
Y99617D01*
X447156Y77712D02*
X450966D01*
X449061Y75807D02*
Y79617D01*
X447156Y57712D02*
X450966D01*
X449061Y55807D02*
Y59617D01*
X447156Y37712D02*
X450966D01*
X449061Y35807D02*
Y39617D01*
X447156Y17712D02*
X450966D01*
X449061Y15807D02*
Y19617D01*
X427156Y17712D02*
X430966D01*
X429061Y15807D02*
Y19617D01*
X407156Y177712D02*
X410966D01*
X409061Y175807D02*
Y179617D01*
X407156Y97712D02*
X410966D01*
X409061Y95807D02*
Y99617D01*
X407156Y77712D02*
X410966D01*
X409061Y75807D02*
Y79617D01*
X407156Y37712D02*
X410966D01*
X409061Y35807D02*
Y39617D01*
X407156Y17712D02*
X410966D01*
X409061Y15807D02*
Y19617D01*
X387156Y177712D02*
X390966D01*
X389061Y175807D02*
Y179617D01*
X387156Y157712D02*
X390966D01*
X389061Y155807D02*
Y159617D01*
X387156Y137712D02*
X390966D01*
X389061Y135807D02*
Y139617D01*
X387156Y117712D02*
X390966D01*
X389061Y115807D02*
Y119617D01*
X387156Y97712D02*
X390966D01*
X389061Y95807D02*
Y99617D01*
X387156Y77712D02*
X390966D01*
X389061Y75807D02*
Y79617D01*
X387156Y57712D02*
X390966D01*
X389061Y55807D02*
Y59617D01*
X387156Y37712D02*
X390966D01*
X389061Y35807D02*
Y39617D01*
X387156Y17712D02*
X390966D01*
X389061Y15807D02*
Y19617D01*
X368186Y448011D02*
X371996D01*
X370091Y446106D02*
Y449916D01*
X368186Y436581D02*
X371996D01*
X370091Y434676D02*
Y438486D01*
X455816Y525481D02*
X459626D01*
X457721Y523576D02*
Y527386D01*
X490106Y521671D02*
X493916D01*
X492011Y519766D02*
Y523576D01*
X532016Y508971D02*
X535826D01*
X533921Y507066D02*
Y510876D01*
X530976Y480105D02*
X534786D01*
X532881Y478200D02*
Y482010D01*
X822846Y508971D02*
X826656D01*
X824751Y507066D02*
Y510876D01*
X1088826Y468261D02*
X1092636D01*
X1090731Y466356D02*
Y470166D01*
X999926Y374281D02*
X1003736D01*
X1001831Y372376D02*
Y376186D01*
X1010086Y433971D02*
X1013896D01*
X1011991Y432066D02*
Y435876D01*
X933336Y373081D02*
X937146D01*
X935241Y371176D02*
Y374986D01*
X980876Y414921D02*
X984686D01*
X982781Y413016D02*
Y416826D01*
X1072316Y242201D02*
X1076126D01*
X1074221Y240296D02*
Y244106D01*
X1090096Y272681D02*
X1093906D01*
X1092001Y270776D02*
Y274586D01*
X1090096Y289191D02*
X1093906D01*
X1092001Y287286D02*
Y291096D01*
X1090096Y281571D02*
X1093906D01*
X1092001Y279666D02*
Y283476D01*
X1090096Y263791D02*
X1093906D01*
X1092001Y261886D02*
Y265696D01*
X1137086Y291731D02*
X1140896D01*
X1138991Y289826D02*
Y293636D01*
X1137086Y318401D02*
X1140896D01*
X1138991Y316496D02*
Y320306D01*
X1137086Y310781D02*
X1140896D01*
X1138991Y308876D02*
Y312686D01*
X1176541Y559771D02*
X1207021D01*
X1191781Y544531D02*
Y575011D01*
X1137086Y303161D02*
X1140896D01*
X1138991Y301256D02*
Y305066D01*
X1137086Y326021D02*
X1140896D01*
X1138991Y324116D02*
Y327926D01*
X1090096Y300621D02*
X1093906D01*
X1092001Y298716D02*
Y302526D01*
X1069196Y314591D02*
X1073006D01*
X1071101Y312686D02*
Y316496D01*
X1128196Y408571D02*
X1132006D01*
X1130101Y406666D02*
Y410476D01*
X1090096Y308241D02*
X1093906D01*
X1092001Y306336D02*
Y310146D01*
X1082476Y409841D02*
X1086286D01*
X1084381Y407936D02*
Y411746D01*
X1090096Y323481D02*
X1093906D01*
X1092001Y321576D02*
Y325386D01*
X1090096Y315861D02*
X1093906D01*
X1092001Y313956D02*
Y317766D01*
X1137086Y275221D02*
X1140896D01*
X1138991Y273316D02*
Y277126D01*
X1137086Y284111D02*
X1140896D01*
X1138991Y282206D02*
Y286016D01*
X1137086Y266331D02*
X1140896D01*
X1138991Y264426D02*
Y268236D01*
X718706Y510241D02*
X722516D01*
X720611Y508336D02*
Y512146D01*
X411366Y508971D02*
X415176D01*
X413271Y507066D02*
Y510876D01*
X151016Y460711D02*
X154826D01*
X152921Y458806D02*
Y462616D01*
X126886Y282911D02*
X130696D01*
X128791Y281006D02*
Y284816D01*
X151016Y491191D02*
X154826D01*
X152921Y489286D02*
Y493096D01*
X64656Y502621D02*
X68466D01*
X66561Y500716D02*
Y504526D01*
X17666Y309581D02*
X21476D01*
X19571Y307676D02*
Y311486D01*
X224596Y307248D02*
X228406D01*
X226501Y305343D02*
Y309153D01*
X299526Y307248D02*
X303336D01*
X301431Y305343D02*
Y309153D01*
X134506Y260051D02*
X138316D01*
X136411Y258146D02*
Y261956D01*
X158636Y240848D02*
X162446D01*
X160541Y238943D02*
Y242753D01*
X151016Y473411D02*
X154826D01*
X152921Y471506D02*
Y475316D01*
X472961Y302596D02*
X476771D01*
X474866Y300691D02*
Y304501D01*
X728866Y303231D02*
X732676D01*
X730771Y301326D02*
Y305136D01*
X238646Y241001D02*
X242456D01*
X240551Y239096D02*
Y242906D01*
X325006Y241001D02*
X328816D01*
X326911Y239096D02*
Y242906D01*
X151016Y448011D02*
X154826D01*
X152921Y446106D02*
Y449916D01*
X138316Y282911D02*
X142126D01*
X140221Y281006D02*
Y284816D01*
X201816Y233841D02*
X205626D01*
X203721Y231936D02*
Y235746D01*
X279286Y233381D02*
X283096D01*
X281191Y231476D02*
Y235286D01*
X419621Y311486D02*
X423431D01*
X421526Y309581D02*
Y313391D01*
X537731Y311486D02*
X541541D01*
X539636Y309581D02*
Y313391D01*
X69736Y416261D02*
X73546D01*
X71641Y414356D02*
Y418166D01*
X683146Y312121D02*
X686956D01*
X685051Y310216D02*
Y314026D01*
X820306Y312121D02*
X824116D01*
X822211Y310216D02*
Y314026D01*
X1174001Y32721D02*
X1204481D01*
X1189241Y17481D02*
Y47961D01*
X17031Y32721D02*
X47511D01*
X32271Y17481D02*
Y47961D01*
X327466Y307248D02*
X331276D01*
X329371Y305343D02*
Y309153D01*
X516776Y463251D02*
X520586D01*
X518681Y461346D02*
Y465156D01*
X469151Y363556D02*
X472961D01*
X471056Y361651D02*
Y365461D01*
X788556Y484841D02*
X792366D01*
X790461Y482936D02*
Y486746D01*
X675526Y492461D02*
X679336D01*
X677431Y490556D02*
Y494366D01*
X749186Y378161D02*
X752996D01*
X751091Y376256D02*
Y380066D01*
X749186Y404831D02*
X752996D01*
X751091Y402926D02*
Y406736D01*
X647586Y479761D02*
X651396D01*
X649491Y477856D02*
Y481666D01*
X389776Y446741D02*
X393586D01*
X391681Y444836D02*
Y448646D01*
M02*
