G04*
G04 #@! TF.GenerationSoftware,Altium Limited,Altium Designer,25.8.1 (18)*
G04*
G04 Layer_Color=8388736*
%FSLAX44Y44*%
%MOMM*%
G71*
G04*
G04 #@! TF.SameCoordinates,0C62A506-4AB3-4D0B-B9C4-09F1DB62E7D0*
G04*
G04*
G04 #@! TF.FilePolarity,Positive*
G04*
G01*
G75*
%ADD10C,0.2000*%
D10*
X295791Y36521D02*
X457091D01*
X295791D02*
Y105121D01*
X457091D01*
Y36521D02*
Y105121D01*
X481711Y492991D02*
Y527491D01*
X464211Y492991D02*
X481711D01*
X464211D02*
Y527491D01*
X481711D01*
X946031Y360351D02*
Y365351D01*
Y360351D02*
X956031D01*
Y365351D01*
X946031D02*
X956031D01*
X946321Y378521D02*
X960821D01*
Y400521D01*
X946321D02*
X960821D01*
X946321Y378521D02*
Y400521D01*
X1009665Y286691D02*
Y291691D01*
X999665D02*
X1009665D01*
X999665Y286691D02*
Y291691D01*
Y286691D02*
X1009665D01*
X1027071Y257541D02*
Y270041D01*
X1007071D02*
X1027071D01*
X1007071Y257541D02*
Y270041D01*
Y257541D02*
X1027071D01*
X1005476Y306781D02*
Y314781D01*
Y306781D02*
X1021476D01*
Y314781D01*
X1005476D02*
X1021476D01*
X1015748Y347379D02*
X1045748D01*
Y377379D01*
X1015748D02*
X1045748D01*
X1015748Y347379D02*
Y377379D01*
X1046321Y272601D02*
X1051321D01*
X1046321Y262601D02*
Y272601D01*
Y262601D02*
X1051321D01*
Y272601D01*
X1022943Y286691D02*
Y291691D01*
Y286691D02*
X1032943D01*
Y291691D01*
X1022943D02*
X1032943D01*
X1082820Y349140D02*
X1116820D01*
Y367140D01*
X1082820D02*
X1116820D01*
X1082820Y349140D02*
Y367140D01*
X1150931Y266531D02*
Y291531D01*
Y266531D02*
X1182931D01*
Y291531D01*
X1150931D02*
X1182931D01*
X1126000Y349140D02*
X1160000D01*
Y367140D01*
X1126000D02*
X1160000D01*
X1126000Y349140D02*
Y367140D01*
X1150931Y303361D02*
Y328361D01*
Y303361D02*
X1182931D01*
Y328361D01*
X1150931D02*
X1182931D01*
X970451Y378521D02*
X984951D01*
Y400521D01*
X970451D02*
X984951D01*
X970451Y378521D02*
Y400521D01*
X1036625Y418541D02*
Y426541D01*
Y418541D02*
X1052625D01*
Y426541D01*
X1036625D02*
X1052625D01*
X1014191Y447601D02*
Y468601D01*
Y447601D02*
X1035191D01*
Y468601D01*
X1014191D02*
X1035191D01*
X1020121Y481161D02*
Y506161D01*
Y481161D02*
X1052121D01*
Y506161D01*
X1020121D02*
X1052121D01*
X1020121Y541721D02*
X1052121D01*
Y516721D02*
Y541721D01*
X1020121Y516721D02*
X1052121D01*
X1020121D02*
Y541721D01*
Y577281D02*
X1052121D01*
Y552281D02*
Y577281D01*
X1020121Y552281D02*
X1052121D01*
X1020121D02*
Y577281D01*
X1082181Y447601D02*
Y468601D01*
X1061181D02*
X1082181D01*
X1061181Y447601D02*
Y468601D01*
Y447601D02*
X1082181D01*
X501041Y528001D02*
X518541D01*
X501041Y493501D02*
Y528001D01*
Y493501D02*
X518541D01*
Y528001D01*
X763151Y105121D02*
X924451D01*
Y36521D02*
Y105121D01*
X763151Y36521D02*
X924451D01*
X763151D02*
Y105121D01*
X295721Y109401D02*
X457021D01*
X295721D02*
Y178001D01*
X457021D01*
Y109401D02*
Y178001D01*
X763151Y110181D02*
Y178781D01*
Y110181D02*
X924451D01*
Y178781D01*
X763151D02*
X924451D01*
X452511Y429341D02*
X468011D01*
Y421341D02*
Y429341D01*
X452511Y421341D02*
X468011D01*
X452511D02*
Y429341D01*
X266171Y263672D02*
Y291672D01*
X236671Y263672D02*
X266171D01*
X236671D02*
Y291672D01*
X266171D01*
X189261Y263678D02*
Y291678D01*
X159761Y263678D02*
X189261D01*
X159761D02*
Y291678D01*
X189261D01*
X197741Y245088D02*
Y267088D01*
X212241D01*
Y245088D02*
Y267088D01*
X197741Y245088D02*
X212241D01*
X81961Y308211D02*
X101961D01*
Y295711D02*
Y308211D01*
X81961Y295711D02*
X101961D01*
X81961D02*
Y308211D01*
Y332341D02*
X101961D01*
Y319841D02*
Y332341D01*
X81961Y319841D02*
X101961D01*
X81961D02*
Y332341D01*
X80961Y232481D02*
X102961D01*
X80961D02*
Y246981D01*
X102961D01*
Y232481D02*
Y246981D01*
X58571Y262111D02*
Y284111D01*
X44071Y262111D02*
X58571D01*
X44071D02*
Y284111D01*
X58571D01*
X94042Y401121D02*
X114042D01*
X94042D02*
Y413621D01*
X114042D01*
Y401121D02*
Y413621D01*
X46951Y466106D02*
Y482106D01*
X16951Y466106D02*
X46951D01*
X16951D02*
Y482106D01*
X46951D01*
X838591Y419881D02*
Y427881D01*
Y419881D02*
X854091D01*
Y427881D01*
X838591D02*
X854091D01*
X718820Y419881D02*
Y427881D01*
Y419881D02*
X734320D01*
Y427881D01*
X718820D02*
X734320D01*
X197661Y306818D02*
X212161D01*
X197661Y284818D02*
Y306818D01*
Y284818D02*
X212161D01*
Y306818D01*
X856641Y445491D02*
X874141D01*
Y479991D01*
X856641D02*
X874141D01*
X856641Y445491D02*
Y479991D01*
X737261Y445491D02*
X754761D01*
Y479991D01*
X737261D02*
X754761D01*
X737261Y445491D02*
Y479991D01*
X824681Y485211D02*
Y499711D01*
X802681D02*
X824681D01*
X802681Y485211D02*
Y499711D01*
Y485211D02*
X824681D01*
X715101Y483941D02*
Y498441D01*
X693101D02*
X715101D01*
X693101Y483941D02*
Y498441D01*
Y483941D02*
X715101D01*
X566420Y421341D02*
Y429341D01*
Y421341D02*
X581920D01*
Y429341D01*
X566420D02*
X581920D01*
X273941Y245088D02*
X288441D01*
Y267088D01*
X273941D02*
X288441D01*
X273941Y245088D02*
Y267088D01*
X273861Y306818D02*
X288361D01*
X273861Y284818D02*
Y306818D01*
Y284818D02*
X288361D01*
Y306818D01*
X586131Y448221D02*
X603631D01*
Y482721D01*
X586131D02*
X603631D01*
X586131Y448221D02*
Y482721D01*
X471831Y444921D02*
X489331D01*
Y479421D01*
X471831D02*
X489331D01*
X471831Y444921D02*
Y479421D01*
X543241Y485401D02*
Y499901D01*
Y485401D02*
X565241D01*
Y499901D01*
X543241D02*
X565241D01*
X426401Y486671D02*
Y501171D01*
Y486671D02*
X448401D01*
Y501171D01*
X426401D02*
X448401D01*
X324281Y266748D02*
X354781D01*
Y284248D01*
X324281D02*
X354781D01*
X324281Y266748D02*
Y284248D01*
X364031Y290308D02*
X378531D01*
X364031Y268308D02*
Y290308D01*
Y268308D02*
X378531D01*
Y290308D01*
X826471Y326001D02*
Y340501D01*
Y326001D02*
X848471D01*
Y340501D01*
X826471D02*
X848471D01*
X695661Y324731D02*
Y339231D01*
Y324731D02*
X717661D01*
Y339231D01*
X695661D02*
X717661D01*
X546161Y324731D02*
Y339231D01*
Y324731D02*
X568161D01*
Y339231D01*
X546161D02*
X568161D01*
X425511Y326001D02*
Y340501D01*
Y326001D02*
X447511D01*
Y340501D01*
X425511D02*
X447511D01*
X128891Y501810D02*
X141391D01*
X128891Y481810D02*
Y501810D01*
Y481810D02*
X141391D01*
Y501810D01*
X94042Y423981D02*
Y436481D01*
Y423981D02*
X114042D01*
Y436481D01*
X94042D02*
X114042D01*
X105031Y503461D02*
X119531D01*
X105031Y481461D02*
Y503461D01*
Y481461D02*
X119531D01*
Y503461D01*
X80901D02*
X95401D01*
X80901Y481461D02*
Y503461D01*
Y481461D02*
X95401D01*
Y503461D01*
M02*
